<?xml version="1.0" standalone="no"?><!DOCTYPE svg PUBLIC "-//W3C//DTD SVG 1.1//EN" "http://www.w3.org/Graphics/SVG/1.1/DTD/svg11.dtd" ><svg version="1.1" xmlns="http://www.w3.org/2000/svg"><defs><font horiz-adv-x="0" id="font"><font-face ascent="750" bbox="-57 -277 1192 963" cap-height="750" descent="-250" font-family="Copyright House Industries" font-stretch="normal" font-style="normal" font-weight="700" units-per-em="1000" x-height="500" /><missing-glyph d="M50 750H450V-250H50ZM400 -200V700H100V-200Z" horiz-adv-x="500" /><glyph d="M20 15 73 205Q126 396 207 700Q298 702 366 702L435 703L493 482Q552 262 630 -19H579Q529 -19 472 -21L462 19Q452 59 435 131Q403 132 343 132.5Q283 133 199 133L172 13L124 14Q77 15 20 15ZM316 621Q303 570 278 468.5Q253 367 224 244Q252 243 298 243H408Q389 321 366 417Q343 513 316 621Z" glyph-name="A" horiz-adv-x="650" unicode="A" /><glyph d="M803 276 734 277Q666 278 552 277L591 115H656Q721 116 841 120L840 87Q839 55 840 -4L747 -5Q654 -6 461 -12L453 26Q446 64 433 131Q403 132 344 132.5Q285 133 203 133L175 16L127 17Q80 18 20 17L76 208Q133 400 214 701Q525 697 682 699L839 702V667Q839 633 841 575L751 576Q661 577 486 575L496 525Q507 475 526 391H614Q686 391 802 393V360Q802 327 803 276ZM328 631Q318 594 293.5 497.5Q269 401 231 245Q263 244 308.5 243.5Q354 243 411 244Q395 323 374 422Q353 521 328 631Z" glyph-name="AE" horiz-adv-x="882" unicode="&#198;" /><glyph d="M20 15 73 205Q126 396 207 700Q298 702 366 702L435 703L493 482Q552 262 630 -19H579Q529 -19 472 -21L462 19Q452 59 435 131Q403 132 343 132.5Q283 133 199 133L172 13L124 14Q77 15 20 15ZM316 621Q303 570 278 468.5Q253 367 224 244Q252 243 298 243H408Q389 321 366 417Q343 513 316 621ZM316 741Q279 768 263 779L247 790Q311 871 343 914L375 958Q418 927 440 911L463 895Q385 817 350 779Z" glyph-name="Aacute" horiz-adv-x="650" unicode="&#193;" /><glyph d="M20 15 73 205Q126 396 207 700Q298 702 366 702L435 703L493 482Q552 262 630 -19H579Q529 -19 472 -21L462 19Q452 59 435 131Q403 132 343 132.5Q283 133 199 133L172 13L124 14Q77 15 20 15ZM316 621Q303 570 278 468.5Q253 367 224 244Q252 243 298 243H408Q389 321 366 417Q343 513 316 621ZM325 754Q246 754 204 793.5Q162 833 164 899H189Q215 899 258 903Q257 866 275 847Q293 828 326 828Q356 828 374 849Q392 870 389 913H412Q436 913 484 914Q489 834 444.5 794Q400 754 325 754Z" glyph-name="Abreve" horiz-adv-x="650" unicode="&#258;" /><glyph d="M20 15 73 205Q126 396 207 700Q298 702 366 702L435 703L493 482Q552 262 630 -19H579Q529 -19 472 -21L462 19Q452 59 435 131Q403 132 343 132.5Q283 133 199 133L172 13L124 14Q77 15 20 15ZM316 621Q303 570 278 468.5Q253 367 224 244Q252 243 298 243H408Q389 321 366 417Q343 513 316 621ZM215 737 201 751Q187 766 157 793L193 830Q229 867 283 923L301 922Q320 922 369 924L401 889Q434 855 494 798L480 784Q466 771 436 739L405 769Q375 800 324 846L294 818Q265 790 215 737Z" glyph-name="Acircumflex" horiz-adv-x="650" unicode="&#194;" /><glyph d="M20 15 73 205Q126 396 207 700Q298 702 366 702L435 703L493 482Q552 262 630 -19H579Q529 -19 472 -21L462 19Q452 59 435 131Q403 132 343 132.5Q283 133 199 133L172 13L124 14Q77 15 20 15ZM316 621Q303 570 278 468.5Q253 367 224 244Q252 243 298 243H408Q389 321 366 417Q343 513 316 621ZM428 764Q398 764 379 783Q360 802 360 834Q360 860 378.5 878.5Q397 897 430 897Q461 897 478.5 878Q496 859 496 831Q496 799 476.5 781.5Q457 764 428 764ZM224 763Q190 763 172 783Q154 803 154 831Q154 861 175 878.5Q196 896 225 896Q259 896 277.5 876.5Q296 857 296 830Q296 795 274.5 779Q253 763 224 763Z" glyph-name="Adieresis" horiz-adv-x="650" unicode="&#196;" /><glyph d="M20 15 73 205Q126 396 207 700Q298 702 366 702L435 703L493 482Q552 262 630 -19H579Q529 -19 472 -21L462 19Q452 59 435 131Q403 132 343 132.5Q283 133 199 133L172 13L124 14Q77 15 20 15ZM316 621Q303 570 278 468.5Q253 367 224 244Q252 243 298 243H408Q389 321 366 417Q343 513 316 621ZM334 740 299 777Q265 815 188 893L209 908Q231 924 274 958L306 914Q339 871 403 790L385 777Q368 765 334 740Z" glyph-name="Agrave" horiz-adv-x="650" unicode="&#192;" /><glyph d="M20 15 73 205Q126 396 207 700Q298 702 366 702L435 703L493 482Q552 262 630 -19H579Q529 -19 472 -21L462 19Q452 59 435 131Q403 132 343 132.5Q283 133 199 133L172 13L124 14Q77 15 20 15ZM316 621Q303 570 278 468.5Q253 367 224 244Q252 243 298 243H408Q389 321 366 417Q343 513 316 621ZM182 788V808Q182 829 181 875L246 874Q312 874 470 877L469 856Q468 835 468 789H398Q328 790 182 788Z" glyph-name="Amacron" horiz-adv-x="650" unicode="&#256;" /><glyph d="M550 -224Q538 -225 526.5 -226Q515 -227 505 -227Q445 -227 407.5 -201Q370 -175 370 -130Q369 -97 393 -64Q417 -31 468 -9L435 131Q403 132 343 132.5Q283 133 199 133L172 13L124 14Q77 15 20 15L73 205Q126 396 207 700Q298 702 366 702L435 703L493 482Q552 262 630 -19L598 -18Q567 -18 524 -19Q491 -38 476 -60.5Q461 -83 461 -101Q461 -125 487 -135.5Q513 -146 556 -143L553 -163Q551 -184 550 -224ZM316 621Q303 570 278 468.5Q253 367 224 244Q252 243 298 243H408Q389 321 366 417Q343 513 316 621Z" glyph-name="Aogonek" horiz-adv-x="650" unicode="&#260;" /><glyph d="M20 15 73 205Q126 396 207 700Q298 702 366 702L435 703L493 482Q552 262 630 -19H579Q529 -19 472 -21L462 19Q452 59 435 131Q403 132 343 132.5Q283 133 199 133L172 13L124 14Q77 15 20 15ZM316 621Q303 570 278 468.5Q253 367 224 244Q252 243 298 243H408Q389 321 366 417Q343 513 316 621ZM323 744Q266 744 232.5 775Q199 806 199 855Q199 903 234 933Q269 963 323 963Q387 963 419 930Q451 897 451 855Q451 801 414.5 772.5Q378 744 323 744ZM326 795Q352 795 368.5 811.5Q385 828 385 855Q385 878 370 896.5Q355 915 326 915Q298 915 282 898Q266 881 266 856Q266 832 281.5 813.5Q297 795 326 795Z" glyph-name="Aring" horiz-adv-x="650" unicode="&#197;" /><glyph d="M20 15 73 205Q126 396 207 700Q298 702 366 702L435 703L493 482Q552 262 630 -19H579Q529 -19 472 -21L462 19Q452 59 435 131Q403 132 343 132.5Q283 133 199 133L172 13L124 14Q77 15 20 15ZM316 621Q303 570 278 468.5Q253 367 224 244Q252 243 298 243H408Q389 321 366 417Q343 513 316 621ZM225 758 205 759Q186 761 147 761Q145 827 172.5 869Q200 911 253 911Q300 911 330.5 876.5Q361 842 390 842Q406 842 415 856Q424 870 425 904L443 903Q461 903 501 904Q505 827 479 791Q453 755 404 755Q353 755 321.5 788Q290 821 262 821Q245 821 235 804.5Q225 788 225 758Z" glyph-name="Atilde" horiz-adv-x="650" unicode="&#195;" /><glyph d="M69 -1 67 210Q66 421 61 694Q124 704 179.5 709Q235 714 283 714Q436 714 508.5 662.5Q581 611 581 520Q581 460 545.5 416Q510 372 441 356Q530 343 573 298.5Q616 254 616 188Q616 81 529 31Q442 -19 283 -18Q235 -17 181.5 -13Q128 -9 69 -1ZM299 91Q374 91 413 116Q452 141 452 194Q452 240 411.5 267Q371 294 267 294Q254 294 240.5 293.5Q227 293 211 292Q212 211 213 161.5Q214 112 214 97Q237 94 258.5 92.5Q280 91 299 91ZM254 403Q348 403 389 428.5Q430 454 430 506Q430 554 393.5 579.5Q357 605 287 605Q268 605 249.5 603Q231 601 210 598V495Q210 447 211 404Q222 403 233 403Z" glyph-name="B" horiz-adv-x="646" unicode="B" /><glyph d="M348 -18Q201 -18 123 77.5Q45 173 45 347Q45 518 124 615Q203 712 349 712Q473 712 540 641.5Q607 571 625 460Q541 452 500 445L460 438Q453 508 425 548.5Q397 589 345 589Q276 589 242 525Q208 461 209 349Q209 240 242 173.5Q275 107 347 107Q401 107 433 146.5Q465 186 472 277Q542 270 590 266L639 262Q626 120 549 51Q472 -18 348 -18Z" glyph-name="C" horiz-adv-x="672" unicode="C" /><glyph d="M348 -18Q201 -18 123 77.5Q45 173 45 347Q45 518 124 615Q203 712 349 712Q473 712 540 641.5Q607 571 625 460Q541 452 500 445L460 438Q453 508 425 548.5Q397 589 345 589Q276 589 242 525Q208 461 209 349Q209 240 242 173.5Q275 107 347 107Q401 107 433 146.5Q465 186 472 277Q542 270 590 266L639 262Q626 120 549 51Q472 -18 348 -18ZM333 741Q296 768 280 779L264 790Q328 871 360 914L392 958Q435 927 457 911L480 895Q402 817 367 779Z" glyph-name="Cacute" horiz-adv-x="672" unicode="&#262;" /><glyph d="M348 -18Q201 -18 123 77.5Q45 173 45 347Q45 518 124 615Q203 712 349 712Q473 712 540 641.5Q607 571 625 460Q541 452 500 445L460 438Q453 508 425 548.5Q397 589 345 589Q276 589 242 525Q208 461 209 349Q209 240 242 173.5Q275 107 347 107Q401 107 433 146.5Q465 186 472 277Q542 270 590 266L639 262Q626 120 549 51Q472 -18 348 -18ZM231 930Q261 902 292 871.5Q323 841 342 822Q374 849 402.5 877Q431 905 453 931Q473 907 487.5 893Q502 879 511 872Q472 838 438 803Q404 768 385 744Q351 745 332 745H300Q266 777 230.5 813Q195 849 173 873Q195 894 208.5 908Q222 922 231 930Z" glyph-name="Ccaron" horiz-adv-x="672" unicode="&#268;" /><glyph d="M639 262Q627 129 558 60Q489 -9 379 -17Q379 -22 378.5 -36.5Q378 -51 378 -70Q434 -71 461.5 -93Q489 -115 489 -146Q489 -187 449.5 -212Q410 -237 340 -237Q316 -237 287.5 -230.5Q259 -224 236 -213L240 -196Q245 -179 250 -153Q272 -164 293.5 -169.5Q315 -175 334 -175Q357 -175 372 -167.5Q387 -160 387 -144Q387 -128 365.5 -119Q344 -110 291 -115L296 -89Q302 -63 309 -16Q181 -4 113 90Q45 184 45 347Q45 518 124 615Q203 712 349 712Q473 712 540 641.5Q607 571 625 460Q541 452 500 445L460 438Q453 508 425 548.5Q397 589 345 589Q276 589 242 525Q208 461 209 349Q209 240 242 173.5Q275 107 347 107Q401 107 433 146.5Q465 186 472 277Q542 270 590 266Z" glyph-name="Ccedilla" horiz-adv-x="672" unicode="&#199;" /><glyph d="M348 -18Q201 -18 123 77.5Q45 173 45 347Q45 518 124 615Q203 712 349 712Q473 712 540 641.5Q607 571 625 460Q541 452 500 445L460 438Q453 508 425 548.5Q397 589 345 589Q276 589 242 525Q208 461 209 349Q209 240 242 173.5Q275 107 347 107Q401 107 433 146.5Q465 186 472 277Q542 270 590 266L639 262Q626 120 549 51Q472 -18 348 -18ZM232 737 218 751Q204 766 174 793L210 830Q246 867 300 923L318 922Q337 922 386 924L418 889Q451 855 511 798L497 784Q483 771 453 739L422 769Q392 800 341 846L311 818Q282 790 232 737Z" glyph-name="Ccircumflex" horiz-adv-x="672" unicode="&#264;" /><glyph d="M61 -1Q63 299 62 493L61 688Q107 695 149 698.5Q191 702 231 702Q431 703 526 608.5Q621 514 621 345Q621 165 520.5 77.5Q420 -10 217 -11Q182 -11 143 -8.5Q104 -6 61 -1ZM217 111Q224 110 231 110H246Q346 110 402 160.5Q458 211 458 348Q458 457 408.5 518.5Q359 580 257 580Q246 580 234.5 579Q223 578 211 577Q212 384 214 247Z" glyph-name="D" horiz-adv-x="665" unicode="D" /><glyph d="M61 -1Q63 299 62 493L61 688Q107 695 149 698.5Q191 702 231 702Q431 703 526 608.5Q621 514 621 345Q621 165 520.5 77.5Q420 -10 217 -11Q182 -11 143 -8.5Q104 -6 61 -1ZM217 111Q224 110 231 110H246Q346 110 402 160.5Q458 211 458 348Q458 457 408.5 518.5Q359 580 257 580Q246 580 234.5 579Q223 578 211 577Q212 384 214 247ZM193 930Q223 902 254 871.5Q285 841 304 822Q336 849 364.5 877Q393 905 415 931Q435 907 449.5 893Q464 879 473 872Q434 838 400 803Q366 768 347 744Q313 745 294 745H262Q228 777 192.5 813Q157 849 135 873Q157 894 170.5 908Q184 922 193 930Z" glyph-name="Dcaron" horiz-adv-x="665" unicode="&#270;" /><glyph d="M17 283 18 311Q20 340 19 403L40 401Q61 400 101 399Q100 530 99 609V688Q146 695 188 698.5Q230 702 270 702Q470 703 564.5 608.5Q659 514 659 345Q659 165 558.5 77.5Q458 -10 256 -11Q221 -11 181.5 -8.5Q142 -6 100 -1Q101 80 101 149V284ZM255 111Q263 110 271 110H288Q387 110 441.5 161.5Q496 213 496 348Q496 457 447.5 518Q399 579 295 580Q284 580 272.5 579Q261 578 249 577V483Q249 438 250 396H355V370Q355 344 356 287H327Q299 287 251 286Q252 206 253 158Z" glyph-name="Dcroat" horiz-adv-x="704" unicode="&#272;" /><glyph d="M69 4 67 198Q66 392 61 693L187 695Q314 697 517 700V668Q518 637 519 577L431 576Q343 575 213 572V523Q213 475 214 391H308Q375 391 474 393V362Q474 332 475 273L400 274Q325 275 216 274Q217 240 218 201.5Q219 163 220 123L306 121Q393 119 525 118L524 86Q524 55 524 -5L382 -1Q241 3 69 4Z" glyph-name="E" horiz-adv-x="565" unicode="E" /><glyph d="M69 4 67 198Q66 392 61 693L187 695Q314 697 517 700V668Q518 637 519 577L431 576Q343 575 213 572V523Q213 475 214 391H308Q375 391 474 393V362Q474 332 475 273L400 274Q325 275 216 274Q217 240 218 201.5Q219 163 220 123L306 121Q393 119 525 118L524 86Q524 55 524 -5L382 -1Q241 3 69 4ZM290 741Q253 768 237 779L221 790Q285 871 317 914L349 958Q392 927 414 911L437 895Q359 817 324 779Z" glyph-name="Eacute" horiz-adv-x="565" unicode="&#201;" /><glyph d="M69 4 67 198Q66 392 61 693L187 695Q314 697 517 700V668Q518 637 519 577L431 576Q343 575 213 572V523Q213 475 214 391H308Q375 391 474 393V362Q474 332 475 273L400 274Q325 275 216 274Q217 240 218 201.5Q219 163 220 123L306 121Q393 119 525 118L524 86Q524 55 524 -5L382 -1Q241 3 69 4ZM188 930Q218 902 249 871.5Q280 841 299 822Q331 849 359.5 877Q388 905 410 931Q430 907 444.5 893Q459 879 468 872Q429 838 395 803Q361 768 342 744Q308 745 289 745H257Q223 777 187.5 813Q152 849 130 873Q152 894 165.5 908Q179 922 188 930Z" glyph-name="Ecaron" horiz-adv-x="565" unicode="&#282;" /><glyph d="M69 4 67 198Q66 392 61 693L187 695Q314 697 517 700V668Q518 637 519 577L431 576Q343 575 213 572V523Q213 475 214 391H308Q375 391 474 393V362Q474 332 475 273L400 274Q325 275 216 274Q217 240 218 201.5Q219 163 220 123L306 121Q393 119 525 118L524 86Q524 55 524 -5L382 -1Q241 3 69 4ZM188 737 174 751Q160 766 130 793L166 830Q202 867 256 923L274 922Q293 922 342 924L374 889Q407 855 467 798L453 784Q439 771 409 739L378 769Q348 800 297 846L267 818Q238 790 188 737Z" glyph-name="Ecircumflex" horiz-adv-x="565" unicode="&#202;" /><glyph d="M69 4 67 198Q66 392 61 693L187 695Q314 697 517 700V668Q518 637 519 577L431 576Q343 575 213 572V523Q213 475 214 391H308Q375 391 474 393V362Q474 332 475 273L400 274Q325 275 216 274Q217 240 218 201.5Q219 163 220 123L306 121Q393 119 525 118L524 86Q524 55 524 -5L382 -1Q241 3 69 4ZM401 764Q371 764 352 783Q333 802 333 834Q333 860 351.5 878.5Q370 897 403 897Q434 897 451.5 878Q469 859 469 831Q469 799 449.5 781.5Q430 764 401 764ZM197 763Q163 763 145 783Q127 803 127 831Q127 861 148 878.5Q169 896 198 896Q232 896 250.5 876.5Q269 857 269 830Q269 795 247.5 779Q226 763 197 763Z" glyph-name="Edieresis" horiz-adv-x="565" unicode="&#203;" /><glyph d="M69 4 67 198Q66 392 61 693L187 695Q314 697 517 700V668Q518 637 519 577L431 576Q343 575 213 572V523Q213 475 214 391H308Q375 391 474 393V362Q474 332 475 273L400 274Q325 275 216 274Q217 240 218 201.5Q219 163 220 123L306 121Q393 119 525 118L524 86Q524 55 524 -5L382 -1Q241 3 69 4ZM298 759Q255 759 234 783.5Q213 808 213 840Q213 871 235 894Q257 917 298 917Q341 917 362 891.5Q383 866 383 838Q383 800 359 779.5Q335 759 298 759Z" glyph-name="Edotaccent" horiz-adv-x="565" unicode="&#278;" /><glyph d="M69 4 67 198Q66 392 61 693L187 695Q314 697 517 700V668Q518 637 519 577L431 576Q343 575 213 572V523Q213 475 214 391H308Q375 391 474 393V362Q474 332 475 273L400 274Q325 275 216 274Q217 240 218 201.5Q219 163 220 123L306 121Q393 119 525 118L524 86Q524 55 524 -5L382 -1Q241 3 69 4ZM308 740 273 777Q239 815 162 893L183 908Q205 924 248 958L280 914Q313 871 377 790L359 777Q342 765 308 740Z" glyph-name="Egrave" horiz-adv-x="565" unicode="&#200;" /><glyph d="M69 4 67 198Q66 392 61 693L187 695Q314 697 517 700V668Q518 637 519 577L431 576Q343 575 213 572V523Q213 475 214 391H308Q375 391 474 393V362Q474 332 475 273L400 274Q325 275 216 274Q217 240 218 201.5Q219 163 220 123L306 121Q393 119 525 118L524 86Q524 55 524 -5L382 -1Q241 3 69 4ZM155 788V808Q155 829 154 875L219 874Q285 874 443 877L442 856Q441 835 441 789H371Q301 790 155 788Z" glyph-name="Emacron" horiz-adv-x="565" unicode="&#274;" /><glyph d="M523 -212 501 -214Q490 -215 480 -215Q418 -215 380.5 -189Q343 -163 343 -118Q342 -87 363 -55.5Q384 -24 430 -2Q365 -1 268.5 1Q172 3 69 4L67 198Q66 392 61 693L187 695Q314 697 517 700V668Q518 637 519 577L431 576Q343 575 213 572V523Q213 475 214 391H308Q375 391 474 393V362Q474 332 475 273L400 274Q325 275 216 274Q217 240 218 201.5Q219 163 220 123L306 121Q393 119 525 118L524 91Q524 65 524 5Q477 -14 455.5 -41Q434 -68 434 -89Q434 -113 460 -123.5Q486 -134 529 -131L526 -151Q524 -172 523 -212Z" glyph-name="Eogonek" horiz-adv-x="565" unicode="&#280;" /><glyph d="M17 283 18 311Q20 340 19 403L40 401Q61 400 101 399Q100 530 99 609V688Q146 695 188 698.5Q230 702 270 702Q470 703 564.5 608.5Q659 514 659 345Q659 165 558.5 77.5Q458 -10 256 -11Q221 -11 181.5 -8.5Q142 -6 100 -1Q101 80 101 149V284ZM255 111Q263 110 271 110H288Q387 110 441.5 161.5Q496 213 496 348Q496 457 447.5 518Q399 579 295 580Q284 580 272.5 579Q261 578 249 577V483Q249 438 250 396H355V370Q355 344 356 287H327Q299 287 251 286Q252 206 253 158Z" glyph-name="Eth" horiz-adv-x="704" unicode="&#208;" /><glyph d="M19 348V364Q20 381 19 417L38 416Q58 416 101 417Q123 536 197.5 605Q272 674 387 674Q503 674 567 617Q631 560 650 473Q590 464 543 455L497 447Q486 499 460 527Q434 555 388 555Q337 555 304 521.5Q271 488 258 420L449 424L448 404Q447 385 448 354L402 353Q357 353 251 352L250 337Q249 322 250 300L459 304L458 286Q458 268 459 236L412 235Q366 235 256 234Q267 164 299 128Q331 92 385 92Q432 92 462 119Q492 146 505 217Q571 204 615 197L660 191Q643 84 565.5 28.5Q488 -27 383 -26Q263 -26 190.5 41.5Q118 109 99 231Q79 230 61.5 229.5Q44 229 22 229V245Q23 261 23 299L41 298Q59 298 93 298L92 312Q92 327 93 349Z" glyph-name="Euro" horiz-adv-x="693" unicode="&#8364;" /><glyph d="M21 370V386Q22 402 21 438H40Q60 438 104 439Q126 567 205 643Q284 719 406 719Q515 719 583.5 659.5Q652 600 680 505Q603 497 557 489L512 482Q498 539 472 566.5Q446 594 402 594Q348 594 313.5 555Q279 516 268 441L462 446L461 427Q460 408 460 377L414 376Q369 376 262 375L261 356Q260 338 262 313L472 317L471 300Q471 283 472 249L425 248Q379 248 269 247Q280 175 313 137.5Q346 100 400 100Q447 100 478.5 127.5Q510 155 526 215Q599 201 643 193L688 186Q658 84 583.5 30Q509 -24 398 -23Q279 -23 202.5 45Q126 113 104 244L24 243V257Q25 272 25 312L44 311Q63 311 98 311L97 327Q96 344 97 372Q78 371 60.5 370.5Q43 370 21 370Z" glyph-name="Euro.cap" horiz-adv-x="721" /><glyph d="M16 370V386Q16 402 15 438H29Q43 438 84 439Q103 567 177 643Q251 719 363 719Q473 719 533 655.5Q593 592 618 505Q541 497 497 489L453 482Q442 531 420 562.5Q398 594 358 594Q312 594 283 555.5Q254 517 244 442L405 446L404 427Q403 408 403 377L371 376Q339 376 239 375L238 358Q238 341 239 313L415 317L414 300Q414 283 415 249L382 248Q349 248 245 247Q255 170 284 135Q313 100 357 100Q395 100 423 129Q451 158 467 215Q540 201 583 194L626 187Q597 87 529.5 31.5Q462 -24 355 -23Q252 -23 179 44.5Q106 112 84 244L18 243V257Q19 272 19 312L33 311Q47 311 78 311L77 328Q76 345 77 371Z" glyph-name="Euro.captab" horiz-adv-x="650" /><glyph d="M17 348V364Q18 381 17 417H30Q44 417 87 418Q107 533 175.5 603.5Q244 674 351 674Q457 674 512.5 614.5Q568 555 586 473Q526 464 479 455L433 447Q426 497 404 526Q382 555 345 555Q302 555 276.5 521.5Q251 488 242 421L383 424L382 404Q381 385 381 354L354 353Q327 353 237 352L236 337Q236 322 237 301Q269 301 307 302Q345 303 392 304L391 286Q391 268 392 236L364 235Q337 235 241 234Q250 161 275.5 126.5Q301 92 345 92Q379 92 405 120Q431 148 442 217Q508 204 552 197L597 191Q578 87 510.5 30Q443 -27 347 -26Q233 -26 168 44Q103 114 86 230L19 229V245Q20 261 20 299L33 298Q47 298 80 298L79 312Q79 327 80 349Z" glyph-name="Euro.tab" horiz-adv-x="615" /><glyph d="M69 2 67 197Q66 393 61 694L200 695Q340 697 506 699V663Q507 628 508 567L413 566Q318 565 214 563V512Q214 461 215 357H296Q353 357 464 359V324Q464 290 465 228L396 229Q327 230 217 229L221 3Q157 3 113 2Z" glyph-name="F" horiz-adv-x="540" unicode="F" /><glyph d="M352 -23Q213 -23 129 68Q45 159 45 348Q45 511 124 612.5Q203 714 353 714Q470 714 538.5 651Q607 588 626 480L582 475Q538 470 471 459Q462 519 431.5 556Q401 593 350 593Q278 593 241 528Q204 463 204 350Q204 223 244.5 159Q285 95 368 95Q425 95 462 133Q499 171 502 255Q480 256 433 257.5Q386 259 323 258V287Q323 317 322 374L403 373Q484 372 638 373Q659 180 581 78.5Q503 -23 352 -23Z" glyph-name="G" horiz-adv-x="687" unicode="G" /><glyph d="M352 -23Q213 -23 129 68Q45 159 45 348Q45 511 124 612.5Q203 714 353 714Q470 714 538.5 651Q607 588 626 480L582 475Q538 470 471 459Q462 519 431.5 556Q401 593 350 593Q278 593 241 528Q204 463 204 350Q204 223 244.5 159Q285 95 368 95Q425 95 462 133Q499 171 502 255Q480 256 433 257.5Q386 259 323 258V287Q323 317 322 374L403 373Q484 372 638 373Q659 180 581 78.5Q503 -23 352 -23ZM336 754Q257 754 215 793.5Q173 833 175 899H200Q226 899 269 903Q268 866 286 847Q304 828 337 828Q367 828 385 849Q403 870 400 913H423Q447 913 495 914Q500 834 455.5 794Q411 754 336 754Z" glyph-name="Gbreve" horiz-adv-x="687" unicode="&#286;" /><glyph d="M352 -23Q213 -23 129 68Q45 159 45 348Q45 511 124 612.5Q203 714 353 714Q470 714 538.5 651Q607 588 626 480L582 475Q538 470 471 459Q462 519 431.5 556Q401 593 350 593Q278 593 241 528Q204 463 204 350Q204 223 244.5 159Q285 95 368 95Q425 95 462 133Q499 171 502 255Q480 256 433 257.5Q386 259 323 258V287Q323 317 322 374L403 373Q484 372 638 373Q659 180 581 78.5Q503 -23 352 -23ZM226 737 212 751Q198 766 168 793L204 830Q240 867 294 923L312 922Q331 922 380 924L412 889Q445 855 505 798L491 784Q477 771 447 739L416 769Q386 800 335 846L305 818Q276 790 226 737Z" glyph-name="Gcircumflex" horiz-adv-x="687" unicode="&#284;" /><glyph d="M352 -23Q213 -23 129 68Q45 159 45 348Q45 511 124 612.5Q203 714 353 714Q470 714 538.5 651Q607 588 626 480L582 475Q538 470 471 459Q462 519 431.5 556Q401 593 350 593Q278 593 241 528Q204 463 204 350Q204 223 244.5 159Q285 95 368 95Q425 95 462 133Q499 171 502 255Q480 256 433 257.5Q386 259 323 258V287Q323 317 322 374L403 373Q484 372 638 373Q659 180 581 78.5Q503 -23 352 -23ZM416 -119Q416 -159 384 -200Q352 -241 304 -272Q285 -252 276 -243L268 -235Q289 -219 305 -200.5Q321 -182 329 -170Q306 -166 293 -149.5Q280 -133 280 -113Q280 -88 298 -69.5Q316 -51 348 -51Q379 -51 397.5 -69.5Q416 -88 416 -119Z" glyph-name="Gcommaaccent" horiz-adv-x="687" unicode="&#290;" /><glyph d="M429 225Q407 226 356 225.5Q305 225 215 224L218 18H170Q122 18 65 17V197Q65 378 61 677H103Q146 677 211 678L212 588Q213 499 214 355Q231 355 284.5 354Q338 353 428 354Q428 432 427 523Q426 614 425 714H469Q514 714 578 715V500Q579 285 581 -20L536 -19Q492 -18 429 -19Z" glyph-name="H" horiz-adv-x="642" unicode="H" /><glyph d="M429 225Q407 226 356 225.5Q305 225 215 224L218 18H170Q122 18 65 17V197Q65 378 61 677H103Q146 677 211 678L212 588Q213 499 214 355Q231 355 284.5 354Q338 353 428 354Q428 432 427 523Q426 614 425 714H469Q514 714 578 715V500Q579 285 581 -20L536 -19Q492 -18 429 -19ZM211 737 197 751Q183 766 153 793L189 830Q225 867 279 923L297 922Q316 922 365 924L397 889Q430 855 490 798L476 784Q462 771 432 739L401 769Q371 800 320 846L290 818Q261 790 211 737Z" glyph-name="Hcircumflex" horiz-adv-x="642" unicode="&#292;" /><glyph d="M75 -1 74 201Q74 404 71 694H111Q151 694 224 695L225 482Q226 269 229 -1L184 0Q140 0 75 -1Z" glyph-name="I" horiz-adv-x="300" unicode="I" /><glyph d="M75 -1 74 201Q74 404 71 694H111Q151 694 224 695L225 482Q226 269 229 -1L184 0Q140 0 75 -1ZM142 741Q105 768 89 779L73 790Q137 871 169 914L201 958Q244 927 266 911L289 895Q211 817 176 779Z" glyph-name="Iacute" horiz-adv-x="300" unicode="&#205;" /><glyph d="M75 -1 74 201Q74 404 71 694H111Q151 694 224 695L225 482Q226 269 229 -1L184 0Q140 0 75 -1ZM41 737 27 751Q13 766 -17 793L19 830Q55 867 109 923L127 922Q146 922 195 924L227 889Q260 855 320 798L306 784Q292 771 262 739L231 769Q201 800 150 846L120 818Q91 790 41 737Z" glyph-name="Icircumflex" horiz-adv-x="300" unicode="&#206;" /><glyph d="M75 -1 74 201Q74 404 71 694H111Q151 694 224 695L225 482Q226 269 229 -1L184 0Q140 0 75 -1ZM254 764Q224 764 205 783Q186 802 186 834Q186 860 204.5 878.5Q223 897 256 897Q287 897 304.5 878Q322 859 322 831Q322 799 302.5 781.5Q283 764 254 764ZM50 763Q16 763 -2 783Q-20 803 -20 831Q-20 861 1 878.5Q22 896 51 896Q85 896 103.5 876.5Q122 857 122 830Q122 795 100.5 779Q79 763 50 763Z" glyph-name="Idieresis" horiz-adv-x="300" unicode="&#207;" /><glyph d="M75 -1 74 201Q74 404 71 694H111Q151 694 224 695L225 482Q226 269 229 -1L184 0Q140 0 75 -1ZM151 759Q108 759 87 783.5Q66 808 66 840Q66 871 88 894Q110 917 151 917Q194 917 215 891.5Q236 866 236 838Q236 800 212 779.5Q188 759 151 759Z" glyph-name="Idotaccent" horiz-adv-x="300" unicode="&#304;" /><glyph d="M75 -1 74 201Q74 404 71 694H111Q151 694 224 695L225 482Q226 269 229 -1L184 0Q140 0 75 -1ZM151 564Q108 564 87 588.5Q66 613 66 645Q66 676 88 699Q110 722 151 722Q194 722 215 696.5Q236 671 236 643Q236 605 212 584.5Q188 564 151 564Z" glyph-name="Idotaccent#1" horiz-adv-x="300" /><glyph d="M75 -1 74 201Q74 404 71 694H111Q151 694 224 695L225 482Q226 269 229 -1L184 0Q140 0 75 -1ZM160 740 125 777Q91 815 14 893L35 908Q57 924 100 958L132 914Q165 871 229 790L211 777Q194 765 160 740Z" glyph-name="Igrave" horiz-adv-x="300" unicode="&#204;" /><glyph d="M75 -1 74 201Q74 404 71 694H111Q151 694 224 695L225 482Q226 269 229 -1L184 0Q140 0 75 -1ZM8 788V808Q8 829 7 875L72 874Q138 874 296 877L295 856Q294 835 294 789H224Q154 790 8 788Z" glyph-name="Imacron" horiz-adv-x="300" unicode="&#298;" /><glyph d="M213 -208Q201 -209 189.5 -210Q178 -211 168 -211Q108 -211 70.5 -185Q33 -159 33 -114Q32 -83 52.5 -52.5Q73 -22 116 0L76 -1L75 201Q75 404 72 694H112Q152 694 225 695L226 482Q227 269 230 -1L219 0Q208 0 193 0Q157 -19 140.5 -42.5Q124 -66 124 -85Q124 -109 150 -119.5Q176 -130 219 -127L216 -147Q214 -168 213 -208Z" glyph-name="Iogonek" horiz-adv-x="300" unicode="&#302;" /><glyph d="M295 -15Q155 -15 95.5 71.5Q36 158 49 336L91 333Q133 331 205 330Q196 211 220 164Q244 117 292 117Q333 117 356 155Q379 193 379 293Q379 468 375 584L372 701H416Q460 702 537 706L536 598Q535 491 535 294Q535 132 471.5 58.5Q408 -15 295 -15Z" glyph-name="J" horiz-adv-x="576" unicode="J" /><glyph d="M285 -15Q145 -15 85.5 71.5Q26 158 39 336L81 333Q123 331 195 330Q186 211 210 164Q234 117 282 117Q323 117 346 155Q369 193 369 293Q369 468 365 584L362 701H406Q450 702 527 706L526 598Q525 491 525 294Q525 132 461.5 58.5Q398 -15 285 -15ZM328 737 314 751Q300 766 270 793L306 830Q342 867 396 923L414 922Q433 922 482 924L514 889Q547 855 607 798L593 784Q579 771 549 739L518 769Q488 800 437 846L407 818Q378 790 328 737Z" glyph-name="Jcircumflex" horiz-adv-x="576" unicode="&#308;" /><glyph d="M454 -24Q397 82 357.5 153.5Q318 225 295 265Q267 225 246 193.5Q225 162 212 143Q213 80 213 47L214 14Q145 15 103 14L61 13Q62 312 61 495V679Q127 678 169 678H212Q211 573 210.5 484Q210 395 211 322Q327 509 387 610L448 711Q529 707 573 705L617 704Q533 577 480.5 493Q428 409 406 372Q499 199 560 92L622 -15Q541 -17 497 -20Z" glyph-name="K" horiz-adv-x="640" unicode="K" /><glyph d="M454 -24Q397 82 357.5 153.5Q318 225 295 265Q267 225 246 193.5Q225 162 212 143Q213 80 213 47L214 14Q145 15 103 14L61 13Q62 312 61 495V679Q127 678 169 678H212Q211 573 210.5 484Q210 395 211 322Q327 509 387 610L448 711Q529 707 573 705L617 704Q533 577 480.5 493Q428 409 406 372Q499 199 560 92L622 -15Q541 -17 497 -20ZM397 -119Q397 -159 365 -200Q333 -241 285 -272Q266 -252 257 -243L249 -235Q270 -219 286 -200.5Q302 -182 310 -170Q287 -166 274 -149.5Q261 -133 261 -113Q261 -88 279 -69.5Q297 -51 329 -51Q360 -51 378.5 -69.5Q397 -88 397 -119Z" glyph-name="Kcommaaccent" horiz-adv-x="640" unicode="&#310;" /><glyph d="M67 3 66 210Q65 418 61 689L98 688Q135 688 213 689V566Q213 443 217 136Q352 133 424 132H497Q496 71 496 34V-2Q318 2 192 2Z" glyph-name="L" horiz-adv-x="522" unicode="L" /><glyph d="M67 3 66 210Q65 418 61 689L98 688Q135 688 213 689V566Q213 443 217 136Q352 133 424 132H497Q496 71 496 34V-2Q318 2 192 2ZM169 741Q132 768 116 779L100 790Q164 871 196 914L228 958Q271 927 293 911L316 895Q238 817 203 779Z" glyph-name="Lacute" horiz-adv-x="522" unicode="&#313;" /><glyph d="M445 679Q445 639 413 598Q381 557 333 526Q314 546 305 555L297 563Q318 579 334 597.5Q350 616 358 628Q335 632 322 648.5Q309 665 309 685Q309 710 327 728.5Q345 747 377 747Q408 747 426.5 728.5Q445 710 445 679ZM67 3 66 210Q65 418 61 689L98 688Q135 688 213 689V566Q213 443 217 136Q352 133 424 132H497Q496 71 496 34V-2Q318 2 192 2Z" glyph-name="Lcaron" horiz-adv-x="522" unicode="&#317;" /><glyph d="M67 3 66 210Q65 418 61 689L98 688Q135 688 213 689V566Q213 443 217 136Q352 133 424 132H497Q496 71 496 34V-2Q318 2 192 2ZM359 -119Q359 -159 327 -200Q295 -241 247 -272Q228 -252 219 -243L211 -235Q232 -219 248 -200.5Q264 -182 272 -170Q249 -166 236 -149.5Q223 -133 223 -113Q223 -88 241 -69.5Q259 -51 291 -51Q322 -51 340.5 -69.5Q359 -88 359 -119Z" glyph-name="Lcommaaccent" horiz-adv-x="522" unicode="&#315;" /><glyph d="M19 263 20 294Q22 325 21 387L41 392Q61 397 95 406L92 689L129 688Q166 688 245 689L244 632Q244 576 245 448L362 482L361 452Q361 423 363 365L332 356Q301 348 246 332L249 132Q383 129 454 128H526Q525 67 525 32V-2Q347 2 222 2L98 3L97 81Q97 160 96 287Z" glyph-name="Lslash" horiz-adv-x="552" unicode="&#321;" /><glyph d="M57 18 65 199Q73 381 82 676H150Q218 677 300 680L348 526Q397 373 458 183Q480 249 525.5 396Q571 543 617 715L686 713Q755 712 838 708L846 500Q855 293 871 -16L715 -20L714 161Q714 342 707 603Q682 528 627 353Q572 178 532 36H483Q434 37 377 35L328 186Q280 338 201 576Q201 504 200.5 346Q200 188 201 15L157 16Q113 17 57 18Z" glyph-name="M" horiz-adv-x="927" unicode="M" /><glyph d="M64 18V193Q65 368 61 672L112 675Q164 678 225 680L298 529Q371 379 475 180Q474 242 469 387.5Q464 533 456 714L496 713Q536 713 595 713L597 517Q600 322 607 -10L560 -13Q513 -16 448 -20L374 128Q300 276 190 482Q191 422 194.5 295Q198 168 203 16L162 17Q122 18 64 18Z" glyph-name="N" horiz-adv-x="667" unicode="N" /><glyph d="M64 18V193Q65 368 61 672L112 675Q164 678 225 680L298 529Q371 379 475 180Q474 242 469 387.5Q464 533 456 714L496 713Q536 713 595 713L597 517Q600 322 607 -10L560 -13Q513 -16 448 -20L374 128Q300 276 190 482Q191 422 194.5 295Q198 168 203 16L162 17Q122 18 64 18ZM325 741Q288 768 272 779L256 790Q320 871 352 914L384 958Q427 927 449 911L472 895Q394 817 359 779Z" glyph-name="Nacute" horiz-adv-x="667" unicode="&#323;" /><glyph d="M64 18V193Q65 368 61 672L112 675Q164 678 225 680L298 529Q371 379 475 180Q474 242 469 387.5Q464 533 456 714L496 713Q536 713 595 713L597 517Q600 322 607 -10L560 -13Q513 -16 448 -20L374 128Q300 276 190 482Q191 422 194.5 295Q198 168 203 16L162 17Q122 18 64 18ZM223 930Q253 902 284 871.5Q315 841 334 822Q366 849 394.5 877Q423 905 445 931Q465 907 479.5 893Q494 879 503 872Q464 838 430 803Q396 768 377 744Q343 745 324 745H292Q258 777 222.5 813Q187 849 165 873Q187 894 200.5 908Q214 922 223 930Z" glyph-name="Ncaron" horiz-adv-x="667" unicode="&#327;" /><glyph d="M64 18V193Q65 368 61 672L112 675Q164 678 225 680L298 529Q371 379 475 180Q474 242 469 387.5Q464 533 456 714L496 713Q536 713 595 713L597 517Q600 322 607 -10L560 -13Q513 -16 448 -20L374 128Q300 276 190 482Q191 422 194.5 295Q198 168 203 16L162 17Q122 18 64 18ZM414 -119Q414 -159 382 -200Q350 -241 302 -272Q283 -252 274 -243L266 -235Q287 -219 303 -200.5Q319 -182 327 -170Q304 -166 291 -149.5Q278 -133 278 -113Q278 -88 296 -69.5Q314 -51 346 -51Q377 -51 395.5 -69.5Q414 -88 414 -119Z" glyph-name="Ncommaaccent" horiz-adv-x="667" unicode="&#325;" /><glyph d="M64 18V193Q65 368 61 672L112 675Q164 678 225 680L298 529Q371 379 475 180Q474 242 469 387.5Q464 533 456 714L496 713Q536 713 595 713L597 517Q600 322 607 -10L560 -13Q513 -16 448 -20L374 128Q300 276 190 482Q191 422 194.5 295Q198 168 203 16L162 17Q122 18 64 18ZM234 758 214 759Q195 761 156 761Q154 827 181.5 869Q209 911 262 911Q309 911 339.5 876.5Q370 842 399 842Q415 842 424 856Q433 870 434 904L452 903Q470 903 510 904Q514 827 488 791Q462 755 413 755Q362 755 330.5 788Q299 821 271 821Q254 821 244 804.5Q234 788 234 758Z" glyph-name="Ntilde" horiz-adv-x="667" unicode="&#209;" /><glyph d="M352 -21Q211 -20 129 74Q47 168 47 341Q46 512 128 612Q210 712 354 712Q501 712 579.5 612.5Q658 513 658 343Q658 159 573.5 69Q489 -21 352 -21ZM352 100Q413 100 453 157Q493 214 493 345Q493 470 456 530.5Q419 591 353 591Q284 591 247.5 528Q211 465 211 344Q210 225 248 162.5Q286 100 352 100Z" glyph-name="O" horiz-adv-x="702" unicode="O" /><glyph d="M899 274 821 275Q744 276 644 275Q644 240 645 202Q646 164 647 127L731 124Q816 121 950 122L948 85Q947 48 947 -6L852 -1Q757 4 504 8V24Q505 40 504 77Q476 27 424.5 -1Q373 -29 317 -29Q196 -29 120.5 67Q45 163 45 341Q45 498 121 606.5Q197 715 317 715Q380 715 425 689.5Q470 664 495 621L494 687L594 688Q695 689 942 698V661Q943 624 945 573H855Q766 573 644 569L643 515Q643 462 643 390Q674 390 741 389.5Q808 389 898 391V357Q898 323 899 274ZM351 92Q414 92 453 152.5Q492 213 492 344Q492 462 456 528.5Q420 595 348 595Q280 595 244.5 528.5Q209 462 209 343Q209 224 245.5 158Q282 92 351 92Z" glyph-name="OE" horiz-adv-x="989" unicode="&#338;" /><glyph d="M352 -21Q211 -20 129 74Q47 168 47 341Q46 512 128 612Q210 712 354 712Q501 712 579.5 612.5Q658 513 658 343Q658 159 573.5 69Q489 -21 352 -21ZM352 100Q413 100 453 157Q493 214 493 345Q493 470 456 530.5Q419 591 353 591Q284 591 247.5 528Q211 465 211 344Q210 225 248 162.5Q286 100 352 100ZM342 741Q305 768 289 779L273 790Q337 871 369 914L401 958Q444 927 466 911L489 895Q411 817 376 779Z" glyph-name="Oacute" horiz-adv-x="702" unicode="&#211;" /><glyph d="M352 -21Q211 -20 129 74Q47 168 47 341Q46 512 128 612Q210 712 354 712Q501 712 579.5 612.5Q658 513 658 343Q658 159 573.5 69Q489 -21 352 -21ZM352 100Q413 100 453 157Q493 214 493 345Q493 470 456 530.5Q419 591 353 591Q284 591 247.5 528Q211 465 211 344Q210 225 248 162.5Q286 100 352 100ZM241 737 227 751Q213 766 183 793L219 830Q255 867 309 923L327 922Q346 922 395 924L427 889Q460 855 520 798L506 784Q492 771 462 739L431 769Q401 800 350 846L320 818Q291 790 241 737Z" glyph-name="Ocircumflex" horiz-adv-x="702" unicode="&#212;" /><glyph d="M352 -21Q211 -20 129 74Q47 168 47 341Q46 512 128 612Q210 712 354 712Q501 712 579.5 612.5Q658 513 658 343Q658 159 573.5 69Q489 -21 352 -21ZM352 100Q413 100 453 157Q493 214 493 345Q493 470 456 530.5Q419 591 353 591Q284 591 247.5 528Q211 465 211 344Q210 225 248 162.5Q286 100 352 100ZM454 764Q424 764 405 783Q386 802 386 834Q386 860 404.5 878.5Q423 897 456 897Q487 897 504.5 878Q522 859 522 831Q522 799 502.5 781.5Q483 764 454 764ZM250 763Q216 763 198 783Q180 803 180 831Q180 861 201 878.5Q222 896 251 896Q285 896 303.5 876.5Q322 857 322 830Q322 795 300.5 779Q279 763 250 763Z" glyph-name="Odieresis" horiz-adv-x="702" unicode="&#214;" /><glyph d="M352 -21Q211 -20 129 74Q47 168 47 341Q46 512 128 612Q210 712 354 712Q501 712 579.5 612.5Q658 513 658 343Q658 159 573.5 69Q489 -21 352 -21ZM352 100Q413 100 453 157Q493 214 493 345Q493 470 456 530.5Q419 591 353 591Q284 591 247.5 528Q211 465 211 344Q210 225 248 162.5Q286 100 352 100ZM360 740 325 777Q291 815 214 893L235 908Q257 924 300 958L332 914Q365 871 429 790L411 777Q394 765 360 740Z" glyph-name="Ograve" horiz-adv-x="702" unicode="&#210;" /><glyph d="M352 -21Q211 -20 129 74Q47 168 47 341Q46 512 128 612Q210 712 354 712Q501 712 579.5 612.5Q658 513 658 343Q658 159 573.5 69Q489 -21 352 -21ZM352 100Q413 100 453 157Q493 214 493 345Q493 470 456 530.5Q419 591 353 591Q284 591 247.5 528Q211 465 211 344Q210 225 248 162.5Q286 100 352 100ZM427 742Q390 764 373 772L356 781Q413 866 440 910L468 954Q513 929 535 917L557 906Q488 821 457 781ZM257 748Q220 770 203 777L186 785Q241 872 268 915L295 959Q338 934 360 922L383 910Q315 825 286 786Z" glyph-name="Ohungarumlaut" horiz-adv-x="702" unicode="&#336;" /><glyph d="M352 -21Q211 -20 129 74Q47 168 47 341Q46 512 128 612Q210 712 354 712Q501 712 579.5 612.5Q658 513 658 343Q658 159 573.5 69Q489 -21 352 -21ZM352 100Q413 100 453 157Q493 214 493 345Q493 470 456 530.5Q419 591 353 591Q284 591 247.5 528Q211 465 211 344Q210 225 248 162.5Q286 100 352 100ZM208 788V808Q208 829 207 875L272 874Q338 874 496 877L495 856Q494 835 494 789H424Q354 790 208 788Z" glyph-name="Omacron" horiz-adv-x="702" unicode="&#332;" /><glyph d="M200 -114 167 -96Q135 -78 80 -51L98 -25Q116 0 147 49Q96 97 69.5 173Q43 249 43 346Q43 515 124.5 612Q206 709 351 709Q380 709 407 704.5Q434 700 459 693Q469 713 480 738Q491 763 505 794L534 777Q564 761 626 733L611 710Q596 688 561 630Q607 585 631.5 513.5Q656 442 656 346Q656 172 576 74.5Q496 -23 347 -23Q320 -23 295 -19Q270 -15 248 -8Q239 -26 227 -52.5Q215 -79 200 -114ZM347 98Q413 98 451.5 158.5Q490 219 490 350Q490 459 454 524.5Q418 590 349 590Q279 590 243 525.5Q207 461 207 346Q207 225 243.5 161.5Q280 98 347 98Z" glyph-name="Oslash" horiz-adv-x="702" unicode="&#216;" /><glyph d="M352 -21Q211 -20 129 74Q47 168 47 341Q46 512 128 612Q210 712 354 712Q501 712 579.5 612.5Q658 513 658 343Q658 159 573.5 69Q489 -21 352 -21ZM352 100Q413 100 453 157Q493 214 493 345Q493 470 456 530.5Q419 591 353 591Q284 591 247.5 528Q211 465 211 344Q210 225 248 162.5Q286 100 352 100ZM253 758 233 759Q214 761 175 761Q173 827 200.5 869Q228 911 281 911Q328 911 358.5 876.5Q389 842 418 842Q434 842 443 856Q452 870 453 904L471 903Q489 903 529 904Q533 827 507 791Q481 755 432 755Q381 755 349.5 788Q318 821 290 821Q273 821 263 804.5Q253 788 253 758Z" glyph-name="Otilde" horiz-adv-x="702" unicode="&#213;" /><glyph d="M63 6 64 187Q65 368 62 681Q104 687 144 690Q184 693 221 693Q383 693 479.5 635Q576 577 576 452Q576 321 484.5 261.5Q393 202 247 202Q234 202 224 202L215 203L219 7H168Q117 7 63 6ZM212 570V445Q212 395 213 318Q222 317 231 317H249Q335 317 380 350.5Q425 384 425 452Q425 504 386 538.5Q347 573 263 573Q251 573 238 572Z" glyph-name="P" horiz-adv-x="601" unicode="P" /><glyph d="M386 668Q535 668 625.5 571Q716 474 716 314Q716 159 620.5 68Q525 -23 372 -23Q224 -23 132.5 71Q41 165 41 319Q41 473 132.5 570.5Q224 668 386 668ZM376 28Q498 28 579.5 105Q661 182 661 322Q661 444 586 530.5Q511 617 381 617Q242 617 169.5 529Q97 441 97 321Q97 191 171.5 109.5Q246 28 376 28ZM344 134H305Q266 134 232 133V216Q233 300 231 504Q264 508 293.5 510.5Q323 513 349 513Q461 513 512 476.5Q563 440 563 377Q563 311 508 275Q453 239 363 239H342Q342 216 342.5 190.5Q343 165 344 134ZM341 309Q401 307 428 324.5Q455 342 455 375Q455 400 434.5 418Q414 436 361 436Q356 436 348 435H340V408Q340 381 341 309Z" glyph-name="Pcircle" horiz-adv-x="757" unicode="&#9413;" /><glyph d="M408 714Q571 714 663 611Q755 508 755 338Q755 171 654.5 74Q554 -23 394 -23Q237 -23 141 76Q45 175 45 344Q45 510 143 612Q241 714 408 714ZM397 29Q540 29 619 118Q698 207 698 347Q698 497 616.5 580Q535 663 402 663Q259 663 180.5 575Q102 487 102 346Q102 201 179 115Q256 29 397 29ZM358 137H318Q279 137 245 136V241Q246 347 245 551Q279 555 309.5 557.5Q340 560 366 560Q487 560 540 516.5Q593 473 593 406Q593 338 536.5 296Q480 254 379 254Q369 254 362 254L355 255ZM374 327Q431 327 458 348Q485 369 485 406Q485 437 460.5 459Q436 481 376 481Q371 481 362 480H354L353 440Q353 400 354 328L359 327Q365 327 374 327Z" glyph-name="Pcircle.cap" horiz-adv-x="800" /><glyph d="M526 -166Q496 -115 472.5 -75.5Q449 -36 433 -10Q414 -14 392.5 -17Q371 -20 349 -20Q212 -20 128.5 72.5Q45 165 45 337Q45 526 132.5 618Q220 710 350 710Q504 710 580 612.5Q656 515 656 334Q656 235 628 164Q600 93 551 50Q600 -9 630 -44L661 -80Q592 -122 559 -144ZM352 99Q412 99 452 152.5Q492 206 492 341Q492 467 454.5 528.5Q417 590 349 590Q283 590 246 524.5Q209 459 209 340Q209 217 247.5 158Q286 99 352 99Z" glyph-name="Q" horiz-adv-x="701" unicode="Q" /><glyph d="M461 -26 422 51Q384 129 318 255Q293 253 266 252.5Q239 252 210 253L214 13H164Q115 13 63 12V191Q64 370 61 684Q117 696 168.5 701.5Q220 707 265 707Q422 708 507.5 648Q593 588 593 479Q593 404 557.5 356Q522 308 456 283Q475 248 514 175.5Q553 103 614 -5L572 -10Q530 -16 461 -26ZM278 361Q355 361 398 388.5Q441 416 441 473Q441 524 404.5 555.5Q368 587 288 587Q270 587 249.5 585.5Q229 584 207 580Q208 470 209 417L210 365Q228 363 245 362Q262 361 278 361Z" glyph-name="R" horiz-adv-x="631" unicode="R" /><glyph d="M461 -26 422 51Q384 129 318 255Q293 253 266 252.5Q239 252 210 253L214 13H164Q115 13 63 12V191Q64 370 61 684Q117 696 168.5 701.5Q220 707 265 707Q422 708 507.5 648Q593 588 593 479Q593 404 557.5 356Q522 308 456 283Q475 248 514 175.5Q553 103 614 -5L572 -10Q530 -16 461 -26ZM278 361Q355 361 398 388.5Q441 416 441 473Q441 524 404.5 555.5Q368 587 288 587Q270 587 249.5 585.5Q229 584 207 580Q208 470 209 417L210 365Q228 363 245 362Q262 361 278 361ZM302 741Q265 768 249 779L233 790Q297 871 329 914L361 958Q404 927 426 911L449 895Q371 817 336 779Z" glyph-name="Racute" horiz-adv-x="631" unicode="&#340;" /><glyph d="M461 -26 422 51Q384 129 318 255Q293 253 266 252.5Q239 252 210 253L214 13H164Q115 13 63 12V191Q64 370 61 684Q117 696 168.5 701.5Q220 707 265 707Q422 708 507.5 648Q593 588 593 479Q593 404 557.5 356Q522 308 456 283Q475 248 514 175.5Q553 103 614 -5L572 -10Q530 -16 461 -26ZM278 361Q355 361 398 388.5Q441 416 441 473Q441 524 404.5 555.5Q368 587 288 587Q270 587 249.5 585.5Q229 584 207 580Q208 470 209 417L210 365Q228 363 245 362Q262 361 278 361ZM200 930Q230 902 261 871.5Q292 841 311 822Q343 849 371.5 877Q400 905 422 931Q442 907 456.5 893Q471 879 480 872Q441 838 407 803Q373 768 354 744Q320 745 301 745H269Q235 777 199.5 813Q164 849 142 873Q164 894 177.5 908Q191 922 200 930Z" glyph-name="Rcaron" horiz-adv-x="631" unicode="&#344;" /><glyph d="M461 -26 422 51Q384 129 318 255Q293 253 266 252.5Q239 252 210 253L214 13H164Q115 13 63 12V191Q64 370 61 684Q117 696 168.5 701.5Q220 707 265 707Q422 708 507.5 648Q593 588 593 479Q593 404 557.5 356Q522 308 456 283Q475 248 514 175.5Q553 103 614 -5L572 -10Q530 -16 461 -26ZM278 361Q355 361 398 388.5Q441 416 441 473Q441 524 404.5 555.5Q368 587 288 587Q270 587 249.5 585.5Q229 584 207 580Q208 470 209 417L210 365Q228 363 245 362Q262 361 278 361ZM391 -119Q391 -159 359 -200Q327 -241 279 -272Q260 -252 251 -243L243 -235Q264 -219 280 -200.5Q296 -182 304 -170Q281 -166 268 -149.5Q255 -133 255 -113Q255 -88 273 -69.5Q291 -51 323 -51Q354 -51 372.5 -69.5Q391 -88 391 -119Z" glyph-name="Rcommaaccent" horiz-adv-x="631" unicode="&#342;" /><glyph d="M309 -19Q192 -18 116.5 41.5Q41 101 30 226L72 228Q114 230 195 239Q196 170 228 133Q260 96 316 95Q360 94 391.5 114.5Q423 135 423 176Q423 213 389.5 240Q356 267 251 297Q155 324 103.5 373.5Q52 423 52 510Q52 600 123 656.5Q194 713 311 713Q428 713 499 652Q570 591 580 475L534 472Q489 470 425 464Q427 524 398 561Q369 598 314 598Q265 598 238 576Q211 554 211 518Q211 479 244 451Q277 423 369 398Q500 363 543 310Q586 257 586 188Q586 90 510 35Q434 -20 309 -19Z" glyph-name="S" horiz-adv-x="626" unicode="S" /><glyph d="M309 -19Q192 -18 116.5 41.5Q41 101 30 226L72 228Q114 230 195 239Q196 170 228 133Q260 96 316 95Q360 94 391.5 114.5Q423 135 423 176Q423 213 389.5 240Q356 267 251 297Q155 324 103.5 373.5Q52 423 52 510Q52 600 123 656.5Q194 713 311 713Q428 713 499 652Q570 591 580 475L534 472Q489 470 425 464Q427 524 398 561Q369 598 314 598Q265 598 238 576Q211 554 211 518Q211 479 244 451Q277 423 369 398Q500 363 543 310Q586 257 586 188Q586 90 510 35Q434 -20 309 -19ZM300 741Q263 768 247 779L231 790Q295 871 327 914L359 958Q402 927 424 911L447 895Q369 817 334 779Z" glyph-name="Sacute" horiz-adv-x="626" unicode="&#346;" /><glyph d="M309 -19Q192 -18 116.5 41.5Q41 101 30 226L72 228Q114 230 195 239Q196 170 228 133Q260 96 316 95Q360 94 391.5 114.5Q423 135 423 176Q423 213 389.5 240Q356 267 251 297Q155 324 103.5 373.5Q52 423 52 510Q52 600 123 656.5Q194 713 311 713Q428 713 499 652Q570 591 580 475L534 472Q489 470 425 464Q427 524 398 561Q369 598 314 598Q265 598 238 576Q211 554 211 518Q211 479 244 451Q277 423 369 398Q500 363 543 310Q586 257 586 188Q586 90 510 35Q434 -20 309 -19ZM197 930Q227 902 258 871.5Q289 841 308 822Q340 849 368.5 877Q397 905 419 931Q439 907 453.5 893Q468 879 477 872Q438 838 404 803Q370 768 351 744Q317 745 298 745H266Q232 777 196.5 813Q161 849 139 873Q161 894 174.5 908Q188 922 197 930Z" glyph-name="Scaron" horiz-adv-x="626" unicode="&#352;" /><glyph d="M586 188Q586 98 520.5 43.5Q455 -11 345 -18Q345 -24 344.5 -37.5Q344 -51 344 -70Q400 -71 427.5 -93Q455 -115 455 -146Q455 -187 415.5 -212Q376 -237 306 -237Q282 -237 253.5 -230.5Q225 -224 202 -213L206 -196Q211 -179 216 -153Q238 -164 259.5 -169.5Q281 -175 300 -175Q323 -175 338 -167.5Q353 -160 353 -144Q353 -128 331.5 -119Q310 -110 257 -115L262 -89Q268 -63 275 -17Q172 -8 106 51Q40 110 30 226L72 228Q114 230 195 239Q196 170 228 133Q260 96 316 95Q360 94 391.5 114.5Q423 135 423 176Q423 213 389.5 240Q356 267 251 297Q155 324 103.5 373.5Q52 423 52 510Q52 600 123 656.5Q194 713 311 713Q428 713 499 652Q570 591 580 475L534 472Q489 470 425 464Q427 524 398 561Q369 598 314 598Q265 598 238 576Q211 554 211 518Q211 479 244 451Q277 423 369 398Q500 363 543 310Q586 257 586 188Z" glyph-name="Scedilla" horiz-adv-x="626" unicode="&#350;" /><glyph d="M309 -19Q192 -18 116.5 41.5Q41 101 30 226L72 228Q114 230 195 239Q196 170 228 133Q260 96 316 95Q360 94 391.5 114.5Q423 135 423 176Q423 213 389.5 240Q356 267 251 297Q155 324 103.5 373.5Q52 423 52 510Q52 600 123 656.5Q194 713 311 713Q428 713 499 652Q570 591 580 475L534 472Q489 470 425 464Q427 524 398 561Q369 598 314 598Q265 598 238 576Q211 554 211 518Q211 479 244 451Q277 423 369 398Q500 363 543 310Q586 257 586 188Q586 90 510 35Q434 -20 309 -19ZM198 737 184 751Q170 766 140 793L176 830Q212 867 266 923L284 922Q303 922 352 924L384 889Q417 855 477 798L463 784Q449 771 419 739L388 769Q358 800 307 846L277 818Q248 790 198 737Z" glyph-name="Scircumflex" horiz-adv-x="626" unicode="&#348;" /><glyph d="M309 -19Q192 -18 116.5 41.5Q41 101 30 226L72 228Q114 230 195 239Q196 170 228 133Q260 96 316 95Q360 94 391.5 114.5Q423 135 423 176Q423 213 389.5 240Q356 267 251 297Q155 324 103.5 373.5Q52 423 52 510Q52 600 123 656.5Q194 713 311 713Q428 713 499 652Q570 591 580 475L534 472Q489 470 425 464Q427 524 398 561Q369 598 314 598Q265 598 238 576Q211 554 211 518Q211 479 244 451Q277 423 369 398Q500 363 543 310Q586 257 586 188Q586 90 510 35Q434 -20 309 -19ZM388 -119Q388 -159 356 -200Q324 -241 276 -272Q257 -252 248 -243L240 -235Q261 -219 277 -200.5Q293 -182 301 -170Q278 -166 265 -149.5Q252 -133 252 -113Q252 -88 270 -69.5Q288 -51 320 -51Q351 -51 369.5 -69.5Q388 -88 388 -119Z" glyph-name="Scommaaccent" horiz-adv-x="626" unicode="&#536;" /><glyph d="M27 562V599Q27 636 26 696H197Q369 697 541 699L540 658Q539 617 540 563H361Q361 488 361.5 352.5Q362 217 365 -6H320Q275 -6 210 -7V149Q210 305 208 563Z" glyph-name="T" horiz-adv-x="567" unicode="T" /><glyph d="M27 562V599Q27 636 26 696H197Q369 697 541 699L540 658Q539 617 540 563H361Q361 488 361.5 352.5Q362 217 365 -6H320Q275 -6 210 -7V149Q210 305 208 563ZM173 930Q203 902 234 871.5Q265 841 284 822Q316 849 344.5 877Q373 905 395 931Q415 907 429.5 893Q444 879 453 872Q414 838 380 803Q346 768 327 744Q293 745 274 745H242Q208 777 172.5 813Q137 849 115 873Q137 894 150.5 908Q164 922 173 930Z" glyph-name="Tcaron" horiz-adv-x="567" unicode="&#356;" /><glyph d="M27 562V599Q27 636 26 696H197Q369 697 541 699L540 658Q539 617 540 563H361Q361 488 361.5 352.5Q362 217 365 -6H320Q275 -6 210 -7V149Q210 305 208 563ZM363 -119Q363 -159 331 -200Q299 -241 251 -272Q232 -252 223 -243L215 -235Q236 -219 252 -200.5Q268 -182 276 -170Q253 -166 240 -149.5Q227 -133 227 -113Q227 -88 245 -69.5Q263 -51 295 -51Q326 -51 344.5 -69.5Q363 -88 363 -119Z" glyph-name="Tcommaaccent" horiz-adv-x="567" unicode="&#354;" /><glyph d="M61 1 63 193Q65 386 62 699L104 697Q146 696 212 696L211 664Q211 633 211 584Q225 585 238.5 585.5Q252 586 265 586Q425 586 501.5 518Q578 450 578 353Q578 234 491 172.5Q404 111 258 111H237Q226 111 215 112L218 2L174 3Q130 4 61 1ZM211 472Q211 415 211.5 353Q212 291 213 218Q223 217 232.5 216.5Q242 216 251 216Q333 216 380 250.5Q427 285 427 350Q427 407 384 440.5Q341 474 252 474Q242 474 232 473.5Q222 473 211 472Z" glyph-name="Thorn" horiz-adv-x="607" unicode="&#222;" /><glyph d="M330 -14Q185 -14 120 70.5Q55 155 55 333Q55 443 54 558V673L94 670Q135 667 210 666L209 556Q208 447 208 372Q208 228 237 172.5Q266 117 326 117Q385 117 412.5 167.5Q440 218 440 356Q440 457 437 580L434 703L476 702Q519 701 596 705L595 579Q595 453 595 341Q595 159 529 72.5Q463 -14 330 -14Z" glyph-name="U" horiz-adv-x="650" unicode="U" /><glyph d="M330 -14Q185 -14 120 70.5Q55 155 55 333Q55 443 54 558V673L94 670Q135 667 210 666L209 556Q208 447 208 372Q208 228 237 172.5Q266 117 326 117Q385 117 412.5 167.5Q440 218 440 356Q440 457 437 580L434 703L476 702Q519 701 596 705L595 579Q595 453 595 341Q595 159 529 72.5Q463 -14 330 -14ZM316 741Q279 768 263 779L247 790Q311 871 343 914L375 958Q418 927 440 911L463 895Q385 817 350 779Z" glyph-name="Uacute" horiz-adv-x="650" unicode="&#218;" /><glyph d="M330 -14Q185 -14 120 70.5Q55 155 55 333Q55 443 54 558V673L94 670Q135 667 210 666L209 556Q208 447 208 372Q208 228 237 172.5Q266 117 326 117Q385 117 412.5 167.5Q440 218 440 356Q440 457 437 580L434 703L476 702Q519 701 596 705L595 579Q595 453 595 341Q595 159 529 72.5Q463 -14 330 -14ZM325 754Q246 754 204 793.5Q162 833 164 899H189Q215 899 258 903Q257 866 275 847Q293 828 326 828Q356 828 374 849Q392 870 389 913H412Q436 913 484 914Q489 834 444.5 794Q400 754 325 754Z" glyph-name="Ubreve" horiz-adv-x="650" unicode="&#364;" /><glyph d="M330 -14Q185 -14 120 70.5Q55 155 55 333Q55 443 54 558V673L94 670Q135 667 210 666L209 556Q208 447 208 372Q208 228 237 172.5Q266 117 326 117Q385 117 412.5 167.5Q440 218 440 356Q440 457 437 580L434 703L476 702Q519 701 596 705L595 579Q595 453 595 341Q595 159 529 72.5Q463 -14 330 -14ZM215 737 201 751Q187 766 157 793L193 830Q229 867 283 923L301 922Q320 922 369 924L401 889Q434 855 494 798L480 784Q466 771 436 739L405 769Q375 800 324 846L294 818Q265 790 215 737Z" glyph-name="Ucircumflex" horiz-adv-x="650" unicode="&#219;" /><glyph d="M330 -14Q185 -14 120 70.5Q55 155 55 333Q55 443 54 558V673L94 670Q135 667 210 666L209 556Q208 447 208 372Q208 228 237 172.5Q266 117 326 117Q385 117 412.5 167.5Q440 218 440 356Q440 457 437 580L434 703L476 702Q519 701 596 705L595 579Q595 453 595 341Q595 159 529 72.5Q463 -14 330 -14ZM428 764Q398 764 379 783Q360 802 360 834Q360 860 378.5 878.5Q397 897 430 897Q461 897 478.5 878Q496 859 496 831Q496 799 476.5 781.5Q457 764 428 764ZM224 763Q190 763 172 783Q154 803 154 831Q154 861 175 878.5Q196 896 225 896Q259 896 277.5 876.5Q296 857 296 830Q296 795 274.5 779Q253 763 224 763Z" glyph-name="Udieresis" horiz-adv-x="650" unicode="&#220;" /><glyph d="M330 -14Q185 -14 120 70.5Q55 155 55 333Q55 443 54 558V673L94 670Q135 667 210 666L209 556Q208 447 208 372Q208 228 237 172.5Q266 117 326 117Q385 117 412.5 167.5Q440 218 440 356Q440 457 437 580L434 703L476 702Q519 701 596 705L595 579Q595 453 595 341Q595 159 529 72.5Q463 -14 330 -14ZM334 740 299 777Q265 815 188 893L209 908Q231 924 274 958L306 914Q339 871 403 790L385 777Q368 765 334 740Z" glyph-name="Ugrave" horiz-adv-x="650" unicode="&#217;" /><glyph d="M330 -14Q185 -14 120 70.5Q55 155 55 333Q55 443 54 558V673L94 670Q135 667 210 666L209 556Q208 447 208 372Q208 228 237 172.5Q266 117 326 117Q385 117 412.5 167.5Q440 218 440 356Q440 457 437 580L434 703L476 702Q519 701 596 705L595 579Q595 453 595 341Q595 159 529 72.5Q463 -14 330 -14ZM401 742Q364 764 347 772L330 781Q387 866 414 910L442 954Q487 929 509 917L531 906Q462 821 431 781ZM231 748Q194 770 177 777L160 785Q215 872 242 915L269 959Q312 934 334 922L357 910Q289 825 260 786Z" glyph-name="Uhungarumlaut" horiz-adv-x="650" unicode="&#368;" /><glyph d="M330 -14Q185 -14 120 70.5Q55 155 55 333Q55 443 54 558V673L94 670Q135 667 210 666L209 556Q208 447 208 372Q208 228 237 172.5Q266 117 326 117Q385 117 412.5 167.5Q440 218 440 356Q440 457 437 580L434 703L476 702Q519 701 596 705L595 579Q595 453 595 341Q595 159 529 72.5Q463 -14 330 -14ZM182 788V808Q182 829 181 875L246 874Q312 874 470 877L469 856Q468 835 468 789H398Q328 790 182 788Z" glyph-name="Umacron" horiz-adv-x="650" unicode="&#362;" /><glyph d="M369 -218Q357 -219 345.5 -220Q334 -221 324 -221Q264 -221 226.5 -195Q189 -169 189 -124Q188 -93 208.5 -62.5Q229 -32 272 -10Q159 5 107 89Q55 173 55 333Q55 443 54 558V673L94 670Q135 667 210 666L209 556Q208 447 208 372Q208 228 237 172.5Q266 117 326 117Q385 117 412.5 167.5Q440 218 440 356Q440 457 437 580L434 703L476 702Q519 701 596 705L595 579Q595 453 595 341Q595 163 532 76.5Q469 -10 342 -14Q310 -32 295 -54.5Q280 -77 280 -95Q280 -119 306 -129.5Q332 -140 375 -137L372 -157Q370 -178 369 -218Z" glyph-name="Uogonek" horiz-adv-x="650" unicode="&#370;" /><glyph d="M330 -14Q185 -14 120 70.5Q55 155 55 333Q55 443 54 558V673L94 670Q135 667 210 666L209 556Q208 447 208 372Q208 228 237 172.5Q266 117 326 117Q385 117 412.5 167.5Q440 218 440 356Q440 457 437 580L434 703L476 702Q519 701 596 705L595 579Q595 453 595 341Q595 159 529 72.5Q463 -14 330 -14ZM323 744Q266 744 232.5 775Q199 806 199 855Q199 903 234 933Q269 963 323 963Q387 963 419 930Q451 897 451 855Q451 801 414.5 772.5Q378 744 323 744ZM326 795Q352 795 368.5 811.5Q385 828 385 855Q385 878 370 896.5Q355 915 326 915Q298 915 282 898Q266 881 266 856Q266 832 281.5 813.5Q297 795 326 795Z" glyph-name="Uring" horiz-adv-x="650" unicode="&#366;" /><glyph d="M199 -17Q122 287 71 478L20 669Q92 669 136 670L181 671Q220 483 259 320Q298 157 314 91Q377 362 416 532L455 702Q527 700 568 700H609Q528 380 477 179L426 -21L356 -20Q286 -19 199 -17Z" glyph-name="V" horiz-adv-x="629" unicode="V" /><glyph d="M567 -14Q526 214 498 355.5Q470 497 457 561Q398 301 367 154L337 7Q219 11 169 13L119 15Q81 325 54 508.5Q27 692 27 695Q87 696 130 697L173 698Q193 502 211 349Q229 196 239 119Q310 420 337 544L364 669Q462 668 506 667H550Q598 439 629.5 295.5Q661 152 675 91Q721 466 735 590L749 715Q833 712 862 712H892Q831 302 811 148L791 -6Q688 -10 627 -12Z" glyph-name="W" horiz-adv-x="915" unicode="W" /><glyph d="M199 5Q103 8 62 8L21 9Q98 142 143.5 225.5Q189 309 207 343Q188 382 145 469Q102 556 36 684Q93 685 136.5 687Q180 689 206 690L235 622Q264 555 323 425Q392 571 423 643L454 715Q547 711 585 710H623Q551 572 505.5 482Q460 392 439 349Q535 163 584 75L634 -12Q531 -15 494 -17L458 -19Q412 81 377.5 154Q343 227 323 267Q265 152 232 78Z" glyph-name="X" horiz-adv-x="655" unicode="X" /><glyph d="M230 -11Q229 5 229 67Q229 129 225 202L176 313Q127 425 9 682L47 683Q85 685 177 689L205 610Q234 532 304 357L340 441Q376 526 445 706L484 705Q524 704 610 703L549 574Q488 445 380 203V147Q380 92 383 -10H347Q311 -10 230 -11Z" glyph-name="Y" horiz-adv-x="635" unicode="Y" /><glyph d="M230 -11Q229 5 229 67Q229 129 225 202L176 313Q127 425 9 682L47 683Q85 685 177 689L205 610Q234 532 304 357L340 441Q376 526 445 706L484 705Q524 704 610 703L549 574Q488 445 380 203V147Q380 92 383 -10H347Q311 -10 230 -11ZM301 741Q264 768 248 779L232 790Q296 871 328 914L360 958Q403 927 425 911L448 895Q370 817 335 779Z" glyph-name="Yacute" horiz-adv-x="635" unicode="&#221;" /><glyph d="M230 -11Q229 5 229 67Q229 129 225 202L176 313Q127 425 9 682L47 683Q85 685 177 689L205 610Q234 532 304 357L340 441Q376 526 445 706L484 705Q524 704 610 703L549 574Q488 445 380 203V147Q380 92 383 -10H347Q311 -10 230 -11ZM412 764Q382 764 363 783Q344 802 344 834Q344 860 362.5 878.5Q381 897 414 897Q445 897 462.5 878Q480 859 480 831Q480 799 460.5 781.5Q441 764 412 764ZM208 763Q174 763 156 783Q138 803 138 831Q138 861 159 878.5Q180 896 209 896Q243 896 261.5 876.5Q280 857 280 830Q280 795 258.5 779Q237 763 208 763Z" glyph-name="Ydieresis" horiz-adv-x="635" unicode="&#376;" /><glyph d="M523 -3Q329 1 186 2L43 3Q44 62 44 94V126Q154 283 230.5 393Q307 503 349 563Q209 562 129 559L50 557Q50 629 49 661V694Q272 695 396 697L520 700Q521 640 521 604L522 568L217 134Q332 132 428 132H525Q524 56 523 26Z" glyph-name="Z" horiz-adv-x="569" unicode="Z" /><glyph d="M523 -3Q329 1 186 2L43 3Q44 62 44 94V126Q154 283 230.5 393Q307 503 349 563Q209 562 129 559L50 557Q50 629 49 661V694Q272 695 396 697L520 700Q521 640 521 604L522 568L217 134Q332 132 428 132H525Q524 56 523 26ZM276 741Q239 768 223 779L207 790Q271 871 303 914L335 958Q378 927 400 911L423 895Q345 817 310 779Z" glyph-name="Zacute" horiz-adv-x="569" unicode="&#377;" /><glyph d="M523 -3Q329 1 186 2L43 3Q44 62 44 94V126Q154 283 230.5 393Q307 503 349 563Q209 562 129 559L50 557Q50 629 49 661V694Q272 695 396 697L520 700Q521 640 521 604L522 568L217 134Q332 132 428 132H525Q524 56 523 26ZM174 930Q204 902 235 871.5Q266 841 285 822Q317 849 345.5 877Q374 905 396 931Q416 907 430.5 893Q445 879 454 872Q415 838 381 803Q347 768 328 744Q294 745 275 745H243Q209 777 173.5 813Q138 849 116 873Q138 894 151.5 908Q165 922 174 930Z" glyph-name="Zcaron" horiz-adv-x="569" unicode="&#381;" /><glyph d="M523 -3Q329 1 186 2L43 3Q44 62 44 94V126Q154 283 230.5 393Q307 503 349 563Q209 562 129 559L50 557Q50 629 49 661V694Q272 695 396 697L520 700Q521 640 521 604L522 568L217 134Q332 132 428 132H525Q524 56 523 26ZM285 759Q242 759 221 783.5Q200 808 200 840Q200 871 222 894Q244 917 285 917Q328 917 349 891.5Q370 866 370 838Q370 800 346 779.5Q322 759 285 759Z" glyph-name="Zdotaccent" horiz-adv-x="569" unicode="&#379;" /><glyph d="M211 -17Q136 -17 85.5 21.5Q35 60 35 130Q35 218 114.5 264Q194 310 355 319V325Q353 375 332.5 399Q312 423 275 423Q241 423 218.5 403Q196 383 186 340L147 349Q108 359 53 368Q80 443 137 481Q194 519 281 519Q393 519 447.5 463Q502 407 504 300Q508 179 506 82L505 -15H472Q439 -16 382 -17L383 11Q385 39 386 85Q364 36 316.5 9.5Q269 -17 211 -17ZM256 79Q299 79 330.5 111.5Q362 144 362 221V242Q268 237 225.5 212.5Q183 188 183 148Q183 116 202 98Q221 80 256 79Z" glyph-name="a" horiz-adv-x="557" unicode="a" /><glyph d="M211 -17Q136 -17 85.5 21.5Q35 60 35 130Q35 218 114.5 264Q194 310 355 319V325Q353 375 332.5 399Q312 423 275 423Q241 423 218.5 403Q196 383 186 340L147 349Q108 359 53 368Q80 443 137 481Q194 519 281 519Q393 519 447.5 463Q502 407 504 300Q508 179 506 82L505 -15H472Q439 -16 382 -17L383 11Q385 39 386 85Q364 36 316.5 9.5Q269 -17 211 -17ZM256 79Q299 79 330.5 111.5Q362 144 362 221V242Q268 237 225.5 212.5Q183 188 183 148Q183 116 202 98Q221 80 256 79ZM273 546Q236 573 220 584L204 595Q268 676 300 719L332 763Q375 732 397 716L420 700Q342 622 307 584Z" glyph-name="aacute" horiz-adv-x="557" unicode="&#225;" /><glyph d="M211 -17Q136 -17 85.5 21.5Q35 60 35 130Q35 218 114.5 264Q194 310 355 319V325Q353 375 332.5 399Q312 423 275 423Q241 423 218.5 403Q196 383 186 340L147 349Q108 359 53 368Q80 443 137 481Q194 519 281 519Q393 519 447.5 463Q502 407 504 300Q508 179 506 82L505 -15H472Q439 -16 382 -17L383 11Q385 39 386 85Q364 36 316.5 9.5Q269 -17 211 -17ZM256 79Q299 79 330.5 111.5Q362 144 362 221V242Q268 237 225.5 212.5Q183 188 183 148Q183 116 202 98Q221 80 256 79ZM283 559Q204 559 162 598.5Q120 638 122 704H147Q173 704 216 708Q215 671 233 652Q251 633 284 633Q314 633 332 654Q350 675 347 718H370Q394 718 442 719Q447 639 402.5 599Q358 559 283 559Z" glyph-name="abreve" horiz-adv-x="557" unicode="&#259;" /><glyph d="M211 -17Q136 -17 85.5 21.5Q35 60 35 130Q35 218 114.5 264Q194 310 355 319V325Q353 375 332.5 399Q312 423 275 423Q241 423 218.5 403Q196 383 186 340L147 349Q108 359 53 368Q80 443 137 481Q194 519 281 519Q393 519 447.5 463Q502 407 504 300Q508 179 506 82L505 -15H472Q439 -16 382 -17L383 11Q385 39 386 85Q364 36 316.5 9.5Q269 -17 211 -17ZM256 79Q299 79 330.5 111.5Q362 144 362 221V242Q268 237 225.5 212.5Q183 188 183 148Q183 116 202 98Q221 80 256 79ZM172 542 158 556Q144 571 114 598L150 635Q186 672 240 728L258 727Q277 727 326 729L358 694Q391 660 451 603L437 589Q423 576 393 544L362 574Q332 605 281 651L251 623Q222 595 172 542Z" glyph-name="acircumflex" horiz-adv-x="557" unicode="&#226;" /><glyph d="M302 546Q265 573 249 584L233 595Q297 676 329 719L361 763Q404 732 426 716L449 700Q371 622 336 584Z" glyph-name="acute" horiz-adv-x="596" unicode="&#180;" /><glyph d="M211 -17Q136 -17 85.5 21.5Q35 60 35 130Q35 218 114.5 264Q194 310 355 319V325Q353 375 332.5 399Q312 423 275 423Q241 423 218.5 403Q196 383 186 340L147 349Q108 359 53 368Q80 443 137 481Q194 519 281 519Q393 519 447.5 463Q502 407 504 300Q508 179 506 82L505 -15H472Q439 -16 382 -17L383 11Q385 39 386 85Q364 36 316.5 9.5Q269 -17 211 -17ZM256 79Q299 79 330.5 111.5Q362 144 362 221V242Q268 237 225.5 212.5Q183 188 183 148Q183 116 202 98Q221 80 256 79ZM385 569Q355 569 336 588Q317 607 317 639Q317 665 335.5 683.5Q354 702 387 702Q418 702 435.5 683Q453 664 453 636Q453 604 433.5 586.5Q414 569 385 569ZM181 568Q147 568 129 588Q111 608 111 636Q111 666 132 683.5Q153 701 182 701Q216 701 234.5 681.5Q253 662 253 635Q253 600 231.5 584Q210 568 181 568Z" glyph-name="adieresis" horiz-adv-x="557" unicode="&#228;" /><glyph d="M619 -21Q547 -21 497 8Q447 37 422 91Q395 40 341.5 11Q288 -18 227 -18Q137 -18 86 22Q35 62 35 132Q35 209 113 255Q191 301 356 303V315Q354 364 335 393Q316 422 275 422Q238 422 217 400.5Q196 379 185 341L153 349Q121 358 55 369Q77 435 131.5 476.5Q186 518 274 518Q334 518 377.5 494Q421 470 445 428Q471 470 517.5 494Q564 518 628 518Q750 518 804 428Q858 338 841 225H765Q690 225 508 221Q513 154 541.5 118.5Q570 83 615 83Q648 83 675 102Q702 121 719 167L754 155Q790 143 850 127Q816 52 750.5 15.5Q685 -21 619 -21ZM257 78Q301 78 331.5 111Q362 144 362 214V224Q259 223 221 200Q183 177 183 139Q183 113 201.5 95.5Q220 78 257 78ZM613 429Q570 429 543.5 395Q517 361 510 301L702 306Q701 358 680 393.5Q659 429 613 429Z" glyph-name="ae" horiz-adv-x="891" unicode="&#230;" /><glyph d="M211 -17Q136 -17 85.5 21.5Q35 60 35 130Q35 218 114.5 264Q194 310 355 319V325Q353 375 332.5 399Q312 423 275 423Q241 423 218.5 403Q196 383 186 340L147 349Q108 359 53 368Q80 443 137 481Q194 519 281 519Q393 519 447.5 463Q502 407 504 300Q508 179 506 82L505 -15H472Q439 -16 382 -17L383 11Q385 39 386 85Q364 36 316.5 9.5Q269 -17 211 -17ZM256 79Q299 79 330.5 111.5Q362 144 362 221V242Q268 237 225.5 212.5Q183 188 183 148Q183 116 202 98Q221 80 256 79ZM291 545 256 582Q222 620 145 698L166 713Q188 729 231 763L263 719Q296 676 360 595L342 582Q325 570 291 545Z" glyph-name="agrave" horiz-adv-x="557" unicode="&#224;" /><glyph d="M211 -17Q136 -17 85.5 21.5Q35 60 35 130Q35 218 114.5 264Q194 310 355 319V325Q353 375 332.5 399Q312 423 275 423Q241 423 218.5 403Q196 383 186 340L147 349Q108 359 53 368Q80 443 137 481Q194 519 281 519Q393 519 447.5 463Q502 407 504 300Q508 179 506 82L505 -15H472Q439 -16 382 -17L383 11Q385 39 386 85Q364 36 316.5 9.5Q269 -17 211 -17ZM256 79Q299 79 330.5 111.5Q362 144 362 221V242Q268 237 225.5 212.5Q183 188 183 148Q183 116 202 98Q221 80 256 79ZM139 593V613Q139 634 138 680L203 679Q269 679 427 682L426 661Q425 640 425 594H355Q285 595 139 593Z" glyph-name="amacron" horiz-adv-x="557" unicode="&#257;" /><glyph d="M291 -34Q180 -34 106 19.5Q32 73 32 167Q32 241 73 282.5Q114 324 169 352Q132 395 111.5 438.5Q91 482 91 525Q91 617 155 667.5Q219 718 321 718Q412 718 470 669Q528 620 528 545Q528 459 473.5 413.5Q419 368 355 336Q386 311 422.5 285Q459 259 501 232Q511 259 518.5 290.5Q526 322 530 358Q584 342 619 333L654 325Q647 279 636 239Q625 199 610 165Q638 149 667 132Q696 115 727 98L710 74Q693 50 661 -1Q632 15 603 32.5Q574 50 546 67Q499 16 434.5 -9Q370 -34 291 -34ZM246 276Q220 257 204 234Q188 211 188 180Q188 131 223 102Q258 73 311 73Q346 73 379.5 88Q413 103 441 133Q387 168 337 204Q287 240 246 276ZM398 535Q398 568 377 592Q356 616 316 616Q279 616 254.5 591Q230 566 230 523Q230 494 244 464Q258 434 284 404Q331 426 364.5 456Q398 486 398 535Z" glyph-name="ampersand" horiz-adv-x="733" unicode="&amp;" /><glyph d="M458 -224Q446 -225 434.5 -226Q423 -227 413 -227Q353 -227 315.5 -201Q278 -175 278 -130Q277 -96 303 -62Q329 -28 383 -6Q384 4 384.5 27.5Q385 51 386 85Q364 36 316.5 9.5Q269 -17 211 -17Q136 -17 85.5 21.5Q35 60 35 130Q35 218 114.5 264Q194 310 355 319V325Q353 375 332.5 399Q312 423 275 423Q241 423 218.5 403Q196 383 186 340L147 349Q108 359 53 368Q80 443 137 481Q194 519 281 519Q393 519 447.5 463Q502 407 504 300Q508 179 506 82L505 -15H440Q403 -34 386 -58Q369 -82 369 -101Q369 -125 395 -135.5Q421 -146 464 -143L461 -163Q459 -184 458 -224ZM256 79Q299 79 330.5 111.5Q362 144 362 221V242Q268 237 225.5 212.5Q183 188 183 148Q183 116 202 98Q221 80 256 79Z" glyph-name="aogonek" horiz-adv-x="557" unicode="&#261;" /><glyph d="M211 -17Q136 -17 85.5 21.5Q35 60 35 130Q35 218 114.5 264Q194 310 355 319V325Q353 375 332.5 399Q312 423 275 423Q241 423 218.5 403Q196 383 186 340L147 349Q108 359 53 368Q80 443 137 481Q194 519 281 519Q393 519 447.5 463Q502 407 504 300Q508 179 506 82L505 -15H472Q439 -16 382 -17L383 11Q385 39 386 85Q364 36 316.5 9.5Q269 -17 211 -17ZM256 79Q299 79 330.5 111.5Q362 144 362 221V242Q268 237 225.5 212.5Q183 188 183 148Q183 116 202 98Q221 80 256 79ZM280 549Q223 549 189.5 580Q156 611 156 660Q156 708 191 738Q226 768 280 768Q344 768 376 735Q408 702 408 660Q408 606 371.5 577.5Q335 549 280 549ZM283 600Q309 600 325.5 616.5Q342 633 342 660Q342 683 327 701.5Q312 720 283 720Q255 720 239 703Q223 686 223 661Q223 637 238.5 618.5Q254 600 283 600Z" glyph-name="aring" horiz-adv-x="557" unicode="&#229;" /><glyph d="M485 286 457 288Q429 290 358 289L333 369Q308 449 258 590Q244 550 217 468.5Q190 387 158 281L127 283Q96 286 33 286L74 391Q115 497 185 693L221 692Q257 691 333 692L370 587Q408 482 485 286Z" glyph-name="asciicircum" horiz-adv-x="518" unicode="^" /><glyph d="M130 510 104 513Q78 516 37 520Q34 613 71 662.5Q108 712 171 712Q234 712 271.5 667Q309 622 346 622Q365 622 378.5 640.5Q392 659 393 710L418 708Q443 706 485 704Q488 606 451.5 559Q415 512 355 512Q292 512 252 556Q212 600 178 600Q156 600 144 580.5Q132 561 130 510Z" glyph-name="asciitilde" horiz-adv-x="516" unicode="~" /><glyph d="M151 325Q109 346 84 357L59 368Q90 416 110 448Q130 480 138 494Q88 501 58 503L28 506Q37 546 41 572L45 599Q86 587 115.5 579.5Q145 572 161 568Q157 626 152 662L147 699Q193 700 226 701L259 703Q254 654 250 620.5Q246 587 245 568Q296 580 330 589L365 598Q371 556 376 529L382 503Q348 499 321 496.5Q294 494 278 493Q309 442 332 406L356 370Q313 354 288 342L263 330L208 458Q185 405 168 365Z" glyph-name="asterisk" horiz-adv-x="410" unicode="*" /><glyph d="M487 -205Q276 -205 159.5 -86Q43 33 43 229Q43 425 177 567.5Q311 710 536 710Q764 710 876.5 586Q989 462 989 310Q989 153 913.5 66Q838 -21 740 -21Q678 -21 640 11Q602 43 595 106Q564 44 515.5 12.5Q467 -19 413 -19Q338 -19 289 35Q240 89 240 193Q240 259 265 332.5Q290 406 341 457Q373 489 411 508Q449 527 496 527Q555 527 592 486.5Q629 446 638 388Q642 407 646 433.5Q650 460 655 496L688 495Q721 494 780 495L759 399Q738 303 716 176Q714 163 712.5 151Q711 139 711 129Q711 92 726 77.5Q741 63 763 63Q814 63 860.5 127.5Q907 192 907 303Q907 460 802.5 548Q698 636 532 636Q338 636 231.5 515.5Q125 395 125 226Q125 63 220.5 -34Q316 -131 491 -131Q542 -131 604 -118.5Q666 -106 728 -81L754 -155Q697 -175 629.5 -190Q562 -205 487 -205ZM457 83Q473 83 488 91Q503 99 517 112Q551 144 571.5 197.5Q592 251 592 302Q592 349 573 384.5Q554 420 519 420Q503 420 487 412Q471 404 457 390Q425 358 404.5 301Q384 244 384 187Q384 138 404.5 110.5Q425 83 457 83Z" glyph-name="at" horiz-adv-x="1032" unicode="@" /><glyph d="M425 570Q474 570 504 536Q534 502 541 454Q544 471 548 493.5Q552 516 556 546L585 544Q614 543 663 544L646 465Q629 386 610 280Q609 270 607.5 259.5Q606 249 606 242Q606 216 617 205.5Q628 195 648 195Q688 195 724 243.5Q760 292 760 385Q760 507 678 578.5Q596 650 454 650Q291 650 207 551Q123 452 123 318Q123 181 204.5 109Q286 37 422 37Q471 37 516.5 46.5Q562 56 615 76L639 5Q586 -14 529 -25.5Q472 -37 419 -37Q242 -37 141 59.5Q40 156 40 322Q40 484 152 602.5Q264 721 456 721Q650 721 746.5 617Q843 513 843 390Q843 257 776.5 188Q710 119 629 119Q578 119 544.5 144Q511 169 506 220Q481 171 441.5 145.5Q402 120 357 120Q292 120 250.5 167.5Q209 215 209 300Q209 357 230.5 413.5Q252 470 292 510Q318 536 352 553Q386 570 425 570ZM393 209Q406 209 419.5 215Q433 221 449 237Q470 258 485.5 298.5Q501 339 501 382Q501 425 486.5 451Q472 477 446 477Q430 477 416.5 470Q403 463 390 450Q364 424 349.5 377.5Q335 331 335 296Q335 256 350.5 232.5Q366 209 393 209Z" glyph-name="at.cap" horiz-adv-x="883" /><glyph d="M211 -17Q136 -17 85.5 21.5Q35 60 35 130Q35 218 114.5 264Q194 310 355 319V325Q353 375 332.5 399Q312 423 275 423Q241 423 218.5 403Q196 383 186 340L147 349Q108 359 53 368Q80 443 137 481Q194 519 281 519Q393 519 447.5 463Q502 407 504 300Q508 179 506 82L505 -15H472Q439 -16 382 -17L383 11Q385 39 386 85Q364 36 316.5 9.5Q269 -17 211 -17ZM256 79Q299 79 330.5 111.5Q362 144 362 221V242Q268 237 225.5 212.5Q183 188 183 148Q183 116 202 98Q221 80 256 79ZM183 563 163 564Q144 566 105 566Q103 632 130.5 674Q158 716 211 716Q258 716 288.5 681.5Q319 647 348 647Q364 647 373 661Q382 675 383 709L401 708Q419 708 459 709Q463 632 437 596Q411 560 362 560Q311 560 279.5 593Q248 626 220 626Q203 626 193 609.5Q183 593 183 563Z" glyph-name="atilde" horiz-adv-x="557" unicode="&#227;" /><glyph d="M57 -17V130Q58 277 55 681L89 680Q124 679 205 680L202 605Q200 531 199 417Q223 464 264 490Q305 516 356 516Q450 516 503 443Q556 370 556 251Q556 123 495 55Q434 -13 338 -13Q283 -13 239 13.5Q195 40 173 94Q174 70 175 41L177 -17L139 -16Q101 -16 57 -17ZM303 78Q349 78 376 122.5Q403 167 403 255Q403 324 379 371.5Q355 419 305 419Q260 419 229 373.5Q198 328 198 249Q198 170 227.5 124Q257 78 303 78Z" glyph-name="b" horiz-adv-x="599" unicode="b" /><glyph d="M432 -116 392 -115Q353 -115 293 -116L232 82Q171 280 20 738L57 737Q95 736 158 738L239 478Q320 218 432 -116Z" glyph-name="backslash" horiz-adv-x="452" unicode="\" /><glyph d="M402 -48 362 -47Q322 -47 263 -48L212 116Q161 280 10 738L48 737Q86 736 149 738L219 512Q290 286 402 -48Z" glyph-name="backslash.cap" horiz-adv-x="412" /><glyph d="M95 -120V152Q96 425 92 740L124 738Q156 737 225 738L224 494Q223 251 225 -118L192 -117Q159 -117 95 -120Z" glyph-name="bar" horiz-adv-x="318" unicode="|" /><glyph d="M94 -52V186Q94 425 91 740L125 738Q159 737 228 738L227 528Q226 318 228 -51L192 -50Q157 -50 94 -52Z" glyph-name="bar.cap" horiz-adv-x="319" /><glyph d="M380 -120Q356 -126 329 -129Q302 -132 280 -132Q199 -132 164.5 -95Q130 -58 130 23L135 156Q135 211 112.5 236Q90 261 21 258L22 297Q23 336 23 388Q88 384 112 401.5Q136 419 136 465Q136 499 131 542.5Q126 586 126 623Q126 693 164 724.5Q202 756 272 756Q295 756 322.5 752.5Q350 749 372 744Q371 685 372 659L374 633Q315 641 295 625.5Q275 610 275 570Q275 542 278.5 507.5Q282 473 282 442Q282 393 258 364Q234 335 185 322Q235 308 256.5 274.5Q278 241 278 188L273 75Q273 21 293.5 4Q314 -13 377 -7Q377 -67 378 -93Z" glyph-name="braceleft" horiz-adv-x="408" unicode="{" /><glyph d="M374 -60Q351 -66 324 -69Q297 -72 275 -72Q198 -72 160.5 -37.5Q123 -3 123 78L129 192Q129 243 106.5 267Q84 291 21 287L22 326Q23 366 23 418Q81 414 105 431Q129 448 129 495Q129 523 124.5 557Q120 591 120 623Q120 691 155.5 723.5Q191 756 264 756Q288 756 316 752.5Q344 749 366 744Q365 685 366 659L368 633Q311 640 289.5 626Q268 612 268 571Q268 548 271.5 518.5Q275 489 275 464Q275 420 254.5 393Q234 366 179 352Q231 337 251.5 306.5Q272 276 272 229L267 130Q267 79 289.5 63Q312 47 371 53Q371 -7 372 -33Z" glyph-name="braceleft.cap" horiz-adv-x="405" /><glyph d="M366 -60Q344 -66 316.5 -69Q289 -72 267 -72Q191 -72 153.5 -37.5Q116 -3 116 78L122 192Q122 243 99.5 267Q77 291 14 287L16 418Q74 414 98 431Q122 448 122 495Q122 523 117.5 557Q113 591 113 623Q113 691 148.5 723.5Q184 756 257 756Q280 756 308 752.5Q336 749 359 744Q358 685 359 659L360 633Q304 640 282.5 626Q261 612 261 571Q261 548 264.5 518.5Q268 489 268 464Q268 420 247 393Q226 366 172 352Q223 337 243.5 306.5Q264 276 264 229L260 130Q260 79 282.5 63Q305 47 364 53Q364 -7 365 -33Z" glyph-name="braceleft.captab" horiz-adv-x="390" /><glyph d="M343 -120Q320 -126 299 -129Q278 -132 256 -132Q175 -132 140 -95Q105 -58 105 23L111 156Q111 207 91 233Q71 259 15 258L17 388Q70 386 90.5 404Q111 422 111 465Q111 499 106 542.5Q101 586 102 623Q102 693 139.5 724.5Q177 756 247 756Q270 756 292 752.5Q314 749 336 744Q335 685 336 659L338 633Q289 640 269.5 625Q250 610 250 570Q250 542 253.5 507.5Q257 473 257 442Q257 393 233.5 364Q210 335 161 322Q210 308 232 274.5Q254 241 254 188L249 75Q249 24 267 6Q285 -12 341 -7Q341 -67 342 -93Z" glyph-name="braceleft.tab" horiz-adv-x="360" /><glyph d="M28 -125 29 -99Q31 -73 31 -15Q91 -22 114.5 -7Q138 8 138 57Q138 88 134 123.5Q130 159 130 193Q130 237 151.5 272Q173 307 227 320Q174 332 150.5 363Q127 394 127 445Q127 479 131 511.5Q135 544 135 572Q135 612 112 625.5Q89 639 34 634L36 661Q38 689 37 745Q57 750 83 753Q109 756 130 756Q212 756 247 722.5Q282 689 282 623Q282 585 277 544Q272 503 272 469Q272 420 297 401.5Q322 383 385 387Q385 337 386 298L387 260Q324 264 298 240Q272 216 272 165Q272 128 276.5 86.5Q281 45 281 6Q281 -68 245 -103Q209 -138 131 -138Q108 -138 80 -135Q52 -132 28 -125Z" glyph-name="braceright" horiz-adv-x="408" unicode="}" /><glyph d="M31 -65 32 -39Q34 -13 34 45Q92 38 116.5 52.5Q141 67 141 114Q141 139 137 170.5Q133 202 133 231Q133 277 155.5 307Q178 337 230 350Q176 361 153 390Q130 419 130 465Q130 493 133.5 521Q137 549 138 572Q138 611 116 625Q94 639 37 634L39 661Q41 689 40 745Q59 749 86 752.5Q113 756 136 756Q218 756 251.5 721.5Q285 687 285 627Q285 594 280 559Q275 524 275 496Q275 449 299 431Q323 413 382 416Q382 367 383 328L384 290Q324 294 299.5 271Q275 248 275 198Q275 167 279.5 132Q284 97 284 64Q284 -8 247.5 -43.5Q211 -79 133 -78Q111 -78 83.5 -74.5Q56 -71 31 -65Z" glyph-name="braceright.cap" horiz-adv-x="405" /><glyph d="M24 -65 25 -39Q27 -13 26 45Q84 38 108.5 52.5Q133 67 133 114Q133 139 129 170.5Q125 202 125 231Q125 277 148 307Q171 337 222 350Q169 361 145.5 390Q122 419 122 465Q122 493 126 521Q130 549 130 572Q130 611 108.5 625Q87 639 30 634L31 661Q33 689 32 745Q52 749 79 752.5Q106 756 129 756Q211 756 244.5 721.5Q278 687 278 627Q278 594 273 559Q268 524 268 496Q268 449 292 431Q316 413 374 416Q374 367 375 328L376 290Q316 294 292 271Q268 248 268 198Q268 167 272.5 132Q277 97 277 64Q277 -8 240 -43.5Q203 -79 125 -78Q103 -78 75.5 -74.5Q48 -71 24 -65Z" glyph-name="braceright.captab" horiz-adv-x="390" /><glyph d="M17 -125 18 -99Q20 -73 19 -15Q70 -22 92 -6.5Q114 9 114 57Q114 88 110 123.5Q106 159 106 193Q106 237 128 272Q150 307 203 320Q151 332 127.5 363Q104 394 104 445Q104 479 107.5 511.5Q111 544 111 572Q111 611 90.5 624.5Q70 638 23 634L24 661Q26 689 25 745Q46 750 65.5 753Q85 756 107 756Q189 756 224 722.5Q259 689 259 623Q259 585 254 544Q249 503 249 469Q249 425 270 405.5Q291 386 343 387Q343 337 344 298L345 260Q292 261 270.5 235.5Q249 210 249 165Q249 128 253.5 86.5Q258 45 258 6Q258 -68 222 -103Q186 -138 107 -138Q85 -138 62.5 -135Q40 -132 17 -125Z" glyph-name="braceright.tab" horiz-adv-x="360" /><glyph d="M325 -125 246 -123Q168 -122 72 -123V91Q72 305 68 746H138Q209 746 320 748V716Q321 684 322 637L291 636Q261 636 222 634L221 413Q220 192 223 -4L254 -5Q285 -6 328 -6L327 -38Q326 -71 325 -125Z" glyph-name="bracketleft" horiz-adv-x="359" unicode="[" /><glyph d="M331 -66 251 -64Q171 -62 75 -63V121Q75 305 71 746H143Q215 746 326 748V716Q327 684 328 637L296 636Q264 636 225 634L224 442Q223 251 226 55L258 54Q291 53 334 53L333 20Q332 -12 331 -66Z" glyph-name="bracketleft.cap" horiz-adv-x="368" /><glyph d="M342 -66 262 -64Q182 -62 86 -63V121Q86 305 82 746H154Q226 746 337 748V716Q338 684 339 637L307 636Q275 636 236 634L235 442Q234 251 237 55L269 54Q302 53 345 53L344 20Q343 -12 342 -66Z" glyph-name="bracketleft.captab" horiz-adv-x="390" /><glyph d="M322 -125 246 -123Q171 -122 75 -123V91Q76 305 71 746H138Q206 746 317 748V716Q318 684 320 637L292 636Q264 636 225 634L224 413Q223 192 226 -4L254 -5Q283 -6 326 -6L324 -38Q323 -71 322 -125Z" glyph-name="bracketleft.tab" horiz-adv-x="360" /><glyph d="M36 -125Q35 -73 33 -40L32 -7Q73 -7 104 -6Q135 -5 139 -5Q141 167 139.5 392.5Q138 618 137 642Q102 643 71.5 643.5Q41 644 37 643Q38 689 38 722V756Q144 755 214 754.5Q284 754 289 754Q285 369 286 151.5Q287 -66 288 -122Q207 -121 124 -123Q41 -125 36 -125Z" glyph-name="bracketright" horiz-adv-x="358" unicode="]" /><glyph d="M39 -66Q38 -13 36 20L35 53Q76 52 108.5 53Q141 54 145 54Q147 226 145.5 422Q144 618 143 642Q108 643 76 643.5Q44 644 40 643Q41 689 41 722V756Q147 755 218.5 754.5Q290 754 295 754Q291 369 292 181Q293 -7 294 -62Q213 -61 128.5 -63Q44 -65 39 -66Z" glyph-name="bracketright.cap" horiz-adv-x="367" /><glyph d="M51 -66Q50 -13 48 20L47 53Q88 52 120.5 53Q153 54 157 54Q159 226 157.5 422Q156 618 155 642Q120 643 88.5 643.5Q57 644 53 643Q54 689 54 722V756Q159 755 230.5 754.5Q302 754 308 754Q304 369 304.5 181Q305 -7 306 -62Q225 -61 140.5 -63Q56 -65 51 -66Z" glyph-name="bracketright.captab" horiz-adv-x="390" /><glyph d="M41 -125Q40 -73 38 -40L37 -7Q78 -7 106 -6Q134 -5 138 -5Q140 167 138.5 392.5Q137 618 136 642Q101 643 73.5 643.5Q46 644 42 643Q43 689 43 722V756Q149 755 216 754.5Q283 754 288 754Q284 369 285 151.5Q286 -66 287 -122Q206 -121 126 -123Q46 -125 41 -125Z" glyph-name="bracketright.tab" horiz-adv-x="360" /><glyph d="M299 559Q220 559 178 598.5Q136 638 138 704H163Q189 704 232 708Q231 671 249 652Q267 633 300 633Q330 633 348 654Q366 675 363 718H386Q410 718 458 719Q463 639 418.5 599Q374 559 299 559Z" glyph-name="breve" horiz-adv-x="596" unicode="&#728;" /><glyph d="M185 190Q121 190 77 232Q33 274 33 349Q33 415 72.5 460.5Q112 506 184 506Q253 506 293.5 459.5Q334 413 334 351Q334 272 290 231Q246 190 185 190Z" glyph-name="bullet" horiz-adv-x="367" unicode="&#8226;" /><glyph d="M292 -18Q170 -18 106.5 54.5Q43 127 43 252Q43 368 107 443Q171 518 288 518Q391 518 447.5 466Q504 414 523 334Q461 329 415 322L370 316Q363 357 344 385Q325 413 287 413Q244 413 218.5 370Q193 327 193 249Q193 173 218.5 132Q244 91 288 91Q321 91 341.5 113.5Q362 136 373 186L410 180Q447 175 525 165Q504 70 441 26Q378 -18 292 -18Z" glyph-name="c" horiz-adv-x="563" unicode="c" /><glyph d="M292 -18Q170 -18 106.5 54.5Q43 127 43 252Q43 368 107 443Q171 518 288 518Q391 518 447.5 466Q504 414 523 334Q461 329 415 322L370 316Q363 357 344 385Q325 413 287 413Q244 413 218.5 370Q193 327 193 249Q193 173 218.5 132Q244 91 288 91Q321 91 341.5 113.5Q362 136 373 186L410 180Q447 175 525 165Q504 70 441 26Q378 -18 292 -18ZM276 546Q239 573 223 584L207 595Q271 676 303 719L335 763Q378 732 400 716L423 700Q345 622 310 584Z" glyph-name="cacute" horiz-adv-x="563" unicode="&#263;" /><glyph d="M194 735Q224 707 255 676.5Q286 646 305 627Q337 654 365.5 682Q394 710 416 736Q436 712 450.5 698Q465 684 474 677Q435 643 401 608Q367 573 348 549Q314 550 295 550H263Q229 582 193.5 618Q158 654 136 678Q158 699 171.5 713Q185 727 194 735Z" glyph-name="caron" horiz-adv-x="596" unicode="&#711;" /><glyph d="M292 -18Q170 -18 106.5 54.5Q43 127 43 252Q43 368 107 443Q171 518 288 518Q391 518 447.5 466Q504 414 523 334Q461 329 415 322L370 316Q363 357 344 385Q325 413 287 413Q244 413 218.5 370Q193 327 193 249Q193 173 218.5 132Q244 91 288 91Q321 91 341.5 113.5Q362 136 373 186L410 180Q447 175 525 165Q504 70 441 26Q378 -18 292 -18ZM174 735Q204 707 235 676.5Q266 646 285 627Q317 654 345.5 682Q374 710 396 736Q416 712 430.5 698Q445 684 454 677Q415 643 381 608Q347 573 328 549Q294 550 275 550H243Q209 582 173.5 618Q138 654 116 678Q138 699 151.5 713Q165 727 174 735Z" glyph-name="ccaron" horiz-adv-x="563" unicode="&#269;" /><glyph d="M525 165Q506 78 451 34Q396 -10 321 -17Q320 -24 320 -35V-62Q376 -63 403.5 -85Q431 -107 431 -138Q431 -179 391.5 -204Q352 -229 282 -229Q258 -229 229.5 -222.5Q201 -216 178 -205L182 -188Q187 -171 192 -145Q214 -156 235.5 -161.5Q257 -167 276 -167Q299 -167 314 -159.5Q329 -152 329 -136Q329 -120 307.5 -111Q286 -102 233 -107L238 -82Q243 -58 250 -15Q148 -4 95.5 67Q43 138 43 252Q43 368 107 443Q171 518 288 518Q391 518 447.5 466Q504 414 523 334Q461 329 415 322L370 316Q363 357 344 385Q325 413 287 413Q244 413 218.5 370Q193 327 193 249Q193 173 218.5 132Q244 91 288 91Q321 91 341.5 113.5Q362 136 373 186L410 180Q447 175 525 165Z" glyph-name="ccedilla" horiz-adv-x="563" unicode="&#231;" /><glyph d="M292 -18Q170 -18 106.5 54.5Q43 127 43 252Q43 368 107 443Q171 518 288 518Q391 518 447.5 466Q504 414 523 334Q461 329 415 322L370 316Q363 357 344 385Q325 413 287 413Q244 413 218.5 370Q193 327 193 249Q193 173 218.5 132Q244 91 288 91Q321 91 341.5 113.5Q362 136 373 186L410 180Q447 175 525 165Q504 70 441 26Q378 -18 292 -18ZM175 542 161 556Q147 571 117 598L153 635Q189 672 243 728L261 727Q280 727 329 729L361 694Q394 660 454 603L440 589Q426 576 396 544L365 574Q335 605 284 651L254 623Q225 595 175 542Z" glyph-name="ccircumflex" horiz-adv-x="563" unicode="&#265;" /><glyph d="M341 -3 340 -19Q339 -36 339 -60Q395 -61 422.5 -83Q450 -105 450 -136Q450 -177 410.5 -202Q371 -227 301 -227Q277 -227 248.5 -220.5Q220 -214 197 -203L201 -186Q206 -169 211 -143Q233 -154 254.5 -159.5Q276 -165 295 -165Q318 -165 333 -157.5Q348 -150 348 -134Q348 -118 326.5 -109Q305 -100 252 -105L258 -78Q264 -52 271 -4Z" glyph-name="cedilla" horiz-adv-x="604" unicode="&#184;" /><glyph d="M238 -62Q240 -26 241.5 0.5Q243 27 243 43Q150 63 96.5 141Q43 219 43 339Q43 457 94 536Q145 615 242 634Q241 678 238 711L236 744Q293 743 337 744L381 745Q379 706 377 678.5Q375 651 374 632Q455 614 503 558.5Q551 503 557 425Q482 420 441 414L401 408Q394 465 371 496.5Q348 528 305 528Q249 528 222.5 476.5Q196 425 196 346Q196 248 226.5 202.5Q257 157 308 157Q347 157 371.5 183.5Q396 210 404 269L443 262Q482 255 560 248Q547 159 498 108Q449 57 374 43Q375 -4 377 -33L379 -62Q316 -61 277 -61Z" glyph-name="cent" horiz-adv-x="598" unicode="&#162;" /><glyph d="M238 -62Q241 -21 242 10Q243 41 244 54Q150 74 96.5 152Q43 230 43 350Q43 469 94 547.5Q145 626 243 645Q242 693 239 729L236 766Q293 765 337 766L381 767L373 644Q454 626 502.5 570Q551 514 557 436Q482 431 441 425L401 419Q394 476 371 507.5Q348 539 305 539Q249 539 222.5 487.5Q196 436 196 357Q196 259 226.5 213.5Q257 168 308 168Q347 168 371.5 194.5Q396 221 404 280L443 273Q482 266 560 259Q547 170 498 119Q449 68 374 54Q375 3 377 -29L379 -62Q316 -61 277 -61Z" glyph-name="cent.cap" horiz-adv-x="598" /><glyph d="M265 -62Q268 -17 269 14Q270 45 270 55Q176 75 123 152.5Q70 230 70 350Q70 469 120.5 547.5Q171 626 269 645Q268 693 265 729L263 766Q320 765 364 766L408 767Q404 723 402.5 692.5Q401 662 400 644Q481 626 529.5 570Q578 514 584 436Q509 431 468 425L428 419Q420 476 397 507.5Q374 539 331 539Q276 539 249.5 487.5Q223 436 223 357Q223 259 253 213.5Q283 168 334 168Q373 168 397.5 194.5Q422 221 431 280L469 273Q508 266 586 259Q573 171 524.5 119.5Q476 68 401 54Q402 3 403 -29L405 -62Q342 -61 303 -61Z" glyph-name="cent.captab" horiz-adv-x="650" /><glyph d="M247 -62Q249 -26 250 1Q251 28 252 44Q158 64 105 141.5Q52 219 52 339Q52 457 102.5 536Q153 615 251 634Q250 678 247 711L245 744Q302 743 346 744L390 745L382 632Q463 615 511.5 559Q560 503 566 425Q491 420 450 414L410 408Q402 465 379 496.5Q356 528 313 528Q258 528 231.5 476.5Q205 425 205 346Q205 248 235 202.5Q265 157 316 157Q355 157 379.5 183.5Q404 210 413 269L451 262Q490 255 568 248Q555 160 506.5 108.5Q458 57 383 43Q384 -4 385 -33L387 -62Q324 -61 285 -61Z" glyph-name="cent.tab" horiz-adv-x="615" /><glyph d="M185 542 171 556Q157 571 127 598L163 635Q199 672 253 728L271 727Q290 727 339 729L371 694Q404 660 464 603L450 589Q436 576 406 544L375 574Q345 605 294 651L264 623Q235 595 185 542Z" glyph-name="circumflex" horiz-adv-x="596" unicode="&#710;" /><glyph d="M144 285Q101 285 75 313Q49 341 49 386Q49 427 75.5 453.5Q102 480 145 480Q189 480 214.5 452.5Q240 425 240 386Q240 335 211 310Q182 285 144 285ZM145 -16Q104 -16 77.5 11Q51 38 51 81Q51 124 77.5 151.5Q104 179 147 179Q193 179 217.5 150Q242 121 242 81Q242 33 215 8.5Q188 -16 145 -16Z" glyph-name="colon" horiz-adv-x="291" unicode=":" /><glyph d="M161 285Q119 285 93 313Q67 341 67 386Q67 427 93.5 453.5Q120 480 162 480Q207 480 232 452.5Q257 425 257 386Q257 335 228.5 310Q200 285 161 285ZM163 -16Q122 -16 95 11Q68 38 68 81Q68 124 95 151.5Q122 179 165 179Q211 179 235 150Q259 121 259 81Q259 33 232.5 8.5Q206 -16 163 -16Z" glyph-name="colon.captab" horiz-adv-x="325" /><glyph d="M152 285Q110 285 84 313Q58 341 58 386Q58 427 84.5 453.5Q111 480 153 480Q198 480 223 452.5Q248 425 248 386Q248 335 219.5 310Q191 285 152 285ZM154 -16Q113 -16 86 11Q59 38 59 81Q59 124 86 151.5Q113 179 156 179Q202 179 226 150Q250 121 250 81Q250 33 223.5 8.5Q197 -16 154 -16Z" glyph-name="colon.tab" horiz-adv-x="307" /><glyph d="M94 -167Q64 -138 47 -124L30 -110Q66 -79 84 -48.5Q102 -18 108 -4Q78 3 60.5 28.5Q43 54 43 85Q43 125 69.5 154Q96 183 139 183Q182 183 211 153Q240 123 240 71Q240 5 198.5 -55.5Q157 -116 94 -167Z" glyph-name="comma" horiz-adv-x="274" unicode="," /><glyph d="M120 -167Q90 -138 73 -124L56 -110Q92 -79 110 -48.5Q128 -18 134 -4Q104 3 86.5 28.5Q69 54 69 85Q69 125 95.5 154Q122 183 165 183Q208 183 237 153Q266 123 266 71Q266 5 224.5 -55.5Q183 -116 120 -167Z" glyph-name="comma.captab" horiz-adv-x="325" /><glyph d="M111 -167Q81 -138 64 -124L47 -110Q83 -79 101 -48.5Q119 -18 125 -4Q95 3 77.5 28.5Q60 54 60 85Q60 125 86.5 154Q113 183 156 183Q199 183 228 153Q257 123 257 71Q257 5 215.5 -55.5Q174 -116 111 -167Z" glyph-name="comma.tab" horiz-adv-x="307" /><glyph d="M369 -109Q369 -149 337 -190Q305 -231 257 -262Q238 -242 229 -233L221 -225Q242 -209 258 -190.5Q274 -172 282 -160Q259 -156 246 -139.5Q233 -123 233 -103Q233 -78 251 -59.5Q269 -41 301 -41Q332 -41 350.5 -59.5Q369 -78 369 -109Z" glyph-name="commaaccent" horiz-adv-x="607" unicode="&#63171;" /><glyph d="M372 -23Q217 -23 129 76Q41 175 41 331Q41 473 135 571.5Q229 670 388 670Q532 670 625.5 573Q719 476 719 325Q719 151 619.5 64Q520 -23 372 -23ZM378 29Q502 29 581.5 106Q661 183 661 323Q661 450 586.5 534Q512 618 385 618Q248 618 173 533.5Q98 449 98 322Q98 191 174 110Q250 29 378 29ZM381 120Q292 120 241 175Q190 230 190 318Q190 402 241 462.5Q292 523 381 523Q459 523 506 482Q553 441 563 376Q510 372 478 367L446 363Q439 399 424 418Q409 437 382 437Q346 437 327 404.5Q308 372 308 319Q308 265 329.5 237.5Q351 210 384 210Q407 210 423.5 228Q440 246 448 287Q499 280 532 276L565 273Q549 198 501 159Q453 120 381 120Z" glyph-name="copyright" horiz-adv-x="760" unicode="&#169;" /><glyph d="M392 -23Q238 -23 141.5 75.5Q45 174 45 353Q45 510 146.5 612Q248 714 408 714Q565 714 660 613.5Q755 513 755 347Q755 174 659.5 75.5Q564 -23 392 -23ZM398 29Q522 29 609.5 103.5Q697 178 697 345Q697 489 621.5 575.5Q546 662 405 662Q262 662 182 573Q102 484 102 344Q102 190 184.5 109.5Q267 29 398 29ZM401 123Q313 123 256 179.5Q199 236 199 340Q199 446 258 505Q317 564 405 564Q492 564 538 520Q584 476 593 410Q541 406 509 401L477 397Q473 434 455 456Q437 478 402 478Q359 478 338 439Q317 400 317 341Q317 278 340.5 245.5Q364 213 404 213Q437 213 454.5 234.5Q472 256 479 299Q530 292 562 288L595 285Q582 195 523 159Q464 123 401 123Z" glyph-name="copyright.cap" horiz-adv-x="800" /><glyph d="M544 -10 502 -9Q460 -8 421 -9L423 20Q425 50 426 101Q404 43 356.5 14.5Q309 -14 255 -14Q160 -14 101.5 55.5Q43 125 43 250Q43 369 98.5 443Q154 517 252 517Q301 517 339.5 492Q378 467 400 427Q399 470 398 536.5Q397 603 394 687H424Q455 687 545 688L544 484Q543 280 544 -10ZM297 81Q342 81 372.5 122Q403 163 403 247Q401 322 374 370.5Q347 419 294 419Q248 419 222.5 372Q197 325 197 250Q197 169 223 125Q249 81 297 81Z" glyph-name="d" horiz-adv-x="600" unicode="d" /><glyph d="M26 491 27 513Q28 535 28 589L55 588Q83 588 137 587V704L160 703Q184 703 241 705L240 668Q240 631 240 586H351L350 562Q350 538 352 488H322Q292 489 240 490Q240 422 240.5 353Q241 284 242 201L216 202Q190 204 134 203V285Q135 368 136 491Z" glyph-name="dagger" horiz-adv-x="378" unicode="&#8224;" /><glyph d="M361 390V337Q361 316 362 301H251L252 202Q223 203 192 202.5Q161 202 147 202V301H37Q38 328 38 352V391Q66 390 93 390H147V516H38V568Q38 590 37 605H147L146 704Q174 703 207 703Q240 703 254 704Q253 689 253 663V605H362Q361 578 361 554V516H252L251 390Z" glyph-name="daggerdbl" horiz-adv-x="399" unicode="&#8225;" /><glyph d="M544 -10 502 -9Q460 -8 421 -9L423 20Q425 50 426 101Q404 43 356.5 14.5Q309 -14 255 -14Q160 -14 101.5 55.5Q43 125 43 250Q43 369 98.5 443Q154 517 252 517Q301 517 339.5 492Q378 467 400 427Q399 470 398 536.5Q397 603 394 687H424Q455 687 545 688L544 484Q543 280 544 -10ZM297 81Q342 81 372.5 122Q403 163 403 247Q401 322 374 370.5Q347 419 294 419Q248 419 222.5 372Q197 325 197 250Q197 169 223 125Q249 81 297 81ZM743 620Q743 580 711 539Q679 498 631 467Q612 487 603 496L595 504Q616 520 632 538.5Q648 557 656 569Q633 573 620 589.5Q607 606 607 626Q607 651 625 669.5Q643 688 675 688Q706 688 724.5 669.5Q743 651 743 620Z" glyph-name="dcaron" horiz-adv-x="600" unicode="&#271;" /><glyph d="M544 -10 502 -9Q460 -8 421 -9L423 20Q425 50 426 101Q404 43 356.5 14.5Q309 -14 255 -14Q160 -14 101.5 55.5Q43 125 43 250Q43 369 98.5 443Q154 517 252 517Q301 517 339.5 492Q378 467 400 427Q400 449 399.5 476.5Q399 504 398 538Q365 539 344 539H324Q324 577 323 601L322 625H358Q377 625 396 626L394 687H424Q455 687 545 688V672Q545 656 544 630Q583 631 608 632L634 633Q631 583 631 557V531L544 534Q543 439 543 298Q543 157 544 -10ZM297 81Q342 81 372.5 122Q403 163 403 247Q401 322 374 370.5Q347 419 294 419Q248 419 222.5 372Q197 325 197 250Q197 169 223 125Q249 81 297 81Z" glyph-name="dcroat" horiz-adv-x="600" unicode="&#273;" /><glyph d="M544 -10 502 -9Q460 -8 421 -9L423 20Q425 50 426 101Q404 43 356.5 14.5Q309 -14 255 -14Q160 -14 101.5 55.5Q43 125 43 250Q43 369 98.5 443Q154 517 252 517Q301 517 339.5 492Q378 467 400 427Q399 470 398 536.5Q397 603 394 687H424Q455 687 545 688L544 484Q543 280 544 -10ZM297 81Q342 81 372.5 122Q403 163 403 247Q401 322 374 370.5Q347 419 294 419Q248 419 222.5 372Q197 325 197 250Q197 169 223 125Q249 81 297 81ZM146 271Q146 338 145 368L144 398Q310 394 382 394L455 395Q451 318 452 294L453 271Q310 272 228 271Z" glyph-name="dcroat#1" horiz-adv-x="600" /><glyph d="M182 410Q121 410 75 449.5Q29 489 29 566Q29 626 68 668.5Q107 711 179 711Q254 711 293 670Q332 629 332 566Q332 497 292.5 453.5Q253 410 182 410ZM182 479Q213 479 232 501Q251 523 251 564Q251 596 233 620.5Q215 645 181 645Q147 645 129 620Q111 595 111 564Q111 529 129.5 504Q148 479 182 479Z" glyph-name="degree" horiz-adv-x="361" unicode="&#176;" /><glyph d="M397 569Q367 569 348 588Q329 607 329 639Q329 665 347.5 683.5Q366 702 399 702Q430 702 447.5 683Q465 664 465 636Q465 604 445.5 586.5Q426 569 397 569ZM193 568Q159 568 141 588Q123 608 123 636Q123 666 144 683.5Q165 701 194 701Q228 701 246.5 681.5Q265 662 265 635Q265 600 243.5 584Q222 568 193 568Z" glyph-name="dieresis" horiz-adv-x="596" unicode="&#168;" /><glyph d="M41 388Q182 385 313.5 386Q445 387 454 387Q453 334 453 301V269Q304 272 177.5 270.5Q51 269 42 269Q42 318 41 353ZM246 59Q210 59 191 79Q172 99 172 131Q172 172 193.5 191.5Q215 211 247 211Q281 211 301 190.5Q321 170 321 131Q321 98 300 78.5Q279 59 246 59ZM246 601Q279 601 299 580Q319 559 319 525Q319 490 298.5 469Q278 448 244 448Q209 448 190 468.5Q171 489 171 525Q171 563 191.5 582Q212 601 246 601Z" glyph-name="divide" horiz-adv-x="495" unicode="&#247;" /><glyph d="M109 388Q250 385 391.5 386Q533 387 542 387Q541 334 541 301V269Q392 272 255 270.5Q118 269 109 269Q110 318 109 353ZM324 59Q288 59 269 79Q250 99 250 131Q250 172 271 191.5Q292 211 325 211Q359 211 379 190.5Q399 170 399 131Q399 98 378 78.5Q357 59 324 59ZM323 601Q357 601 377 580Q397 559 397 525Q397 490 376.5 469Q356 448 322 448Q287 448 268 468.5Q249 489 249 525Q249 563 269 582Q289 601 323 601Z" glyph-name="divide.captab" horiz-adv-x="650" /><glyph d="M91 388Q232 385 373.5 386Q515 387 524 387Q523 334 523 301V269Q374 272 237 270.5Q100 269 91 269Q92 318 91 353ZM306 59Q270 59 251 79Q232 99 232 131Q232 172 253 191.5Q274 211 307 211Q341 211 361 190.5Q381 170 381 131Q381 98 360 78.5Q339 59 306 59ZM305 601Q339 601 359 580Q379 559 379 525Q379 490 358.5 469Q338 448 304 448Q269 448 250 468.5Q231 489 231 525Q231 563 251 582Q271 601 305 601Z" glyph-name="divide.tab" horiz-adv-x="615" /><glyph d="M365 -126Q305 -124 265 -124L226 -125Q229 -84 230 -54.5Q231 -25 232 -12Q145 1 87.5 54Q30 107 29 198L72 203Q115 208 178 218Q179 153 212.5 123Q246 93 297 93Q342 93 370.5 115.5Q399 138 399 170Q399 197 372 221Q345 245 235 273Q146 296 94 341.5Q42 387 42 468Q42 539 91.5 593Q141 647 229 661Q228 709 225 739L223 769Q296 768 332 768L368 769Q365 731 363.5 703.5Q362 676 361 658Q448 641 495.5 585Q543 529 546 448L504 444Q463 441 400 433Q399 487 370 520.5Q341 554 288 554Q243 554 219.5 530.5Q196 507 196 473Q196 437 229.5 414.5Q263 392 355 367Q474 336 513.5 286.5Q553 237 553 177Q553 99 498 50Q443 1 363 -12Q362 -61 363 -93Z" glyph-name="dollar" horiz-adv-x="588" unicode="$" /><glyph d="M373 -122Q313 -120 273 -120L234 -121L240 -13Q151 2 95.5 60.5Q40 119 30 226L72 228Q114 230 195 239Q196 172 225 134Q254 96 311 95Q355 94 384 114.5Q413 135 413 176Q413 208 387 235.5Q361 263 274 288Q155 323 103.5 372.5Q52 422 52 510Q52 586 102 638.5Q152 691 236 707Q235 755 233 784L231 814Q303 813 339 814L376 815Q373 779 371.5 752.5Q370 726 369 708Q459 692 510.5 632Q562 572 570 475L524 472Q479 470 415 464Q417 524 390.5 561Q364 598 309 598Q260 598 235.5 575.5Q211 553 211 518Q211 474 247 446.5Q283 419 378 393Q492 361 534 310Q576 259 576 188Q576 104 521 51Q466 -2 371 -15Q371 -61 372 -91Z" glyph-name="dollar.cap" horiz-adv-x="616" /><glyph d="M390 -122Q330 -120 290 -120L251 -121L257 -13Q168 2 112.5 60.5Q57 119 47 226L89 228Q131 230 212 239Q213 172 242 134Q271 96 328 95Q372 94 401 114.5Q430 135 430 176Q430 208 404 235.5Q378 263 291 288Q172 323 120.5 372.5Q69 422 69 510Q69 586 119 638.5Q169 691 253 707Q252 755 250 784L248 814Q320 813 356 814L393 815Q390 779 388.5 752.5Q387 726 386 708Q476 692 527.5 632Q579 572 587 475L541 472Q496 470 432 464Q434 524 407.5 561Q381 598 326 598Q277 598 252.5 575.5Q228 553 228 518Q228 474 264 446.5Q300 419 395 393Q509 361 551 310Q593 259 593 188Q593 104 538 51Q483 -2 388 -15Q388 -61 389 -91Z" glyph-name="dollar.captab" horiz-adv-x="650" /><glyph d="M379 -126Q319 -124 279 -124L239 -125Q242 -82 243.5 -53Q245 -24 245 -12Q160 1 103.5 54Q47 107 46 198L89 203Q132 208 195 218Q195 153 227.5 123Q260 93 311 93Q356 93 382.5 115.5Q409 138 409 170Q409 195 384.5 219Q360 243 258 270Q157 297 108 343.5Q59 390 59 468Q59 540 107.5 593.5Q156 647 242 660Q241 709 239 739L237 769Q309 768 345 768L382 769Q379 731 377.5 703.5Q376 676 375 658Q461 641 507.5 585Q554 529 557 448L515 444Q474 441 410 433Q409 487 381.5 520.5Q354 554 301 554Q257 554 235 530.5Q213 507 213 473Q213 439 244.5 415Q276 391 354 371Q483 337 523 288.5Q563 240 563 177Q563 100 509.5 51Q456 2 377 -12Q376 -61 377 -93Z" glyph-name="dollar.tab" horiz-adv-x="615" /><glyph d="M297 564Q254 564 233 588.5Q212 613 212 645Q212 676 234 699Q256 722 297 722Q340 722 361 696.5Q382 671 382 643Q382 605 358 584.5Q334 564 297 564Z" glyph-name="dotaccent" horiz-adv-x="596" unicode="&#729;" /><glyph d="M68 1V113Q68 226 65 500H104Q144 501 211 502V353Q212 205 215 2H173Q131 2 68 1Z" glyph-name="dotlessi" horiz-adv-x="277" unicode="&#305;" /><glyph d="M298 -19Q177 -19 110 54.5Q43 128 43 247Q43 357 108 437.5Q173 518 297 518Q434 517 490.5 432Q547 347 529 225L445 224Q362 223 196 219Q201 155 227.5 119Q254 83 303 83Q338 83 365 103.5Q392 124 408 168L441 158Q475 148 541 132Q504 57 441.5 19Q379 -19 298 -19ZM389 308Q388 362 366 395.5Q344 429 298 429Q257 429 231 395Q205 361 198 300Z" glyph-name="e" horiz-adv-x="581" unicode="e" /><glyph d="M298 -19Q177 -19 110 54.5Q43 128 43 247Q43 357 108 437.5Q173 518 297 518Q434 517 490.5 432Q547 347 529 225L445 224Q362 223 196 219Q201 155 227.5 119Q254 83 303 83Q338 83 365 103.5Q392 124 408 168L441 158Q475 148 541 132Q504 57 441.5 19Q379 -19 298 -19ZM389 308Q388 362 366 395.5Q344 429 298 429Q257 429 231 395Q205 361 198 300ZM284 546Q247 573 231 584L215 595Q279 676 311 719L343 763Q386 732 408 716L431 700Q353 622 318 584Z" glyph-name="eacute" horiz-adv-x="581" unicode="&#233;" /><glyph d="M298 -19Q177 -19 110 54.5Q43 128 43 247Q43 357 108 437.5Q173 518 297 518Q434 517 490.5 432Q547 347 529 225L445 224Q362 223 196 219Q201 155 227.5 119Q254 83 303 83Q338 83 365 103.5Q392 124 408 168L441 158Q475 148 541 132Q504 57 441.5 19Q379 -19 298 -19ZM389 308Q388 362 366 395.5Q344 429 298 429Q257 429 231 395Q205 361 198 300ZM182 735Q212 707 243 676.5Q274 646 293 627Q325 654 353.5 682Q382 710 404 736Q424 712 438.5 698Q453 684 462 677Q423 643 389 608Q355 573 336 549Q302 550 283 550H251Q217 582 181.5 618Q146 654 124 678Q146 699 159.5 713Q173 727 182 735Z" glyph-name="ecaron" horiz-adv-x="581" unicode="&#283;" /><glyph d="M298 -19Q177 -19 110 54.5Q43 128 43 247Q43 357 108 437.5Q173 518 297 518Q434 517 490.5 432Q547 347 529 225L445 224Q362 223 196 219Q201 155 227.5 119Q254 83 303 83Q338 83 365 103.5Q392 124 408 168L441 158Q475 148 541 132Q504 57 441.5 19Q379 -19 298 -19ZM389 308Q388 362 366 395.5Q344 429 298 429Q257 429 231 395Q205 361 198 300ZM183 542 169 556Q155 571 125 598L161 635Q197 672 251 728L269 727Q288 727 337 729L369 694Q402 660 462 603L448 589Q434 576 404 544L373 574Q343 605 292 651L262 623Q233 595 183 542Z" glyph-name="ecircumflex" horiz-adv-x="581" unicode="&#234;" /><glyph d="M298 -19Q177 -19 110 54.5Q43 128 43 247Q43 357 108 437.5Q173 518 297 518Q434 517 490.5 432Q547 347 529 225L445 224Q362 223 196 219Q201 155 227.5 119Q254 83 303 83Q338 83 365 103.5Q392 124 408 168L441 158Q475 148 541 132Q504 57 441.5 19Q379 -19 298 -19ZM389 308Q388 362 366 395.5Q344 429 298 429Q257 429 231 395Q205 361 198 300ZM396 569Q366 569 347 588Q328 607 328 639Q328 665 346.5 683.5Q365 702 398 702Q429 702 446.5 683Q464 664 464 636Q464 604 444.5 586.5Q425 569 396 569ZM192 568Q158 568 140 588Q122 608 122 636Q122 666 143 683.5Q164 701 193 701Q227 701 245.5 681.5Q264 662 264 635Q264 600 242.5 584Q221 568 192 568Z" glyph-name="edieresis" horiz-adv-x="581" unicode="&#235;" /><glyph d="M298 -19Q177 -19 110 54.5Q43 128 43 247Q43 357 108 437.5Q173 518 297 518Q434 517 490.5 432Q547 347 529 225L445 224Q362 223 196 219Q201 155 227.5 119Q254 83 303 83Q338 83 365 103.5Q392 124 408 168L441 158Q475 148 541 132Q504 57 441.5 19Q379 -19 298 -19ZM389 308Q388 362 366 395.5Q344 429 298 429Q257 429 231 395Q205 361 198 300ZM293 564Q250 564 229 588.5Q208 613 208 645Q208 676 230 699Q252 722 293 722Q336 722 357 696.5Q378 671 378 643Q378 605 354 584.5Q330 564 293 564Z" glyph-name="edotaccent" horiz-adv-x="581" unicode="&#279;" /><glyph d="M298 -19Q177 -19 110 54.5Q43 128 43 247Q43 357 108 437.5Q173 518 297 518Q434 517 490.5 432Q547 347 529 225L445 224Q362 223 196 219Q201 155 227.5 119Q254 83 303 83Q338 83 365 103.5Q392 124 408 168L441 158Q475 148 541 132Q504 57 441.5 19Q379 -19 298 -19ZM389 308Q388 362 366 395.5Q344 429 298 429Q257 429 231 395Q205 361 198 300ZM302 545 267 582Q233 620 156 698L177 713Q199 729 242 763L274 719Q307 676 371 595L353 582Q336 570 302 545Z" glyph-name="egrave" horiz-adv-x="581" unicode="&#232;" /><glyph d="M325 -24Q178 -24 104.5 29.5Q31 83 31 176Q31 234 68 276Q105 318 171 336Q115 358 83 401Q51 444 51 498Q51 573 117 625Q183 677 319 677Q455 677 522 625Q589 573 589 498Q589 441 556 400.5Q523 360 462 339Q528 319 565.5 276.5Q603 234 604 176Q604 72 520.5 24Q437 -24 325 -24ZM334 377Q377 387 404.5 415.5Q432 444 432 484Q432 524 402 548Q372 572 318 572Q263 572 233.5 548.5Q204 525 204 486Q204 447 237.5 418.5Q271 390 334 377ZM320 84Q372 84 406.5 108.5Q441 133 441 177Q441 223 403 254Q365 285 307 295Q252 283 221.5 252.5Q191 222 191 182Q191 137 225.5 110.5Q260 84 320 84Z" glyph-name="eight" horiz-adv-x="635" unicode="8" /><glyph d="M342 -25Q198 -25 115.5 30.5Q33 86 33 183Q33 245 73 290.5Q113 336 187 353Q125 377 88.5 422.5Q52 468 52 525Q52 606 125.5 659.5Q199 713 336 713Q481 713 551 656.5Q621 600 621 525Q621 465 584 422Q547 379 481 357Q553 335 594 288.5Q635 242 635 184Q635 83 549.5 29Q464 -25 342 -25ZM348 400Q394 411 425.5 439Q457 467 457 509Q456 549 425 577.5Q394 606 334 606Q276 606 244 578.5Q212 551 212 510Q212 470 248 441.5Q284 413 348 400ZM336 85Q390 85 427 113Q464 141 464 188Q464 232 426.5 264.5Q389 297 325 308Q268 298 234.5 266.5Q201 235 201 193Q201 144 238.5 114.5Q276 85 336 85Z" glyph-name="eight.cap" horiz-adv-x="668" /><glyph d="M333 -25Q194 -25 113.5 29.5Q33 84 33 183Q33 246 73.5 291Q114 336 185 353Q124 376 88 422.5Q52 469 52 525Q52 606 122.5 659.5Q193 713 327 713Q467 713 535 657Q603 601 603 525Q603 465 565.5 422Q528 379 465 357Q537 335 577 288Q617 241 617 184Q617 83 534 29Q451 -25 333 -25ZM339 400Q383 410 412.5 438Q442 466 442 509Q441 549 412.5 577.5Q384 606 325 606Q270 606 239.5 579Q209 552 209 510Q209 470 242 441.5Q275 413 339 400ZM327 85Q378 85 413.5 113Q449 141 449 188Q449 232 414.5 264.5Q380 297 316 308Q262 298 230 267Q198 236 198 193Q198 144 234 114.5Q270 85 327 85Z" glyph-name="eight.captab" horiz-adv-x="650" /><glyph d="M222 -20Q130 -20 79.5 15.5Q29 51 29 108Q29 143 54.5 168.5Q80 194 121 203Q81 218 61 244Q41 270 41 299Q41 349 87 381Q133 413 219 413Q309 413 353.5 379.5Q398 346 398 299Q398 268 377.5 242.5Q357 217 317 205Q360 193 383 165Q406 137 406 108Q406 45 353 12.5Q300 -20 222 -20ZM224 230Q255 237 271.5 253Q288 269 288 291Q288 315 269.5 328.5Q251 342 218 342Q184 342 166.5 328Q149 314 149 292Q149 269 169 253Q189 237 224 230ZM219 52Q251 52 272 67.5Q293 83 293 109Q293 133 272.5 150.5Q252 168 215 175Q181 169 161.5 152Q142 135 142 112Q142 84 163 68Q184 52 219 52Z" glyph-name="eight.denominator" horiz-adv-x="435" /><glyph d="M222 292Q130 292 79.5 327.5Q29 363 29 420Q29 455 54.5 480.5Q80 506 121 515Q81 530 61 556Q41 582 41 611Q41 661 87 693Q133 725 219 725Q309 725 353.5 691.5Q398 658 398 611Q398 580 377.5 554.5Q357 529 317 517Q360 505 383 477Q406 449 406 420Q406 357 353 324.5Q300 292 222 292ZM224 542Q255 549 271.5 565Q288 581 288 603Q288 627 269.5 640.5Q251 654 218 654Q184 654 166.5 640Q149 626 149 604Q149 581 169 565Q189 549 224 542ZM219 364Q251 364 272 379.5Q293 395 293 421Q293 445 272.5 462.5Q252 480 215 487Q181 481 161.5 464Q142 447 142 424Q142 396 163 380Q184 364 219 364Z" glyph-name="eight.numerator" horiz-adv-x="435" /><glyph d="M315 -24Q183 -24 108 30.5Q33 85 33 176Q33 233 72.5 275Q112 317 175 335Q118 358 85.5 402.5Q53 447 53 498Q53 570 119.5 623.5Q186 677 309 677Q436 677 501.5 624Q567 571 567 498Q567 446 533 403.5Q499 361 439 339Q509 317 545 272.5Q581 228 582 176Q582 84 503.5 30Q425 -24 315 -24ZM323 377Q360 387 385.5 415Q411 443 411 484Q411 520 386 547Q361 574 308 574Q261 574 233 550Q205 526 205 486Q205 445 236 416.5Q267 388 323 377ZM308 82Q359 82 389.5 108Q420 134 420 177Q420 221 386 253Q352 285 297 295Q249 285 220.5 253.5Q192 222 192 182Q192 136 223.5 109Q255 82 308 82Z" glyph-name="eight.tab" horiz-adv-x="615" /><glyph d="M138 -7Q95 -7 68.5 20.5Q42 48 42 93Q42 133 69 160.5Q96 188 138 188Q179 188 207 160.5Q235 133 235 93Q234 47 207.5 20Q181 -7 138 -7ZM654 -11Q610 -11 583 15Q556 41 556 87Q556 129 583.5 155.5Q611 182 653 182Q696 182 723 154.5Q750 127 750 87Q749 40 722.5 14.5Q696 -11 654 -11ZM395 -28Q353 -28 325.5 -1Q298 26 298 70Q298 113 326 139.5Q354 166 395 166Q438 166 464.5 139Q491 112 491 72Q490 25 464 -1.5Q438 -28 395 -28Z" glyph-name="ellipsis" horiz-adv-x="792" unicode="&#8230;" /><glyph d="M298 -19Q177 -19 110 54.5Q43 128 43 247Q43 357 108 437.5Q173 518 297 518Q434 517 490.5 432Q547 347 529 225L445 224Q362 223 196 219Q201 155 227.5 119Q254 83 303 83Q338 83 365 103.5Q392 124 408 168L441 158Q475 148 541 132Q504 57 441.5 19Q379 -19 298 -19ZM389 308Q388 362 366 395.5Q344 429 298 429Q257 429 231 395Q205 361 198 300ZM150 593V613Q150 634 149 680L214 679Q280 679 438 682L437 661Q436 640 436 594H366Q296 595 150 593Z" glyph-name="emacron" horiz-adv-x="581" unicode="&#275;" /><glyph d="M29 271Q30 290 30 326.5Q30 363 29 397Q77 396 247 396.5Q417 397 537 398Q536 366 535.5 334.5Q535 303 536 271Q478 272 313 272Q148 272 29 271Z" glyph-name="emdash" horiz-adv-x="566" unicode="&#8212;" /><glyph d="M444 272Q326 274 201.5 274Q77 274 29 273Q30 311 30 336Q30 361 29 398Q148 397 267 397.5Q386 398 444 399Q443 362 443 333.5Q443 305 444 272Z" glyph-name="endash" horiz-adv-x="473" unicode="&#8211;" /><glyph d="M348 -224Q336 -225 324.5 -226Q313 -227 303 -227Q243 -227 205.5 -201Q168 -175 168 -130Q167 -99 188 -68.5Q209 -38 252 -16Q152 -3 97.5 68.5Q43 140 43 247Q43 357 108 437.5Q173 518 297 518Q434 517 490.5 432Q547 347 529 225L445 224Q362 223 196 219Q201 155 227.5 119Q254 83 303 83Q338 83 365 103.5Q392 124 408 168L441 158Q475 148 541 132Q507 63 452 25.5Q397 -12 325 -18Q291 -37 275 -60Q259 -83 259 -101Q259 -125 285 -135.5Q311 -146 354 -143L351 -163Q349 -184 348 -224ZM389 308Q388 362 366 395.5Q344 429 298 429Q257 429 231 395Q205 361 198 300Z" glyph-name="eogonek" horiz-adv-x="581" unicode="&#281;" /><glyph d="M437 373Q267 376 157 375H48Q50 435 50 459L51 483Q205 481 320 482L436 483Q435 423 436 398ZM51 176 50 198Q50 220 48 282H161Q274 282 437 284L436 257Q435 230 436 176H326Q217 177 51 176Z" glyph-name="equal" horiz-adv-x="485" unicode="=" /><glyph d="M530 373Q361 376 241 375H121Q123 435 123 459L124 483Q278 481 403 482L529 483Q528 423 529 398ZM124 176 123 198Q123 220 121 282H244Q367 282 530 284L529 257Q528 230 529 176H409Q290 177 124 176Z" glyph-name="equal.captab" horiz-adv-x="650" /><glyph d="M512 373Q343 376 223 375H103Q105 435 105 459L106 483Q260 481 385 482L511 483Q510 423 511 398ZM106 176 105 198Q105 220 103 282H226Q349 282 512 284L511 257Q510 230 511 176H391Q272 177 106 176Z" glyph-name="equal.tab" horiz-adv-x="615" /><glyph d="M296 -20Q176 -20 109.5 55.5Q43 131 43 260Q43 373 101 445.5Q159 518 246 518Q297 518 342.5 482Q388 446 408 397Q397 472 363.5 528Q330 584 260 638L295 671Q330 705 337 715Q356 702 374.5 687.5Q393 673 409 657L456 708L476 682Q496 656 534 613L518 600Q503 588 480 569Q515 512 533.5 440Q552 368 552 284Q552 130 479.5 55Q407 -20 296 -20ZM302 80Q345 80 374 122Q403 164 403 253Q403 306 373.5 360.5Q344 415 295 415Q252 415 223.5 371.5Q195 328 195 250Q195 174 223 127Q251 80 302 80Z" glyph-name="eth" horiz-adv-x="594" unicode="&#240;" /><glyph d="M100 226 95 356Q91 487 79 704L134 703Q190 702 250 703L245 570Q241 437 236 227H196Q157 228 100 226ZM169 -12Q120 -12 92 14.5Q64 41 64 84Q64 123 90 149.5Q116 176 167 176Q216 176 242 148Q268 120 268 81Q268 38 238.5 13Q209 -12 169 -12Z" glyph-name="exclam" horiz-adv-x="332" unicode="!" /><glyph d="M254 -154 198 -152Q142 -151 82 -152L87 -19Q92 113 96 323H136Q176 323 233 325L237 194Q241 64 254 -154ZM164 562Q213 562 240.5 536Q268 510 268 467Q268 428 242.5 401Q217 374 165 374Q116 374 90 402Q64 430 64 470Q64 513 94 537.5Q124 562 164 562Z" glyph-name="exclamdown" horiz-adv-x="332" unicode="&#161;" /><glyph d="M254 -8 198 -6Q142 -5 82 -6L87 126Q92 259 96 469H136Q176 469 233 471L237 340Q241 210 254 -8ZM164 708Q213 708 240.5 682Q268 656 268 613Q268 574 242.5 547Q217 520 165 520Q116 520 90 548Q64 576 64 616Q64 659 94 683.5Q124 708 164 708Z" glyph-name="exclamdown.cap" horiz-adv-x="332" /><glyph d="M390 379H351Q312 380 249 380Q248 250 249 126L251 2H209Q167 2 107 1L105 123Q103 246 103 380H28V406Q28 432 27 495L47 494Q67 493 104 492V503Q105 601 149 652.5Q193 704 292 704Q317 704 345.5 701Q374 698 406 691L403 667Q401 643 399 587Q378 591 361 592.5Q344 594 331 594Q289 594 270.5 575Q252 556 252 509V490Q283 489 317 489H391L390 459Q389 430 390 379Z" glyph-name="f" horiz-adv-x="425" unicode="f" /><glyph d="M661 -8H619Q577 -8 517 -9L515 123Q513 256 513 390H438V416Q438 442 437 505L457 504Q477 503 514 502V513Q515 611 559 662.5Q603 714 702 714Q727 714 755.5 711Q784 708 816 701L813 677Q811 653 809 597Q788 601 771 602.5Q754 604 741 604Q699 604 680.5 585Q662 566 662 519V500Q693 499 727 499H801L800 469Q799 440 800 389H761Q722 390 659 390Q658 260 659 126ZM380 369H346Q312 370 249 370Q248 240 249 126L251 12H209Q167 12 107 11L105 123Q103 236 103 370H28V396Q28 422 27 485L47 484Q67 483 104 482V493Q105 591 149 642.5Q193 694 292 694Q317 694 345.5 691Q374 688 406 681L403 657Q401 633 399 577Q378 581 361 582.5Q344 584 331 584Q289 584 270.5 565Q252 546 252 499V480Q283 479 312 479H381L380 449Q379 420 380 369Z" glyph-name="ff" horiz-adv-x="835" unicode="&#64256;" /><glyph d="M661 -8H619Q577 -8 517 -9L515 123Q513 256 513 390H438V416Q438 442 437 505L457 504Q477 503 514 502V513Q515 611 559 662.5Q603 714 702 714Q727 714 752 710.5Q777 707 806 701L803 677Q801 653 799 597Q782 600 768 602Q754 604 741 604Q699 604 680.5 585Q662 566 662 519V500Q693 499 727 499H801L800 469Q799 440 800 389H761Q722 390 659 390Q658 260 659 126ZM251 12H209Q167 12 107 11L105 123Q103 236 103 370H28V396Q28 422 27 485L47 484Q67 483 104 482V493Q105 591 149 642.5Q193 694 292 694Q317 694 345.5 691Q374 688 406 681L403 657Q401 633 399 577Q378 581 361 582.5Q344 584 331 584Q289 584 270.5 565Q252 546 252 499V480Q283 479 312 479H381L380 449Q379 420 380 369H346Q312 370 249 370Q248 240 249 126ZM898 11V108Q898 206 895 480H934Q974 481 1041 482V348Q1042 215 1045 12H1003Q961 12 898 11ZM970 532Q923 532 895.5 554.5Q868 577 868 617Q868 656 896.5 677.5Q925 699 970 699Q1016 699 1042.5 676Q1069 653 1069 617Q1069 576 1042.5 554Q1016 532 970 532Z" glyph-name="ffi" horiz-adv-x="1107" unicode="&#64259;" /><glyph d="M661 -8H619Q577 -8 517 -9L515 123Q513 256 513 390H438V416Q438 442 437 505L457 504Q477 503 514 502V513Q515 611 559 662.5Q603 714 702 714Q727 714 755.5 711Q784 708 816 701L813 677Q811 653 809 597Q788 601 771 602.5Q754 604 741 604Q699 604 680.5 585Q662 566 662 519V500Q693 499 727 499H801L800 469Q799 440 800 389H761Q722 390 659 390Q658 260 659 126ZM251 12H209Q167 12 107 11L105 123Q103 236 103 370H28V396Q28 422 27 485L47 484Q67 483 104 482V493Q105 591 149 642.5Q193 694 292 694Q317 694 345.5 691Q374 688 406 681L403 657Q401 633 399 577Q378 581 361 582.5Q344 584 331 584Q289 584 270.5 565Q252 546 252 499V480Q283 479 312 479H381L380 449Q379 420 380 369H346Q312 370 249 370Q248 240 249 126ZM1037 15Q969 16 929 16L890 17Q893 383 892 532L891 681Q967 679 1003 679H1039Q1035 273 1036 144Z" glyph-name="ffl" horiz-adv-x="1099" unicode="&#64260;" /><glyph d="M380 379H346Q312 380 249 380Q248 250 249 121L251 -8H209Q167 -8 107 -9L105 118Q103 246 103 380H28V406Q28 432 27 495L47 494Q67 493 104 492V513Q105 611 149 662.5Q193 714 292 714Q317 714 340.5 711Q364 708 396 701L393 677Q391 653 389 597Q368 601 356 602.5Q344 604 331 604Q289 604 270.5 585Q252 566 252 519V490Q283 489 312 489H381L380 459Q379 430 380 379ZM483 11V109Q483 207 480 481H519Q559 482 626 483V349Q627 215 630 12H588Q546 12 483 11ZM555 533Q508 533 480.5 560.5Q453 588 453 628Q453 667 481.5 683.5Q510 700 555 700Q601 700 627.5 677Q654 654 654 618Q654 577 627.5 555Q601 533 555 533Z" glyph-name="fi" horiz-adv-x="692" unicode="&#64257;" /><glyph d="M316 -21Q203 -21 130 28.5Q57 78 38 170Q110 178 155 186L201 195Q210 140 241 115Q272 90 317 90Q365 90 396.5 123.5Q428 157 428 220Q428 275 400.5 310Q373 345 319 345Q281 345 252.5 324Q224 303 207 267L163 270Q119 274 55 278L59 388Q63 499 64 659L204 660Q344 661 550 665L549 636Q548 608 548 547H444Q340 547 204 543Q203 514 202 471.5Q201 429 200 375Q229 408 273.5 426Q318 444 369 444Q479 444 533.5 379.5Q588 315 589 218Q589 105 514 42Q439 -21 316 -21Z" glyph-name="five" horiz-adv-x="615" unicode="5" /><glyph d="M324 -22Q217 -22 136.5 28Q56 78 37 184Q112 192 157 199L202 206Q215 149 248 120.5Q281 92 327 92Q375 92 409.5 126Q444 160 444 234Q444 296 414.5 332Q385 368 330 368Q287 368 257.5 345Q228 322 212 283L165 286Q119 290 51 294L54 409Q58 525 60 694L207 695Q355 696 571 700L570 669Q569 638 569 573H459Q350 573 205 569Q204 538 203 494Q202 450 201 393Q232 430 277.5 450.5Q323 471 381 471Q497 471 554 403Q611 335 612 232Q612 109 532.5 43.5Q453 -22 324 -22Z" glyph-name="five.cap" horiz-adv-x="646" /><glyph d="M326 -22Q222 -22 142 27.5Q62 77 43 184Q118 192 163 199L208 206Q221 149 252 120.5Q283 92 329 92Q375 92 408.5 125.5Q442 159 442 234Q442 297 413.5 332.5Q385 368 332 368Q291 368 262.5 345Q234 322 218 283L171 286Q125 290 57 294L60 409Q64 525 66 694L209 695Q353 696 569 700L568 669Q567 638 567 573H461Q355 573 211 569Q210 538 209 494Q208 450 207 393Q237 430 280.5 450.5Q324 471 383 471Q496 471 552.5 403Q609 335 610 232Q610 107 530.5 42.5Q451 -22 326 -22Z" glyph-name="five.captab" horiz-adv-x="650" /><glyph d="M213 -19Q150 -19 98.5 9.5Q47 38 36 106Q85 109 116 112L147 116Q154 82 171 68Q188 54 216 54Q243 54 263 72Q283 90 283 131Q283 166 266 185Q249 204 218 204Q193 204 176 192.5Q159 181 149 162L117 164Q85 167 42 168L44 235Q47 303 48 402H145Q242 403 370 405L369 384Q369 363 369 324H299Q230 324 146 322Q145 305 144.5 281Q144 257 144 227Q163 247 191.5 258Q220 269 249 269Q319 269 356.5 230Q394 191 395 130Q395 55 341.5 18Q288 -19 213 -19Z" glyph-name="five.denominator" horiz-adv-x="424" /><glyph d="M213 293Q150 293 98.5 321.5Q47 350 36 418Q85 421 116 424L147 428Q154 394 171 380Q188 366 216 366Q243 366 263 384Q283 402 283 443Q283 478 266 497Q249 516 218 516Q193 516 176 504.5Q159 493 149 474L117 476Q85 479 42 480L44 547Q47 615 48 714H145Q242 715 370 717L369 696Q369 675 369 636H299Q230 636 146 634Q145 617 144.5 593Q144 569 144 539Q163 559 191.5 570Q220 581 249 581Q319 581 356.5 542Q394 503 395 442Q395 367 341.5 330Q288 293 213 293Z" glyph-name="five.numerator" horiz-adv-x="424" /><glyph d="M540 547H443Q346 547 211 543Q210 514 209 471.5Q208 429 207 375Q236 407 279.5 425.5Q323 444 369 444Q475 444 527.5 379.5Q580 315 581 218Q581 103 505.5 41Q430 -21 315 -21Q210 -21 137 28.5Q64 78 44 170Q117 178 162 186L208 195Q217 140 245.5 115Q274 90 316 90Q364 90 392 125.5Q420 161 420 220Q420 274 395.5 309.5Q371 345 320 345Q283 345 257 324Q231 303 214 267L170 270Q126 274 62 278L65 388Q69 499 70 659L203 660Q337 661 542 665L541 636Q540 608 540 547Z" glyph-name="five.tab" horiz-adv-x="615" /><glyph d="M251 -8H209Q167 -8 107 -9L105 118Q103 246 103 380H28V406Q28 432 27 495L47 494Q67 493 104 492V513Q105 611 149 662.5Q193 714 292 714Q317 714 340.5 711Q364 708 396 701L393 677Q391 653 389 597Q368 601 356 602.5Q344 604 331 604Q289 604 270.5 585Q252 566 252 519V490Q283 489 317 489H391L390 459Q389 430 390 379H351Q312 380 249 380Q248 250 249 121ZM622 15Q554 16 514 16L475 17Q478 383 477 532L476 681Q552 679 588 679H624Q620 273 621 144Z" glyph-name="fl" horiz-adv-x="684" unicode="&#64258;" /><glyph d="M462 301Q429 302 399 302.5Q369 303 343 303Q329 231 314 155Q299 79 283 18Q258 -81 207.5 -124Q157 -167 79 -167Q60 -167 40 -165Q20 -163 -2 -159L1 -132Q4 -105 6 -48Q16 -49 25.5 -50.5Q35 -52 43 -52Q86 -52 108.5 -29Q131 -6 144 45Q160 105 174 172Q188 239 201 305H118Q120 374 119 394V415L222 412L238 491Q257 585 304 628Q351 671 428 671Q448 671 471.5 668Q495 665 520 660Q512 606 510 577L508 548Q496 551 485 553Q474 555 465 555Q431 555 409.5 534Q388 513 378 471Q374 458 371 442Q368 426 364 410Q411 410 436 410L461 411Q461 349 461 325Z" glyph-name="florin" horiz-adv-x="548" unicode="&#402;" /><glyph d="M348 327Q341 291 333.5 252Q326 213 315 166Q289 63 237.5 19Q186 -25 105 -25Q87 -25 67.5 -23Q48 -21 26 -17L29 10Q32 38 34 98Q44 97 54 95.5Q64 94 73 94Q116 94 140.5 118Q165 142 178 194Q188 234 195 267Q202 300 208 329H125Q128 401 127 418V435Q139 434 178 433Q217 432 226 432Q229 450 233 470.5Q237 491 242 515Q262 610 309.5 654.5Q357 699 439 699Q458 699 480.5 696.5Q503 694 527 689Q519 634 516 603L514 573Q501 577 489 578.5Q477 580 467 580Q433 580 412 558Q391 536 381 495Q379 485 373.5 462.5Q368 440 367 430Q413 430 440 430L467 431Q467 366 467 345L468 324Z" glyph-name="florin.cap" horiz-adv-x="553" /><glyph d="M397 327Q390 291 382.5 252Q375 213 364 166Q338 63 286.5 19Q235 -25 154 -25Q136 -25 116.5 -23Q97 -21 75 -17L78 10Q81 38 83 98Q93 97 103 95.5Q113 94 122 94Q165 94 189.5 118Q214 142 227 194Q237 234 244 267Q251 300 257 329H174Q177 401 176 418V435Q188 434 227 433Q266 432 275 432Q278 450 282 470.5Q286 491 291 515Q311 610 358.5 654.5Q406 699 488 699Q507 699 529.5 696.5Q552 694 576 689Q568 634 565 603L563 573Q550 577 538 578.5Q526 580 516 580Q482 580 461 558Q440 536 430 495Q428 485 422.5 462.5Q417 440 416 430Q462 430 489 430L516 431Q516 366 516 345L517 324Z" glyph-name="florin.captab" horiz-adv-x="650" /><glyph d="M496 301Q463 302 433 302.5Q403 303 377 303Q363 231 348 155Q333 79 317 18Q292 -81 241.5 -124Q191 -167 113 -167Q94 -167 74 -165Q54 -163 32 -159L35 -132Q38 -105 40 -48Q50 -49 59.5 -50.5Q69 -52 77 -52Q120 -52 142.5 -29Q165 -6 178 45Q194 105 208 172Q222 239 235 305H152Q154 374 153 394V415L256 412L272 491Q291 585 338 628Q385 671 462 671Q482 671 505.5 668Q529 665 554 660Q546 606 544 577L542 548Q530 551 519 553Q508 555 499 555Q465 555 443.5 534Q422 513 412 471Q408 458 405 442Q402 426 398 410Q445 410 470 410L495 411Q495 349 495 325Z" glyph-name="florin.tab" horiz-adv-x="615" /><glyph d="M374 126Q302 126 212.5 125Q123 124 24 123L23 151Q23 179 22 246L300 670Q418 666 468 665H518Q517 532 516.5 426Q516 320 516 240H552Q570 240 588 241L587 211Q587 182 587 127H517Q517 67 517 33L518 0Q445 -2 409 -1H373ZM375 239Q376 383 376 467V573Q295 448 240.5 360.5Q186 273 166 239Z" glyph-name="four" horiz-adv-x="612" unicode="4" /><glyph d="M393 -1Q393 33 393.5 67.5Q394 102 395 134Q320 134 225 132.5Q130 131 26 130L25 159Q25 188 24 258Q160 466 238 586L316 706Q440 702 492 701L545 700Q544 560 543.5 449Q543 338 543 254H581Q600 254 619 255L618 223Q618 192 618 135H544Q544 71 544 35L545 0Q467 -2 430 -1ZM395 253Q396 381 396 469V599Q312 471 255 380Q198 289 176 253Z" glyph-name="four.cap" horiz-adv-x="647" /><glyph d="M390 -1Q390 33 390.5 67Q391 101 392 134L35 130L34 159Q33 188 33 258Q171 478 242 592L313 706Q437 702 489 701L541 700Q540 557 539.5 446Q539 335 540 251H578Q597 251 616 252L615 222Q615 192 615 135H540Q541 69 541 34L542 0Q464 -2 427 -1ZM392 250Q393 377 393 466V598Q308 460 255 371Q202 282 183 250Z" glyph-name="four.captab" horiz-adv-x="650" /><glyph d="M250 -6V34Q250 54 251 73Q201 72 144 71.5Q87 71 21 70L20 88Q20 107 19 148Q102 267 149 338L197 409Q271 405 312 405H353Q352 324 352 261V150L394 151V73H352Q352 38 352 16L353 -5Q306 -6 278 -6ZM252 149Q253 227 253 274V341Q202 267 168.5 218Q135 169 122 149Z" glyph-name="four.denominator" horiz-adv-x="420" /><glyph d="M250 306V346Q250 366 251 385Q201 384 144 383.5Q87 383 21 382L20 400Q20 419 19 460Q102 579 149 650L197 721Q271 717 312 717H353Q352 636 352 573V462L394 463V385H352Q352 350 352 328L353 307Q306 306 278 306ZM252 461Q253 539 253 586V653Q202 579 168.5 530Q135 481 122 461Z" glyph-name="four.numerator" horiz-adv-x="420" /><glyph d="M374 -1Q374 32 374.5 63.5Q375 95 376 126Q308 126 222 125Q136 124 38 123L37 151Q36 179 36 246L301 670Q419 666 469 665H519Q518 530 517.5 425Q517 320 518 240H548Q564 240 580 241L579 211Q579 182 579 127H518Q519 64 519 32L520 0Q446 -2 410 -1ZM376 239Q377 361 377 446V571Q299 442 248.5 357Q198 272 179 239Z" glyph-name="four.tab" horiz-adv-x="615" /><glyph d="M71 -19Q34 -13 17 -11L0 -10Q214 317 334 508L455 700Q489 695 509 693L529 692Q283 310 177 145Z" glyph-name="fraction" horiz-adv-x="529" unicode="&#8260;" /><glyph d="M253 -277Q143 -277 80.5 -240Q18 -203 18 -146Q18 -110 45 -78Q72 -46 130 -27Q105 -14 92 6.5Q79 27 79 51Q79 81 101 104.5Q123 128 164 144Q103 166 67.5 213.5Q32 261 33 328Q33 417 101 471Q169 525 269 525Q295 525 318.5 521.5Q342 518 363 512L408 649L441 631Q474 613 530 586L504 556Q478 526 436 474Q471 446 489.5 407Q508 368 508 324Q508 223 436 175Q364 127 276 127Q266 127 251 128L237 129Q223 121 217.5 113Q212 105 212 98Q212 87 229 78.5Q246 70 309 65Q437 55 484.5 15.5Q532 -24 532 -89Q532 -176 453 -226.5Q374 -277 253 -277ZM270 217Q311 217 339 242.5Q367 268 367 325Q367 367 342 397Q317 427 270 427Q224 427 197.5 399Q171 371 171 325Q171 276 197.5 246.5Q224 217 270 217ZM268 -187Q327 -187 360 -165Q393 -143 393 -115Q393 -83 346.5 -70.5Q300 -58 199 -54Q180 -69 171 -87Q162 -105 162 -122Q162 -149 188 -168Q214 -187 268 -187Z" glyph-name="g" horiz-adv-x="552" unicode="g" /><glyph d="M253 -277Q143 -277 80.5 -240Q18 -203 18 -146Q18 -110 45 -78Q72 -46 130 -27Q105 -14 92 6.5Q79 27 79 51Q79 81 101 104.5Q123 128 164 144Q103 166 67.5 213.5Q32 261 33 328Q33 417 101 471Q169 525 269 525Q385 525 446.5 465Q508 405 508 324Q508 223 436 175Q364 127 276 127Q266 127 251 128L237 129Q223 121 217.5 113Q212 105 212 98Q212 87 229 78.5Q246 70 309 65Q437 55 484.5 15.5Q532 -24 532 -89Q532 -176 453 -226.5Q374 -277 253 -277ZM270 217Q311 217 339 242.5Q367 268 367 325Q367 367 342 397Q317 427 270 427Q224 427 197.5 399Q171 371 171 325Q171 276 197.5 246.5Q224 217 270 217ZM265 559Q186 559 144 598.5Q102 638 104 704H129Q155 704 198 708Q197 671 215 652Q233 633 266 633Q296 633 314 654Q332 675 329 718H352Q376 718 424 719Q429 639 384.5 599Q340 559 265 559ZM268 -187Q327 -187 360 -165Q393 -143 393 -115Q393 -83 346.5 -70.5Q300 -58 199 -54Q180 -69 171 -87Q162 -105 162 -122Q162 -149 188 -168Q214 -187 268 -187Z" glyph-name="gbreve" horiz-adv-x="552" unicode="&#287;" /><glyph d="M253 -277Q143 -277 80.5 -240Q18 -203 18 -146Q18 -110 45 -78Q72 -46 130 -27Q105 -14 92 6.5Q79 27 79 51Q79 81 101 104.5Q123 128 164 144Q103 166 67.5 213.5Q32 261 33 328Q33 417 101 471Q169 525 269 525Q385 525 446.5 465Q508 405 508 324Q508 223 436 175Q364 127 276 127Q266 127 251 128L237 129Q223 121 217.5 113Q212 105 212 98Q212 87 229 78.5Q246 70 309 65Q437 55 484.5 15.5Q532 -24 532 -89Q532 -176 453 -226.5Q374 -277 253 -277ZM270 217Q311 217 339 242.5Q367 268 367 325Q367 367 342 397Q317 427 270 427Q224 427 197.5 399Q171 371 171 325Q171 276 197.5 246.5Q224 217 270 217ZM152 547 138 561Q124 576 94 603L130 640Q166 677 220 733L238 732Q257 732 306 734L338 699Q371 665 431 608L417 594Q403 581 373 549L342 579Q312 610 261 656L231 628Q202 600 152 547ZM268 -187Q327 -187 360 -165Q393 -143 393 -115Q393 -83 346.5 -70.5Q300 -58 199 -54Q180 -69 171 -87Q162 -105 162 -122Q162 -149 188 -168Q214 -187 268 -187Z" glyph-name="gcircumflex" horiz-adv-x="552" unicode="&#285;" /><glyph d="M253 -277Q143 -277 80.5 -240Q18 -203 18 -146Q18 -110 45 -78Q72 -46 130 -27Q105 -14 92 6.5Q79 27 79 51Q79 81 101 104.5Q123 128 164 144Q103 166 67.5 213.5Q32 261 33 328Q33 417 101 471Q169 525 269 525Q385 525 446.5 465Q508 405 508 324Q508 223 436 175Q364 127 276 127Q266 127 251 128L237 129Q223 121 217.5 113Q212 105 212 98Q212 87 229 78.5Q246 70 309 65Q437 55 484.5 15.5Q532 -24 532 -89Q532 -176 453 -226.5Q374 -277 253 -277ZM270 217Q311 217 339 242.5Q367 268 367 325Q367 367 342 397Q317 427 270 427Q224 427 197.5 399Q171 371 171 325Q171 276 197.5 246.5Q224 217 270 217ZM268 -187Q327 -187 360 -165Q393 -143 393 -115Q393 -83 346.5 -70.5Q300 -58 199 -54Q180 -69 171 -87Q162 -105 162 -122Q162 -149 188 -168Q214 -187 268 -187ZM198 637Q198 677 230 718Q262 759 310 790Q329 770 337 761L346 753Q325 737 309 718.5Q293 700 285 688Q308 684 321 667.5Q334 651 334 631Q334 606 316 587.5Q298 569 266 569Q235 569 216.5 587.5Q198 606 198 637Z" glyph-name="gcommaaccent" horiz-adv-x="552" unicode="&#291;" /><glyph d="M55 18 56 150Q57 282 57 431Q57 559 122 632Q187 705 321 705Q434 705 496 647Q558 589 558 508Q558 445 519.5 402.5Q481 360 426 344Q496 328 530 282Q564 236 564 178Q564 79 501.5 31.5Q439 -16 335 -16Q317 -16 298 -14.5Q279 -13 259 -11L260 13Q262 37 263 89Q329 82 369.5 105.5Q410 129 410 187Q410 233 375.5 262Q341 291 266 290V315Q267 340 266 393Q331 391 369 415.5Q407 440 407 497Q407 541 381.5 568Q356 595 310 595Q259 595 231.5 556Q204 517 204 443Q204 275 205 145L207 15Q137 15 96 16Z" glyph-name="germandbls" horiz-adv-x="603" unicode="&#223;" /><glyph d="M315 545 280 582Q246 620 169 698L190 713Q212 729 255 763L287 719Q320 676 384 595L366 582Q349 570 315 545Z" glyph-name="grave" horiz-adv-x="596" unicode="`" /><glyph d="M47 56Q48 113 47 150L46 187Q142 227 229 267Q316 307 351 323Q236 375 145 414L54 454Q55 501 53.5 538Q52 575 51 591Q227 501 341 446L456 391Q455 329 456 295L458 261Q296 182 171 119Z" glyph-name="greater" horiz-adv-x="497" unicode="&gt;" /><glyph d="M114 56Q115 113 114 150L113 187Q210 227 304 267Q398 307 437 324Q315 377 218 415L121 454Q122 501 120.5 538Q119 575 118 591Q299 502 421 446L543 391Q542 329 543 295L545 261Q380 183 247 119Z" glyph-name="greater.captab" horiz-adv-x="650" /><glyph d="M96 56Q97 113 96 150L95 187Q192 227 286 267Q380 307 419 324Q297 377 200 415L103 454Q104 501 102.5 538Q101 575 100 591Q281 502 403 446L525 391Q524 329 525 295L527 261Q362 183 229 119Z" glyph-name="greater.tab" horiz-adv-x="615" /><glyph d="M142 108 111 172Q81 236 24 343L61 402Q99 462 153 563L179 561Q206 560 261 559L221 493Q181 428 132 339L164 275Q196 212 248 116L220 114Q193 113 142 108ZM436 112H407Q378 112 329 109L298 172Q267 236 211 338L243 391Q276 444 328 541L356 539Q385 537 434 536L398 477Q362 418 317 334L348 273Q379 213 436 112Z" glyph-name="guillemotleft" horiz-adv-x="465" unicode="&#171;" /><glyph d="M321 113 295 115Q270 117 213 118L248 177Q283 236 332 329L302 390Q273 452 220 551H249Q278 551 329 555L359 491Q389 427 441 325L403 263Q366 201 321 113ZM133 111 105 114Q77 117 29 118L65 176Q101 235 148 326L118 388Q88 450 36 549L63 550Q91 551 142 555L170 493Q199 432 254 322L217 261Q181 201 133 111Z" glyph-name="guillemotright" horiz-adv-x="465" unicode="&#187;" /><glyph d="M136 109 107 171Q78 233 24 339L60 400Q96 462 145 554L170 552Q196 550 253 549L217 489Q182 429 133 336L163 274Q193 212 244 114L215 113Q187 113 136 109Z" glyph-name="guilsinglleft" horiz-adv-x="282" unicode="&#8249;" /><glyph d="M136 113 107 114Q79 116 29 117L64 176Q99 236 148 328L118 388Q88 449 34 551H63Q93 552 141 556L170 496Q199 437 256 324L221 264Q186 205 136 113Z" glyph-name="guilsinglright" horiz-adv-x="280" unicode="&#8250;" /><glyph d="M56 18 57 207Q59 397 56 678H93Q131 678 202 679L201 595Q200 512 201 402Q223 453 265 485Q307 517 361 517Q436 517 475 469Q514 421 516 337Q520 205 519 93L518 -19L477 -18Q437 -18 373 -18L374 77Q375 173 373 294Q372 341 357.5 366.5Q343 392 306 392Q257 392 231.5 347.5Q206 303 205 247Q203 169 203 94L204 19H163Q122 19 56 18Z" glyph-name="h" horiz-adv-x="570" unicode="h" /><glyph d="M56 18 57 207Q59 397 56 678H93Q131 678 202 679L201 595Q200 512 201 402Q223 453 265 485Q307 517 361 517Q436 517 475 469Q514 421 516 337Q520 205 519 93L518 -19L477 -18Q437 -18 373 -18L374 77Q375 173 373 294Q372 341 357.5 366.5Q343 392 306 392Q257 392 231.5 347.5Q206 303 205 247Q203 169 203 94L204 19H163Q122 19 56 18ZM17 686 3 700Q-11 715 -41 742L-5 779Q31 816 85 872L103 871Q122 871 171 873L203 838Q236 804 296 747L282 733Q268 720 238 688L207 718Q177 749 126 795L96 767Q67 739 17 686Z" glyph-name="hcircumflex" horiz-adv-x="570" unicode="&#293;" /><glyph d="M376 547Q339 569 322 577L305 586Q362 671 389 715L417 759Q462 734 484 722L506 711Q437 626 406 586ZM206 553Q169 575 152 582L135 590Q190 677 217 720L244 764Q287 739 309 727L332 715Q264 630 235 591Z" glyph-name="hungarumlaut" horiz-adv-x="596" unicode="&#733;" /><glyph d="M31 271Q31 338 30 368L29 398Q195 394 267 394L340 395Q336 318 337 294L338 271Q195 272 113 271Z" glyph-name="hyphen" horiz-adv-x="369" unicode="-" /><glyph d="M68 1V113Q68 226 65 500H104Q144 501 211 502V353Q212 205 215 2H173Q131 2 68 1ZM140 552Q93 552 65.5 574.5Q38 597 38 637Q38 676 66.5 697.5Q95 719 140 719Q186 719 212.5 696Q239 673 239 637Q239 596 212.5 574Q186 552 140 552Z" glyph-name="i" horiz-adv-x="277" unicode="i" /><glyph d="M68 1V113Q68 226 65 500H104Q144 501 211 502V353Q212 205 215 2H173Q131 2 68 1ZM132 546Q95 573 79 584L63 595Q127 676 159 719L191 763Q234 732 256 716L279 700Q201 622 166 584Z" glyph-name="iacute" horiz-adv-x="277" unicode="&#237;" /><glyph d="M68 1V113Q68 226 65 500H104Q144 501 211 502V353Q212 205 215 2H173Q131 2 68 1ZM31 542 17 556Q3 571 -27 598L9 635Q45 672 99 728L117 727Q136 727 185 729L217 694Q250 660 310 603L296 589Q282 576 252 544L221 574Q191 605 140 651L110 623Q81 595 31 542Z" glyph-name="icircumflex" horiz-adv-x="277" unicode="&#238;" /><glyph d="M68 1V113Q68 226 65 500H104Q144 501 211 502V353Q212 205 215 2H173Q131 2 68 1ZM244 569Q214 569 195 588Q176 607 176 639Q176 665 194.5 683.5Q213 702 246 702Q277 702 294.5 683Q312 664 312 636Q312 604 292.5 586.5Q273 569 244 569ZM40 568Q6 568 -12 588Q-30 608 -30 636Q-30 666 -9 683.5Q12 701 41 701Q75 701 93.5 681.5Q112 662 112 635Q112 600 90.5 584Q69 568 40 568Z" glyph-name="idieresis" horiz-adv-x="277" unicode="&#239;" /><glyph d="M68 1V113Q68 226 65 500H104Q144 501 211 502V353Q212 205 215 2H173Q131 2 68 1ZM150 545 115 582Q81 620 4 698L25 713Q47 729 90 763L122 719Q155 676 219 595L201 582Q184 570 150 545Z" glyph-name="igrave" horiz-adv-x="277" unicode="&#236;" /><glyph d="M68 1V113Q68 226 65 500H104Q144 501 211 502V353Q212 205 215 2H173Q131 2 68 1ZM-2 593V613Q-2 634 -3 680L62 679Q128 679 286 682L285 661Q284 640 284 594H214Q144 595 -2 593Z" glyph-name="imacron" horiz-adv-x="277" unicode="&#299;" /><glyph d="M205 -206Q193 -207 181.5 -208Q170 -209 160 -209Q100 -209 62.5 -183Q25 -157 25 -112Q24 -81 45 -50.5Q66 -20 109 2L69 1V113Q69 226 66 500H105Q145 501 212 502V353Q213 205 216 2H186Q149 -16 132.5 -40Q116 -64 116 -83Q116 -107 142 -117.5Q168 -128 211 -125L208 -145Q206 -166 205 -206ZM141 552Q94 552 66.5 574.5Q39 597 39 637Q39 676 67.5 697.5Q96 719 141 719Q187 719 213.5 696Q240 673 240 637Q240 596 213.5 574Q187 552 141 552Z" glyph-name="iogonek" horiz-adv-x="277" unicode="&#303;" /><glyph d="M14 -222Q-2 -222 -20 -221Q-38 -220 -57 -217L-55 -185Q-53 -154 -53 -94Q-41 -95 -30.5 -96.5Q-20 -98 -10 -98Q28 -98 47 -79.5Q66 -61 67 -17Q69 141 67 320L65 499Q139 498 173 499L208 500L211 350Q214 200 212 -31Q211 -130 159.5 -176Q108 -222 14 -222ZM139 552Q88 552 62.5 578Q37 604 37 637Q37 673 64 696.5Q91 720 137 720Q183 720 210 696Q237 672 237 638Q237 598 209 575Q181 552 139 552Z" glyph-name="j" horiz-adv-x="275" unicode="j" /><glyph d="M-57 -217 -55 -185Q-53 -154 -53 -94Q-41 -95 -30.5 -96.5Q-20 -98 -10 -98Q28 -98 47 -79.5Q66 -61 67 -17Q69 141 67 320L65 499Q139 498 173 499L208 500L211 350Q214 200 212 -31Q211 -130 159.5 -176Q108 -222 14 -222Q-2 -222 -20 -221Q-38 -220 -57 -217ZM26 542 12 556Q-2 571 -32 598L4 635Q40 672 94 728L112 727Q131 727 180 729L212 694Q245 660 305 603L291 589Q277 576 247 544L216 574Q186 605 135 651L105 623Q76 595 26 542Z" glyph-name="jcircumflex" horiz-adv-x="275" unicode="&#309;" /><glyph d="M265 209Q243 180 227.5 159Q212 138 202 124Q203 67 203 41L204 16Q137 18 96 18H56Q59 376 57 527L56 679Q131 677 167 677L203 678Q202 529 202 434V263Q283 390 321 455L359 521Q439 517 484 516L530 515Q469 434 430 382Q391 330 370 301Q449 149 494 67L539 -15Q454 -16 417 -19L381 -22Z" glyph-name="k" horiz-adv-x="552" unicode="k" /><glyph d="M265 209Q243 180 227.5 159Q212 138 202 124Q203 67 203 41L204 16Q137 18 96 18H56Q59 376 57 527L56 679Q131 677 167 677L203 678Q202 529 202 434V263Q283 390 321 455L359 521Q439 517 484 516L530 515Q469 434 430 382Q391 330 370 301Q449 149 494 67L539 -15Q454 -16 417 -19L381 -22ZM377 -119Q377 -159 345 -200Q313 -241 265 -272Q246 -252 237 -243L229 -235Q250 -219 266 -200.5Q282 -182 290 -170Q267 -166 254 -149.5Q241 -133 241 -113Q241 -88 259 -69.5Q277 -51 309 -51Q340 -51 358.5 -69.5Q377 -88 377 -119Z" glyph-name="kcommaaccent" horiz-adv-x="552" unicode="&#311;" /><glyph d="M207 5Q139 6 99 6L60 7Q63 373 62 532L61 691Q137 689 173 689H209Q205 283 206 144Z" glyph-name="l" horiz-adv-x="269" unicode="l" /><glyph d="M207 5Q139 6 99 6L60 7Q63 373 62 532L61 691Q137 689 173 689H209Q205 283 206 144ZM138 726Q101 753 85 764L69 775Q133 856 165 899L197 943Q240 912 262 896L285 880Q207 802 172 764Z" glyph-name="lacute" horiz-adv-x="269" unicode="&#314;" /><glyph d="M207 5Q139 6 99 6L60 7Q63 373 62 532L61 691Q137 689 173 689H209Q205 283 206 144ZM407 623Q407 583 375 542Q343 501 295 470Q276 490 267 499L259 507Q280 523 296 541.5Q312 560 320 572Q297 576 284 592.5Q271 609 271 629Q271 654 289 672.5Q307 691 339 691Q370 691 388.5 672.5Q407 654 407 623Z" glyph-name="lcaron" horiz-adv-x="269" unicode="&#318;" /><glyph d="M207 5Q139 6 99 6L60 7Q63 373 62 532L61 691Q137 689 173 689H209Q205 283 206 144ZM206 -119Q206 -159 174 -200Q142 -241 94 -272Q75 -252 66 -243L58 -235Q79 -219 95 -200.5Q111 -182 119 -170Q96 -166 83 -149.5Q70 -133 70 -113Q70 -88 88 -69.5Q106 -51 138 -51Q169 -51 187.5 -69.5Q206 -88 206 -119Z" glyph-name="lcommaaccent" horiz-adv-x="269" unicode="&#316;" /><glyph d="M455 189 453 151Q451 113 452 57L329 117Q207 178 39 256L40 292Q42 328 41 390L157 445Q273 501 451 591L449 554Q447 517 447 454L357 415Q267 376 150 324Q192 305 279 265.5Q366 226 455 189Z" glyph-name="less" horiz-adv-x="501" unicode="&lt;" /><glyph d="M540 189 538 151Q536 113 537 57L406 118Q275 179 104 256L105 292Q107 328 106 390L230 446Q354 502 536 591L534 554Q532 517 532 454L434 414Q336 375 217 324Q262 305 354.5 265.5Q447 226 540 189Z" glyph-name="less.captab" horiz-adv-x="650" /><glyph d="M522 189 520 151Q518 113 519 57L388 118Q257 179 86 256L87 292Q89 328 88 390L212 446Q336 502 518 591L516 554Q514 517 514 454L416 414Q318 375 199 324Q244 305 336.5 265.5Q429 226 522 189Z" glyph-name="less.tab" horiz-adv-x="615" /><glyph d="M20 281Q21 324 20 358L19 392L96 416Q96 546 95 618V691Q171 689 207 689H243Q242 625 241.5 568.5Q241 512 241 463Q274 473 295 480.5Q316 488 318 489Q316 438 316 406V374L240 351Q239 152 240 78L241 5Q173 6 133 6L94 7L96 306Z" glyph-name="lslash" horiz-adv-x="337" unicode="&#322;" /><glyph d="M58 17V149Q58 282 55 490L89 489Q124 489 174 489L173 455Q172 422 172 376Q197 440 244 478Q291 516 349 516Q415 516 449.5 478Q484 440 494 382Q518 438 563 467.5Q608 497 659 497Q745 497 778.5 442.5Q812 388 815 313Q818 203 817 92L816 -18L776 -17Q737 -17 671 -18L672 79Q673 176 669 277Q668 322 653 347.5Q638 373 604 373Q560 373 535 333Q510 293 509 237Q508 168 509 100L510 32H362L364 116Q367 201 364 299Q363 340 348 365.5Q333 391 302 391Q265 391 235 350.5Q205 310 204 244Q202 166 203 91L205 17Z" glyph-name="m" horiz-adv-x="868" unicode="m" /><glyph d="M153 593V613Q153 634 152 680L217 679Q283 679 441 682L440 661Q439 640 439 594H369Q299 595 153 593Z" glyph-name="macron" horiz-adv-x="596" unicode="&#175;" /><glyph d="M432 387Q431 336 432 302L433 269Q282 272 160 271L39 270Q41 324 41 356V388Q198 385 315 386Z" glyph-name="minus" horiz-adv-x="472" unicode="&#8722;" /><glyph d="M532 387Q531 336 532 302L533 269Q382 272 250 271L119 270Q121 324 121 356V388Q278 385 405 386Z" glyph-name="minus.captab" horiz-adv-x="650" /><glyph d="M514 387Q513 336 514 302L515 269Q364 272 232 271L101 270Q103 324 103 356V388Q260 385 387 386Z" glyph-name="minus.tab" horiz-adv-x="615" /><glyph d="M113 104 94 123Q75 143 36 179L78 222Q121 265 181 328Q121 391 79 434L37 478Q77 515 95 535L114 555Q146 519 182 480Q218 441 254 404L394 556L415 534Q437 512 471 481L428 437Q385 393 325 330Q386 267 428 223L471 180Q430 142 411 122L392 103L252 253Q216 216 180 177.5Q144 139 113 104Z" glyph-name="multiply" horiz-adv-x="507" unicode="&#215;" /><glyph d="M183 102 164 121Q146 141 106 177L149 221Q192 265 253 329Q193 392 150 436L108 480Q147 517 166 537L185 557Q218 521 254 482Q290 443 326 405Q363 443 399.5 482Q436 521 469 557L492 533Q514 512 545 483L502 438Q459 394 397 330Q459 266 502 222L545 178Q505 140 485 120L466 101Q434 136 397.5 175.5Q361 215 324 254Z" glyph-name="multiply.captab" horiz-adv-x="650" /><glyph d="M165 102 146 121Q128 141 88 177L131 221Q174 265 235 329Q175 392 132 436L90 480Q129 517 148 537L167 557Q200 521 236 482Q272 443 308 405Q345 443 381.5 482Q418 521 451 557L474 533Q496 512 527 483L484 438Q441 394 379 330Q441 266 484 222L527 178Q487 140 467 120L448 101Q416 136 379.5 175.5Q343 215 306 254Z" glyph-name="multiply.tab" horiz-adv-x="615" /><glyph d="M370 -20 371 80Q373 181 372 294Q371 338 357 364.5Q343 391 304 391Q259 391 232 350Q205 309 204 252Q202 198 202 107L203 17H153Q104 18 55 17L56 146Q57 276 56 488H94Q133 488 174 489L173 452Q172 415 173 375Q200 444 248 480.5Q296 517 356 516Q436 515 474 465.5Q512 416 515 334Q517 280 517 130V-19Q484 -19 427 -19Z" glyph-name="n" horiz-adv-x="568" unicode="n" /><glyph d="M370 -20 371 80Q373 181 372 294Q371 338 357 364.5Q343 391 304 391Q259 391 232 350Q205 309 204 252Q202 198 202 107L203 17H153Q104 18 55 17L56 146Q57 276 56 488H94Q133 488 174 489L173 452Q172 415 173 375Q200 444 248 480.5Q296 517 356 516Q436 515 474 465.5Q512 416 515 334Q517 280 517 130V-19Q484 -19 427 -19ZM284 546Q247 573 231 584L215 595Q279 676 311 719L343 763Q386 732 408 716L431 700Q353 622 318 584Z" glyph-name="nacute" horiz-adv-x="568" unicode="&#324;" /><glyph d="M370 -20 371 80Q373 181 372 294Q371 338 357 364.5Q343 391 304 391Q259 391 232 350Q205 309 204 252Q202 198 202 107L203 17H153Q104 18 55 17L56 146Q57 276 56 488H94Q133 488 174 489L173 452Q172 415 173 375Q200 444 248 480.5Q296 517 356 516Q436 515 474 465.5Q512 416 515 334Q517 280 517 130V-19Q484 -19 427 -19ZM182 735Q212 707 243 676.5Q274 646 293 627Q325 654 353.5 682Q382 710 404 736Q424 712 438.5 698Q453 684 462 677Q423 643 389 608Q355 573 336 549Q302 550 283 550H251Q217 582 181.5 618Q146 654 124 678Q146 699 159.5 713Q173 727 182 735Z" glyph-name="ncaron" horiz-adv-x="568" unicode="&#328;" /><glyph d="M370 -20 371 80Q373 181 372 294Q371 338 357 364.5Q343 391 304 391Q259 391 232 350Q205 309 204 252Q202 198 202 107L203 17H153Q104 18 55 17L56 146Q57 276 56 488H94Q133 488 174 489L173 452Q172 415 173 375Q200 444 248 480.5Q296 517 356 516Q436 515 474 465.5Q512 416 515 334Q517 280 517 130V-19Q484 -19 427 -19ZM372 -119Q372 -159 340 -200Q308 -241 260 -272Q241 -252 232 -243L224 -235Q245 -219 261 -200.5Q277 -182 285 -170Q262 -166 249 -149.5Q236 -133 236 -113Q236 -88 254 -69.5Q272 -51 304 -51Q335 -51 353.5 -69.5Q372 -88 372 -119Z" glyph-name="ncommaaccent" horiz-adv-x="568" unicode="&#326;" /><glyph d="M302 -22Q202 -22 127.5 27.5Q53 77 33 190Q108 197 149 203L190 209Q199 149 227.5 123.5Q256 98 302 98Q359 98 392.5 146.5Q426 195 428 321Q400 289 355.5 270Q311 251 254 251Q148 251 89.5 307Q31 363 31 453Q31 557 106 617.5Q181 678 300 678Q430 678 506.5 591Q583 504 583 332Q583 147 505.5 62.5Q428 -22 302 -22ZM298 343Q333 343 367.5 363.5Q402 384 423 414Q413 493 382 528.5Q351 564 302 564Q249 564 220 532Q191 500 191 449Q191 398 219.5 370.5Q248 343 298 343Z" glyph-name="nine" horiz-adv-x="624" unicode="9" /><glyph d="M324 -23Q209 -23 133.5 32Q58 87 39 195Q116 199 161 205L206 211Q217 155 246 126.5Q275 98 325 98Q382 98 417.5 150.5Q453 203 456 334Q423 303 374.5 285.5Q326 268 275 268Q166 268 102 323.5Q38 379 38 478Q38 586 117.5 650Q197 714 321 714Q460 714 539.5 620Q619 526 619 350Q619 154 538 65.5Q457 -23 324 -23ZM320 362Q356 362 389.5 379Q423 396 452 428Q442 515 408.5 556Q375 597 323 597Q269 597 238 562Q207 527 207 473Q207 419 238.5 390.5Q270 362 320 362Z" glyph-name="nine.cap" horiz-adv-x="664" /><glyph d="M318 -23Q208 -23 134.5 31Q61 85 42 195Q120 199 163 205L206 211Q218 153 245.5 125.5Q273 98 319 98Q373 98 407.5 148Q442 198 444 337Q413 305 367 286.5Q321 268 270 268Q161 268 101 323.5Q41 379 41 478Q41 588 120 651Q199 714 316 714Q453 714 528.5 619Q604 524 604 350Q604 154 526 65.5Q448 -23 318 -23ZM314 362Q352 362 383 379Q414 396 440 427Q431 517 399.5 557Q368 597 317 597Q266 597 236.5 561.5Q207 526 207 473Q207 416 238 389Q269 362 314 362Z" glyph-name="nine.captab" horiz-adv-x="650" /><glyph d="M210 -19Q141 -19 92 13Q43 45 30 110Q75 111 107 115L140 120Q147 89 165.5 73.5Q184 58 212 58Q247 58 268.5 86.5Q290 115 292 187Q271 168 241.5 158Q212 148 178 148Q106 148 67.5 183.5Q29 219 29 272Q29 335 77.5 374Q126 413 213 413Q305 413 353 358.5Q401 304 401 200Q401 79 345.5 30Q290 -19 210 -19ZM212 206Q231 206 251.5 217Q272 228 289 249Q283 296 262.5 318Q242 340 211 340Q178 340 160 321Q142 302 142 272Q142 240 160 223Q178 206 212 206Z" glyph-name="nine.denominator" horiz-adv-x="434" /><glyph d="M210 293Q141 293 92 325Q43 357 30 422Q75 423 107 427L140 432Q147 401 165.5 385.5Q184 370 212 370Q247 370 268.5 398.5Q290 427 292 499Q271 480 241.5 470Q212 460 178 460Q106 460 67.5 495.5Q29 531 29 584Q29 647 77.5 686Q126 725 213 725Q305 725 353 670.5Q401 616 401 512Q401 391 345.5 342Q290 293 210 293ZM212 518Q231 518 251.5 529Q272 540 289 561Q283 608 262.5 630Q242 652 211 652Q178 652 160 633Q142 614 142 584Q142 552 160 535Q178 518 212 518Z" glyph-name="nine.numerator" horiz-adv-x="434" /><glyph d="M303 -22Q199 -22 127.5 31Q56 84 37 190Q112 197 153 203L194 209Q202 153 229.5 125.5Q257 98 303 98Q355 98 388 145.5Q421 193 423 317Q392 285 348 268Q304 251 255 251Q151 251 93 308.5Q35 366 35 453Q35 554 109 616Q183 678 301 678Q429 678 503.5 589Q578 500 578 332Q578 149 502.5 63.5Q427 -22 303 -22ZM297 344Q331 344 363.5 363Q396 382 419 411Q410 486 381 525Q352 564 303 564Q252 564 223.5 530.5Q195 497 195 449Q195 403 222 373.5Q249 344 297 344Z" glyph-name="nine.tab" horiz-adv-x="615" /><glyph d="M370 -20 371 80Q373 181 372 294Q371 338 357 364.5Q343 391 304 391Q259 391 232 350Q205 309 204 252Q202 198 202 107L203 17H153Q104 18 55 17L56 146Q57 276 56 488H94Q133 488 174 489L173 452Q172 415 173 375Q200 444 248 480.5Q296 517 356 516Q436 515 474 465.5Q512 416 515 334Q517 280 517 130V-19Q484 -19 427 -19ZM194 563 174 564Q155 566 116 566Q114 632 141.5 674Q169 716 222 716Q269 716 299.5 681.5Q330 647 359 647Q375 647 384 661Q393 675 394 709L412 708Q430 708 470 709Q474 632 448 596Q422 560 373 560Q322 560 290.5 593Q259 626 231 626Q214 626 204 609.5Q194 593 194 563Z" glyph-name="ntilde" horiz-adv-x="568" unicode="&#241;" /><glyph d="M375 77V112Q375 147 376 201L244 200Q244 171 245 142.5Q246 114 247 89L216 90Q185 92 138 92V122Q138 152 139 199Q114 198 88.5 197.5Q63 197 37 197V226Q38 255 36 303L64 302Q93 302 139 302V377Q139 414 138 459Q115 459 90.5 458.5Q66 458 41 457V485Q42 514 40 563L70 562Q100 562 137 562Q137 590 136.5 617Q136 644 135 671L165 670Q195 670 243 672L242 641Q242 611 242 562L374 563Q374 594 373.5 625Q373 656 372 686L403 685Q434 684 480 687L479 653Q479 619 479 565Q504 565 530 565.5Q556 566 583 567L581 538Q580 509 581 463H479Q479 426 479.5 386.5Q480 347 481 303Q506 303 532.5 303.5Q559 304 586 305L584 276Q583 247 585 200H555Q525 201 482 201Q482 170 482.5 139Q483 108 484 77H455Q426 78 375 77ZM242 301H306Q339 301 376 302V379Q376 417 375 463L242 461Z" glyph-name="numbersign" horiz-adv-x="622" unicode="#" /><glyph d="M385 77V112Q385 147 386 201L264 200Q264 171 265 142.5Q266 114 267 89L235 90Q204 92 158 92V199Q134 198 109.5 197.5Q85 197 60 197V226Q61 255 59 303L86 302Q113 302 159 302V378Q159 418 158 459Q136 459 112.5 458.5Q89 458 64 457V485Q64 514 63 563L92 562Q122 562 157 562L155 671L185 670Q215 670 263 672L262 641Q262 611 262 562L384 563Q384 594 383.5 625Q383 656 382 686L413 685Q445 684 491 687L490 649Q490 611 490 565Q514 565 539 565.5Q564 566 589 567L587 538Q586 509 587 463H490L491 303Q516 303 541 303.5Q566 304 592 305L591 276Q590 247 591 200H562Q533 201 492 201L495 77H465Q436 78 385 77ZM262 301H321Q352 301 386 302V379Q386 417 385 463L262 461Z" glyph-name="numbersign.captab" horiz-adv-x="650" /><glyph d="M367 77V112Q367 147 368 201L246 200Q246 171 247 142.5Q248 114 249 89L217 90Q186 92 140 92V199Q116 198 91.5 197.5Q67 197 42 197V226Q43 255 41 303L68 302Q95 302 141 302V378Q141 418 140 459Q118 459 94.5 458.5Q71 458 46 457V485Q46 514 45 563L74 562Q104 562 139 562L137 671L167 670Q197 670 245 672L244 641Q244 611 244 562L366 563Q366 594 365.5 625Q365 656 364 686L395 685Q427 684 473 687L472 649Q472 611 472 565Q496 565 521 565.5Q546 566 571 567L569 538Q568 509 569 463H472L473 303Q498 303 523 303.5Q548 304 574 305L573 276Q572 247 573 200H544Q515 201 474 201L477 77H447Q418 78 367 77ZM244 301H303Q334 301 368 302V379Q368 417 367 463L244 461Z" glyph-name="numbersign.tab" horiz-adv-x="615" /><glyph d="M296 -15Q177 -15 110 56Q43 127 43 257Q43 377 113 447.5Q183 518 297 518Q416 518 484.5 446Q553 374 553 253Q553 116 479 50.5Q405 -15 296 -15ZM298 84Q344 84 372 124Q400 164 400 254Q400 329 375 373.5Q350 418 299 418Q253 418 224 377Q195 336 195 258Q195 167 222 125.5Q249 84 298 84Z" glyph-name="o" horiz-adv-x="596" unicode="o" /><glyph d="M296 -15Q177 -15 110 56Q43 127 43 257Q43 377 113 447.5Q183 518 297 518Q416 518 484.5 446Q553 374 553 253Q553 116 479 50.5Q405 -15 296 -15ZM298 84Q344 84 372 124Q400 164 400 254Q400 329 375 373.5Q350 418 299 418Q253 418 224 377Q195 336 195 258Q195 167 222 125.5Q249 84 298 84ZM290 546Q253 573 237 584L221 595Q285 676 317 719L349 763Q392 732 414 716L437 700Q359 622 324 584Z" glyph-name="oacute" horiz-adv-x="596" unicode="&#243;" /><glyph d="M296 -15Q177 -15 110 56Q43 127 43 257Q43 377 113 447.5Q183 518 297 518Q416 518 484.5 446Q553 374 553 253Q553 116 479 50.5Q405 -15 296 -15ZM298 84Q344 84 372 124Q400 164 400 254Q400 329 375 373.5Q350 418 299 418Q253 418 224 377Q195 336 195 258Q195 167 222 125.5Q249 84 298 84ZM188 542 174 556Q160 571 130 598L166 635Q202 672 256 728L274 727Q293 727 342 729L374 694Q407 660 467 603L453 589Q439 576 409 544L378 574Q348 605 297 651L267 623Q238 595 188 542Z" glyph-name="ocircumflex" horiz-adv-x="596" unicode="&#244;" /><glyph d="M296 -15Q177 -15 110 56Q43 127 43 257Q43 377 113 447.5Q183 518 297 518Q416 518 484.5 446Q553 374 553 253Q553 116 479 50.5Q405 -15 296 -15ZM298 84Q344 84 372 124Q400 164 400 254Q400 329 375 373.5Q350 418 299 418Q253 418 224 377Q195 336 195 258Q195 167 222 125.5Q249 84 298 84ZM401 569Q371 569 352 588Q333 607 333 639Q333 665 351.5 683.5Q370 702 403 702Q434 702 451.5 683Q469 664 469 636Q469 604 449.5 586.5Q430 569 401 569ZM197 568Q163 568 145 588Q127 608 127 636Q127 666 148 683.5Q169 701 198 701Q232 701 250.5 681.5Q269 662 269 635Q269 600 247.5 584Q226 568 197 568Z" glyph-name="odieresis" horiz-adv-x="596" unicode="&#246;" /><glyph d="M666 -23Q596 -23 545.5 5Q495 33 469 83Q441 37 393.5 12Q346 -13 289 -13Q175 -13 109 58.5Q43 130 43 261Q43 378 109.5 449.5Q176 521 287 521Q355 521 402.5 493Q450 465 476 421Q502 464 550 488.5Q598 513 665 513Q787 513 845 435.5Q903 358 887 224L814 223Q741 223 554 218Q559 148 588.5 113Q618 78 664 78Q698 78 724.5 100Q751 122 770 165L803 153Q837 142 900 125Q866 58 805 17.5Q744 -23 666 -23ZM300 86Q344 86 372 126Q400 166 400 254Q400 326 376 374Q352 422 299 422Q249 422 221.5 378.5Q194 335 194 260Q194 170 221.5 128Q249 86 300 86ZM656 428Q616 428 589 394.5Q562 361 555 298Q589 299 638.5 301Q688 303 748 306Q748 361 725 394.5Q702 428 656 428Z" glyph-name="oe" horiz-adv-x="941" unicode="&#339;" /><glyph d="M385 -214Q373 -215 361.5 -216Q350 -217 340 -217Q280 -217 242.5 -191Q205 -165 205 -120Q204 -85 231.5 -50Q259 -15 317 6L386 3Q339 -16 317.5 -43Q296 -70 296 -91Q296 -115 322 -125.5Q348 -136 391 -133L388 -153Q386 -174 385 -214Z" glyph-name="ogonek" horiz-adv-x="604" unicode="&#731;" /><glyph d="M296 -15Q177 -15 110 56Q43 127 43 257Q43 377 113 447.5Q183 518 297 518Q416 518 484.5 446Q553 374 553 253Q553 116 479 50.5Q405 -15 296 -15ZM298 84Q344 84 372 124Q400 164 400 254Q400 329 375 373.5Q350 418 299 418Q253 418 224 377Q195 336 195 258Q195 167 222 125.5Q249 84 298 84ZM308 545 273 582Q239 620 162 698L183 713Q205 729 248 763L280 719Q313 676 377 595L359 582Q342 570 308 545Z" glyph-name="ograve" horiz-adv-x="596" unicode="&#242;" /><glyph d="M296 -15Q177 -15 110 56Q43 127 43 257Q43 377 113 447.5Q183 518 297 518Q416 518 484.5 446Q553 374 553 253Q553 116 479 50.5Q405 -15 296 -15ZM298 84Q344 84 372 124Q400 164 400 254Q400 329 375 373.5Q350 418 299 418Q253 418 224 377Q195 336 195 258Q195 167 222 125.5Q249 84 298 84ZM375 547Q338 569 321 577L304 586Q361 671 388 715L416 759Q461 734 483 722L505 711Q436 626 405 586ZM205 553Q168 575 151 582L134 590Q189 677 216 720L243 764Q286 739 308 727L331 715Q263 630 234 591Z" glyph-name="ohungarumlaut" horiz-adv-x="596" unicode="&#337;" /><glyph d="M296 -15Q177 -15 110 56Q43 127 43 257Q43 377 113 447.5Q183 518 297 518Q416 518 484.5 446Q553 374 553 253Q553 116 479 50.5Q405 -15 296 -15ZM298 84Q344 84 372 124Q400 164 400 254Q400 329 375 373.5Q350 418 299 418Q253 418 224 377Q195 336 195 258Q195 167 222 125.5Q249 84 298 84ZM155 593V613Q155 634 154 680L219 679Q285 679 443 682L442 661Q441 640 441 594H371Q301 595 155 593Z" glyph-name="omacron" horiz-adv-x="596" unicode="&#333;" /><glyph d="M168 -3Q170 196 170 320.5Q170 445 169 489Q121 465 88 447L55 429Q36 489 24 521L12 553Q110 602 164 631L218 661Q261 656 286 653L312 651Q312 401 315 199L319 -2Q252 -4 210 -3Z" glyph-name="one" horiz-adv-x="408" unicode="1" /><glyph d="M178 -3Q179 207 178.5 338.5Q178 470 177 516Q128 491 93 472L59 454Q38 516 26 550L14 584Q117 636 173 667L230 699Q276 693 302 690L329 688Q329 425 332 211L335 -2Q265 -4 221 -3Z" glyph-name="one.cap" horiz-adv-x="432" /><glyph d="M114 -3Q115 64 113 94L112 124L273 121Q274 287 273 383.5Q272 480 271 517Q220 491 180 469L140 448Q119 510 107 544L95 578Q198 630 261 664L324 699Q370 693 396 690L423 688Q423 510 424.5 357.5Q426 205 427 120Q489 120 531 120L574 121Q570 44 571 20L572 -3Q429 -2 271 -2Z" glyph-name="one.captab" horiz-adv-x="650" /><glyph d="M125 -7Q126 109 126 180Q126 251 125 282L51 244Q39 282 29 307L20 332Q80 363 118 383L156 403Q184 400 207 398L230 397Q230 243 232 118L234 -6Q191 -7 158 -7Z" glyph-name="one.denominator" horiz-adv-x="301" /><glyph d="M125 305Q126 421 126 492Q126 563 125 594L51 556Q39 594 29 619L20 644Q80 675 118 695L156 715Q184 712 207 710L230 709Q230 555 232 430L234 306Q191 305 158 305Z" glyph-name="one.numerator" horiz-adv-x="301" /><glyph d="M115 -4Q116 64 115 94L114 124L262 121Q263 288 263 374Q263 460 262 489Q213 464 173 442L133 421Q114 481 102 513L90 545Q188 594 249 627L311 661Q354 656 379 653L405 651Q405 469 407 328Q409 187 410 120Q469 120 508 120L548 121Q544 43 545 19L546 -4Q403 -3 259 -3Z" glyph-name="one.tab" horiz-adv-x="615" /><glyph d="M125 305Q126 421 126 492Q126 563 125 594L51 556Q39 594 29 619L20 644Q80 675 118 695L156 715Q184 712 207 710L230 709Q230 555 232 430L234 306Q191 305 158 305ZM212 -19Q175 -13 158 -11L141 -10Q355 317 475 508L596 700Q630 695 650 693L670 692Q424 310 318 145ZM843 -7Q694 -4 605 -3H517Q516 30 515 62L514 94Q606 128 672.5 177Q739 226 739 279Q739 307 724.5 322.5Q710 338 685 338Q652 338 636.5 315.5Q621 293 620 249L591 253Q562 257 514 261Q517 331 561.5 372Q606 413 687 413Q766 413 807.5 377.5Q849 342 849 285Q849 219 789.5 163Q730 107 643 75Q730 75 786 78L843 81Q842 41 842 17Z" glyph-name="onehalf" horiz-adv-x="880" unicode="&#189;" /><glyph d="M125 305Q126 421 126 492Q126 563 125 594L51 556Q39 594 29 619L20 644Q80 675 118 695L156 715Q184 712 207 710L230 709Q230 555 232 430L234 306Q191 305 158 305ZM212 -19Q175 -13 158 -11L141 -10Q355 317 475 508L596 700Q630 695 650 693L670 692Q424 310 318 145ZM690 -6V34Q690 54 691 73Q641 72 584 71.5Q527 71 461 70L460 88Q460 107 459 148Q542 267 589 338L637 409Q711 405 752 405H793Q792 324 792 261V150L834 151V73H792Q792 38 792 16L793 -5Q746 -6 718 -6ZM692 149Q693 227 693 274V341Q642 267 608.5 218Q575 169 562 149Z" glyph-name="onequarter" horiz-adv-x="860" unicode="&#188;" /><glyph d="M125 305Q126 421 126 492Q126 563 125 594L51 556Q39 594 29 619L20 644Q80 675 118 695L156 715Q184 712 207 710L230 709Q230 555 232 430L234 306Q191 305 158 305Z" glyph-name="onesuperior" horiz-adv-x="301" unicode="&#185;" /><glyph d="M168 285Q108 285 70.5 317.5Q33 350 33 405Q33 459 89.5 498Q146 537 288 544V558Q288 593 273.5 610.5Q259 628 230 628Q205 628 188 613Q171 598 164 570L134 575Q104 581 46 588Q60 642 109.5 674Q159 706 231 706Q321 706 364.5 659.5Q408 613 411 533Q414 466 411 380L409 294L385 293Q362 293 313 294L315 319Q317 345 318 379Q299 333 259 309Q219 285 168 285ZM290 492Q217 485 187.5 461.5Q158 438 158 409Q158 384 173 370.5Q188 357 213 357Q247 357 268.5 387.5Q290 418 290 457Z" glyph-name="ordfeminine" horiz-adv-x="456" unicode="&#170;" /><glyph d="M236 279Q140 279 87 337.5Q34 396 34 501Q34 594 90.5 651.5Q147 709 237 709Q337 709 387.5 649Q438 589 438 495Q438 388 379 333.5Q320 279 236 279ZM237 361Q275 361 294.5 395.5Q314 430 314 495Q314 557 294.5 593.5Q275 630 237 630Q199 630 178.5 594.5Q158 559 158 502Q158 429 178.5 395Q199 361 237 361Z" glyph-name="ordmasculine" horiz-adv-x="472" unicode="&#186;" /><glyph d="M297 -13Q278 -13 259.5 -11Q241 -9 225 -5Q218 -20 208.5 -41.5Q199 -63 187 -94L157 -78Q127 -62 76 -37L90 -17Q104 3 128 39Q85 74 64 130.5Q43 187 43 256Q43 373 107.5 446.5Q172 520 300 520Q318 520 334.5 518Q351 516 367 513L405 603L434 587Q464 572 517 546L507 531Q497 517 466 466Q509 431 531.5 376Q554 321 554 254Q554 131 485.5 59Q417 -13 297 -13ZM298 86Q347 86 373.5 128Q400 170 400 254Q400 334 374.5 377.5Q349 421 298 421Q248 421 221 376.5Q194 332 194 256Q194 171 220.5 128.5Q247 86 298 86Z" glyph-name="oslash" horiz-adv-x="597" unicode="&#248;" /><glyph d="M296 -15Q177 -15 110 56Q43 127 43 257Q43 377 113 447.5Q183 518 297 518Q416 518 484.5 446Q553 374 553 253Q553 116 479 50.5Q405 -15 296 -15ZM298 84Q344 84 372 124Q400 164 400 254Q400 329 375 373.5Q350 418 299 418Q253 418 224 377Q195 336 195 258Q195 167 222 125.5Q249 84 298 84ZM198 563 178 564Q159 566 120 566Q118 632 145.5 674Q173 716 226 716Q273 716 303.5 681.5Q334 647 363 647Q379 647 388 661Q397 675 398 709L416 708Q434 708 474 709Q478 632 452 596Q426 560 377 560Q326 560 294.5 593Q263 626 235 626Q218 626 208 609.5Q198 593 198 563Z" glyph-name="otilde" horiz-adv-x="596" unicode="&#245;" /><glyph d="M55 -210Q57 59 56 278L55 498Q85 497 132 498L180 499Q179 459 179 440V405Q205 459 253 488.5Q301 518 351 518Q452 518 506.5 438.5Q561 359 561 251Q562 126 503.5 55.5Q445 -15 349 -15Q304 -15 264 5Q224 25 199 68Q202 -75 205 -142L209 -209Q165 -208 110 -209ZM311 79Q357 79 382.5 121.5Q408 164 408 251Q408 324 382.5 372.5Q357 421 310 421Q259 421 230.5 371.5Q202 322 202 250Q202 171 231 125Q260 79 311 79Z" glyph-name="p" horiz-adv-x="605" unicode="p" /><glyph d="M32 400Q32 540 137 623Q242 706 466 706Q514 706 562.5 702Q611 698 670 691L669 450Q669 210 677 -187L640 -185Q604 -184 521 -184L523 109Q525 402 526 577Q505 578 480.5 577Q456 576 431 575Q431 492 432 279Q433 66 436 -167H389Q343 -167 283 -168V-84Q283 -1 281 111Q159 136 95.5 210Q32 284 32 400Z" glyph-name="paragraph" horiz-adv-x="741" unicode="&#182;" /><glyph d="M176 -144Q111 -34 82 80.5Q53 195 53 302Q53 434 85.5 554Q118 674 184 764Q240 742 273 730L307 718Q256 628 231.5 525Q207 422 207 307Q207 211 230.5 113Q254 15 309 -99Q252 -116 214 -130Z" glyph-name="parenleft" horiz-adv-x="332" unicode="(" /><glyph d="M178 -83Q117 21 86 126.5Q55 232 55 331Q55 450 89 563.5Q123 677 186 764Q243 742 276 730L309 718Q262 634 235.5 536.5Q209 439 209 337Q209 249 235.5 156.5Q262 64 311 -40Q254 -56 216 -69Z" glyph-name="parenleft.cap" horiz-adv-x="339" /><glyph d="M204 -83Q142 21 111.5 126.5Q81 232 81 331Q81 450 115 563.5Q149 677 212 764Q268 742 301 730L335 718Q288 634 261.5 536.5Q235 439 235 337Q235 249 261 156.5Q287 64 337 -40Q280 -56 242 -69Z" glyph-name="parenleft.captab" horiz-adv-x="390" /><glyph d="M190 -144Q125 -34 96 80.5Q67 195 67 302Q67 434 99.5 554Q132 674 198 764Q254 742 287 730L321 718Q270 628 245.5 525Q221 422 221 307Q221 211 244.5 113Q268 15 323 -99Q266 -116 228 -130Z" glyph-name="parenleft.tab" horiz-adv-x="360" /><glyph d="M157 -149 118 -134Q80 -120 23 -104Q73 1 99 103.5Q125 206 125 308Q125 417 100.5 523.5Q76 630 26 720L60 733Q95 746 151 768Q218 674 248.5 551.5Q279 429 279 307Q279 197 248.5 79.5Q218 -38 157 -149Z" glyph-name="parenright" horiz-adv-x="332" unicode=")" /><glyph d="M162 -89 123 -74Q85 -60 28 -44Q77 59 103.5 154Q130 249 130 338Q130 440 103.5 538Q77 636 31 720L65 733Q100 746 156 768Q218 681 251 566.5Q284 452 284 337Q284 238 253 128.5Q222 19 162 -89Z" glyph-name="parenright.cap" horiz-adv-x="339" /><glyph d="M188 -89 149 -74Q111 -60 54 -44Q103 59 129.5 154Q156 249 156 338Q156 440 129.5 538Q103 636 57 720L91 733Q126 746 182 768Q243 681 276.5 566.5Q310 452 310 337Q310 238 279 128.5Q248 19 188 -89Z" glyph-name="parenright.captab" horiz-adv-x="390" /><glyph d="M172 -149 133 -134Q95 -120 38 -104Q88 1 114 103.5Q140 206 140 308Q140 417 115.5 523.5Q91 630 41 720L75 733Q110 746 166 768Q233 674 264 551.5Q295 429 295 307Q295 197 264 79.5Q233 -38 172 -149Z" glyph-name="parenright.tab" horiz-adv-x="360" /><glyph d="M199 294Q111 294 70 350Q29 406 29 490Q29 566 74.5 619Q120 672 201 672Q285 672 328.5 620.5Q372 569 372 482Q372 386 321.5 340Q271 294 199 294ZM625 -23Q541 -23 498 31Q455 85 455 168Q455 243 499.5 299.5Q544 356 627 356Q711 356 754.5 302Q798 248 798 166Q798 70 748.5 23.5Q699 -23 625 -23ZM231 -19Q194 -13 177 -11L160 -10Q374 317 481 487L589 658Q623 653 643 651L663 650Q417 268 324 124ZM200 368Q231 368 247 396.5Q263 425 264 484Q264 538 248.5 567.5Q233 597 201 597Q170 597 153 566Q136 535 136 484Q136 427 152.5 397.5Q169 368 200 368ZM627 51Q658 51 674 80Q690 109 690 163Q690 220 674.5 249Q659 278 625 278Q596 278 579.5 248Q563 218 563 169Q563 110 579.5 80.5Q596 51 627 51Z" glyph-name="percent" horiz-adv-x="827" unicode="%" /><glyph d="M201 344Q112 344 70.5 399.5Q29 455 29 541Q29 619 75.5 670.5Q122 722 203 722Q287 722 331.5 671.5Q376 621 376 531Q376 430 324.5 387Q273 344 201 344ZM605 -23Q519 -23 476 30.5Q433 84 433 168Q433 247 478 301.5Q523 356 606 356Q692 356 736 303Q780 250 780 166Q780 70 729.5 23.5Q679 -23 605 -23ZM205 -19Q169 -13 152 -11L135 -10Q349 317 469 508L590 700Q624 695 644 693L664 692Q418 310 311 145ZM202 417Q233 417 250 443.5Q267 470 268 533Q268 590 251 618Q234 646 203 646Q171 646 153.5 615.5Q136 585 136 534Q136 477 153.5 447Q171 417 202 417ZM607 51Q637 51 654.5 78.5Q672 106 672 163Q672 221 655.5 249.5Q639 278 605 278Q575 278 558 249Q541 220 541 169Q541 111 557.5 81Q574 51 607 51Z" glyph-name="percent.cap" horiz-adv-x="809" /><glyph d="M139 -12Q93 -12 67.5 16Q42 44 42 87Q42 131 69.5 157.5Q97 184 139 184Q182 184 209.5 156.5Q237 129 236 89Q236 41 209.5 14.5Q183 -12 139 -12Z" glyph-name="period" horiz-adv-x="279" unicode="." /><glyph d="M162 -12Q116 -12 90.5 16Q65 44 65 87Q65 131 93 157.5Q121 184 162 184Q205 184 232.5 156.5Q260 129 260 89Q259 41 232.5 14.5Q206 -12 162 -12Z" glyph-name="period.captab" horiz-adv-x="325" /><glyph d="M153 -12Q107 -12 81.5 16Q56 44 56 87Q56 131 84 157.5Q112 184 153 184Q196 184 223.5 156.5Q251 129 251 89Q250 41 223.5 14.5Q197 -12 153 -12Z" glyph-name="period.tab" horiz-adv-x="307" /><glyph d="M145 285Q104 285 77.5 312.5Q51 340 51 383Q51 426 77.5 453Q104 480 147 480Q193 480 217.5 451.5Q242 423 242 383Q242 340 217 312.5Q192 285 145 285Z" glyph-name="periodcentered" horiz-adv-x="291" unicode="&#183;" /><glyph d="M145 285Q104 285 77.5 312.5Q51 340 51 383Q51 426 77.5 453Q104 480 147 480Q193 480 217.5 451.5Q242 423 242 383Q242 340 217 312.5Q192 285 145 285Z" glyph-name="periodcentered#1" horiz-adv-x="291" /><glyph d="M199 294Q111 294 70 350Q29 406 29 490Q29 566 74.5 619Q120 672 201 672Q285 672 328.5 620.5Q372 569 372 482Q372 386 321.5 340Q271 294 199 294ZM1023 -15Q941 -15 895 36.5Q849 88 849 168Q849 254 893 308.5Q937 363 1021 363Q1097 363 1144.5 316Q1192 269 1192 174Q1192 91 1149 38Q1106 -15 1023 -15ZM625 -23Q541 -23 498 31Q455 85 455 168Q455 243 499.5 299.5Q544 356 627 356Q711 356 754.5 302Q798 248 798 166Q798 70 748.5 23.5Q699 -23 625 -23ZM231 -19Q194 -13 177 -11L160 -10Q374 317 481 487L589 658Q623 653 643 651L663 650Q417 268 324 124ZM200 368Q231 368 247 396.5Q263 425 264 484Q264 538 248.5 567.5Q233 597 201 597Q170 597 153 566Q136 535 136 484Q136 427 152.5 397.5Q169 368 200 368ZM1021 60Q1052 60 1068 89.5Q1084 119 1084 173Q1084 233 1068 261Q1052 289 1021 289Q990 289 973.5 258.5Q957 228 957 172Q957 122 972.5 91Q988 60 1021 60ZM627 51Q658 51 674 80Q690 109 690 163Q690 220 674.5 249Q659 278 625 278Q596 278 579.5 248Q563 218 563 169Q563 110 579.5 80.5Q596 51 627 51Z" glyph-name="perthousand" horiz-adv-x="1221" unicode="&#8240;" /><glyph d="M605 -23Q521 -23 477 30.5Q433 84 433 168Q433 246 478 301Q523 356 607 356Q692 356 736.5 303Q781 250 781 166Q781 70 730.5 23.5Q680 -23 605 -23ZM201 344Q112 344 70.5 399.5Q29 455 29 541Q29 620 76 671Q123 722 203 722Q287 722 331.5 670.5Q376 619 376 531Q376 431 324.5 387.5Q273 344 201 344ZM1003 -12Q931 -12 880.5 34Q830 80 830 175Q830 260 876 313Q922 366 1003 366Q1086 366 1131 315.5Q1176 265 1176 185Q1176 94 1131.5 41Q1087 -12 1003 -12ZM205 -19Q169 -13 152 -11L135 -10Q349 317 469 508L590 700Q624 695 644 693L664 692Q418 310 311 145ZM202 418Q232 418 249.5 444Q267 470 268 533Q268 590 251 617.5Q234 645 203 645Q172 645 154 616Q136 587 136 534Q136 476 153.5 447Q171 418 202 418ZM1001 62Q1033 62 1051 90.5Q1069 119 1069 179Q1069 232 1051.5 261Q1034 290 1003 290Q974 290 956 261.5Q938 233 938 176Q938 117 955 89.5Q972 62 1001 62ZM607 51Q636 51 654 78Q672 105 672 163Q672 220 656 249Q640 278 606 278Q575 278 558.5 248.5Q542 219 542 169Q542 109 558.5 80Q575 51 607 51Z" glyph-name="perthousand.cap" horiz-adv-x="1205" /><glyph d="M193 101Q194 143 194.5 186Q195 229 195 271Q130 271 86 270H42Q43 321 42 355L41 390Q78 389 117 388.5Q156 388 196 387Q196 457 195 505V553Q255 552 285 551H316Q315 507 314.5 466Q314 425 314 387Q380 387 425 387L471 388Q468 330 468 300V270Q431 271 391 271H314Q314 194 315 148L316 102Q263 102 228 101Z" glyph-name="plus" horiz-adv-x="512" unicode="+" /><glyph d="M263 97Q264 139 264.5 183.5Q265 228 265 271Q196 271 149 270H102Q103 321 102 355L101 390Q139 389 181 388.5Q223 388 266 387Q266 459 265 508V557Q325 556 355 555H386Q385 510 384.5 468Q384 426 384 387Q453 387 502 387L551 388Q547 330 547 300L548 270Q509 271 467 271H384Q384 193 385 145L386 98Q332 98 297 97Z" glyph-name="plus.captab" horiz-adv-x="650" /><glyph d="M245 97Q246 139 246.5 183.5Q247 228 247 271Q178 271 131 270H84Q85 321 84 355L83 390Q121 389 163 388.5Q205 388 248 387Q248 459 247 508V557Q307 556 337 555H368Q367 510 366.5 468Q366 426 366 387Q435 387 484 387L533 388Q529 330 529 300L530 270Q491 271 449 271H366Q366 193 367 145L368 98Q314 98 279 97Z" glyph-name="plus.tab" horiz-adv-x="615" /><glyph d="M395 -213Q399 -104 401 -31.5Q403 41 404 79Q383 31 342 7.5Q301 -16 254 -16Q155 -16 99 57Q43 130 43 252Q43 372 102.5 446.5Q162 521 254 521Q314 521 359 488Q404 455 426 406Q425 455 423 484L422 514Q497 513 522 513L548 514Q546 182 547 -15L548 -212Q473 -211 434 -212ZM294 79Q341 79 372 124Q403 169 403 250Q402 317 375 369Q348 421 295 421Q249 421 222.5 372.5Q196 324 196 253Q196 175 221 127Q246 79 294 79Z" glyph-name="q" horiz-adv-x="603" unicode="q" /><glyph d="M212 213Q212 287 210 333L209 380Q325 373 373 401.5Q421 430 421 491Q421 537 393.5 567Q366 597 314 597Q262 597 233 564Q204 531 194 471L148 478Q103 485 31 492Q49 593 121 653.5Q193 714 312 714Q440 714 513 654.5Q586 595 586 505Q586 404 525.5 352.5Q465 301 366 293Q365 261 365 238V215Q290 216 251 214ZM295 -20Q241 -20 215 7Q189 34 189 75Q189 117 218 142Q247 167 293 167Q342 167 368.5 141Q395 115 395 71Q395 29 367.5 4.5Q340 -20 295 -20Z" glyph-name="question" horiz-adv-x="627" unicode="?" /><glyph d="M414 331Q414 257 415 210L417 164Q301 171 253 142.5Q205 114 205 53Q205 7 233 -23Q261 -53 313 -53Q365 -53 394 -20Q423 13 432 73L478 66Q524 59 596 52Q578 -49 506 -109.5Q434 -170 315 -170Q187 -170 114 -110.5Q41 -51 41 39Q41 140 101.5 191.5Q162 243 261 251Q262 283 261 306V329Q336 328 375 329ZM332 564Q386 564 412 537Q438 510 438 469Q438 427 409 402Q380 377 334 377Q285 377 258.5 403Q232 429 232 473Q232 515 259.5 539.5Q287 564 332 564Z" glyph-name="questiondown" horiz-adv-x="627" unicode="&#191;" /><glyph d="M414 481Q414 407 415 360L417 314Q301 321 253 292.5Q205 264 205 203Q205 157 233 127Q261 97 313 97Q365 97 394 130Q423 163 432 223L478 216Q524 209 596 202Q578 101 506 40.5Q434 -20 315 -20Q187 -20 114 39.5Q41 99 41 189Q41 290 101.5 341.5Q162 393 261 401Q262 433 261 456V479Q336 478 375 479ZM332 714Q386 714 412 687Q438 660 438 619Q438 577 409 552Q380 527 334 527Q285 527 258.5 553Q232 579 232 623Q232 665 259.5 689.5Q287 714 332 714Z" glyph-name="questiondown.cap" horiz-adv-x="627" /><glyph d="M233 424V493Q233 562 229 711L258 709Q287 708 345 708L339 630Q333 553 326 422L299 423Q273 425 233 424ZM62 426 58 501Q55 577 46 698H76Q106 699 160 701L158 631Q156 562 155 431L131 430Q107 430 62 426Z" glyph-name="quotedbl" horiz-adv-x="391" unicode="&quot;" /><glyph d="M254 -90Q282 -67 300.5 -41.5Q319 -16 329 0Q299 7 283.5 30.5Q268 54 268 84Q268 124 292 151Q316 178 358 178Q401 178 426.5 150.5Q452 123 452 74Q452 14 414.5 -39Q377 -92 314 -137ZM89 -153Q61 -129 45 -117L30 -105Q58 -82 76.5 -56Q95 -30 104 -14Q76 -8 59.5 15.5Q43 39 43 66Q43 110 69 137Q95 164 132 164Q175 164 200.5 133.5Q226 103 226 60Q226 0 187.5 -56.5Q149 -113 89 -153Z" glyph-name="quotedblbase" horiz-adv-x="489" unicode="&#8222;" /><glyph d="M132 418Q90 418 63.5 447Q37 476 37 527Q37 578 71 631Q105 684 176 733Q204 711 220 698L237 686Q207 662 188 637.5Q169 613 161 598Q189 589 205.5 564Q222 539 222 510Q222 467 196.5 442.5Q171 418 132 418ZM365 398Q323 398 295.5 426Q268 454 268 505Q268 556 304.5 613.5Q341 671 405 713Q434 690 450 677L466 665Q437 642 418 615.5Q399 589 390 573Q420 564 436 541Q452 518 452 494Q452 451 427 424.5Q402 398 365 398Z" glyph-name="quotedblleft" horiz-adv-x="496" unicode="&#8220;" /><glyph d="M318 411Q290 434 274 447L258 460Q287 483 306 509Q325 535 334 551Q305 557 288 581Q271 605 271 635Q271 673 295.5 700.5Q320 728 361 728Q404 728 430 701Q456 674 456 626Q456 564 418.5 510.5Q381 457 318 411ZM88 398Q60 420 45 433L30 446Q59 469 77 494.5Q95 520 104 536Q76 542 59 565.5Q42 589 42 618Q42 658 67.5 686Q93 714 133 714Q177 714 201 682.5Q225 651 225 613Q225 546 185 491.5Q145 437 88 398Z" glyph-name="quotedblright" horiz-adv-x="493" unicode="&#8221;" /><glyph d="M131 413Q91 413 64 443Q37 473 37 523Q37 581 74 633.5Q111 686 174 728Q202 705 217 692L232 679Q204 657 186 632.5Q168 608 160 592Q191 585 206.5 558.5Q222 532 222 506Q222 465 197 439Q172 413 131 413Z" glyph-name="quoteleft" horiz-adv-x="262" unicode="&#8216;" /><glyph d="M91 403Q63 425 46 437L30 450Q59 474 78 499Q97 524 106 539Q75 547 60.5 572Q46 597 46 625Q46 663 69.5 689.5Q93 716 136 716Q178 716 203.5 686.5Q229 657 229 612Q229 555 190 499Q151 443 91 403Z" glyph-name="quoteright" horiz-adv-x="266" unicode="&#8217;" /><glyph d="M91 -147Q63 -125 46 -112L30 -99Q61 -74 79 -48Q97 -22 104 -7Q76 -2 60 23Q44 48 44 76Q44 113 67.5 140Q91 167 134 167Q176 167 202 137.5Q228 108 228 64Q228 6 189.5 -50.5Q151 -107 91 -147Z" glyph-name="quotesinglbase" horiz-adv-x="265" unicode="&#8218;" /><glyph d="M51 430V493Q51 557 46 706L75 704Q104 702 161 703L156 631Q151 559 145 429L118 430Q92 431 51 430Z" glyph-name="quotesingle" horiz-adv-x="207" unicode="'" /><glyph d="M56 0V153Q56 307 55 491H86Q118 491 177 492L176 456Q175 421 175 374Q200 440 254.5 477.5Q309 515 380 512L379 475Q378 439 377 375Q282 368 243 322.5Q204 277 202 178Q201 121 202 61L204 1H166Q128 1 56 0Z" glyph-name="r" horiz-adv-x="404" unicode="r" /><glyph d="M56 0V153Q56 307 55 491H86Q118 491 177 492L176 456Q175 421 175 374Q200 440 254.5 477.5Q309 515 380 512L379 475Q378 439 377 375Q282 368 243 322.5Q204 277 202 178Q201 121 202 61L204 1H166Q128 1 56 0ZM225 546Q188 573 172 584L156 595Q220 676 252 719L284 763Q327 732 349 716L372 700Q294 622 259 584Z" glyph-name="racute" horiz-adv-x="404" unicode="&#341;" /><glyph d="M56 0V153Q56 307 55 491H86Q118 491 177 492L176 456Q175 421 175 374Q200 440 254.5 477.5Q309 515 380 512L379 475Q378 439 377 375Q282 368 243 322.5Q204 277 202 178Q201 121 202 61L204 1H166Q128 1 56 0ZM123 735Q153 707 184 676.5Q215 646 234 627Q266 654 294.5 682Q323 710 345 736Q365 712 379.5 698Q394 684 403 677Q364 643 330 608Q296 573 277 549Q243 550 224 550H192Q158 582 122.5 618Q87 654 65 678Q87 699 100.5 713Q114 727 123 735Z" glyph-name="rcaron" horiz-adv-x="404" unicode="&#345;" /><glyph d="M56 0V153Q56 307 55 491H86Q118 491 177 492L176 456Q175 421 175 374Q200 440 254.5 477.5Q309 515 380 512L379 475Q378 439 377 375Q282 368 243 322.5Q204 277 202 178Q201 121 202 61L204 1H166Q128 1 56 0ZM195 -119Q195 -159 163 -200Q131 -241 83 -272Q64 -252 55 -243L47 -235Q68 -219 84 -200.5Q100 -182 108 -170Q85 -166 72 -149.5Q59 -133 59 -113Q59 -88 77 -69.5Q95 -51 127 -51Q158 -51 176.5 -69.5Q195 -88 195 -119Z" glyph-name="rcommaaccent" horiz-adv-x="404" unicode="&#343;" /><glyph d="M261 220Q152 220 89.5 287.5Q27 355 27 467Q27 567 87.5 640Q148 713 254 713Q372 713 430 635.5Q488 558 488 462Q488 346 421 283Q354 220 261 220ZM262 258Q333 258 389 308Q445 358 445 457Q445 550 394.5 612.5Q344 675 251 675Q172 675 120.5 616Q69 557 69 464Q69 368 120.5 313Q172 258 262 258ZM294 333 286 359Q278 385 262 428Q255 427 246 427H229V396Q229 375 231 338H213Q196 339 160 338L161 406Q163 474 163 600Q185 604 201.5 605.5Q218 607 240 607Q307 607 337 581Q367 555 367 518Q367 495 354.5 476.5Q342 458 321 446Q325 436 335 410.5Q345 385 364 345L344 342Q325 339 294 333ZM229 473Q262 471 279 481.5Q296 492 296 514Q296 533 283 543.5Q270 554 244 554Q237 554 232 553H228Q228 511 228 492Z" glyph-name="registered" horiz-adv-x="515" unicode="&#174;" /><glyph d="M295 549Q238 549 204.5 580Q171 611 171 660Q171 708 206 738Q241 768 295 768Q359 768 391 735Q423 702 423 660Q423 606 386.5 577.5Q350 549 295 549ZM298 600Q324 600 340.5 616.5Q357 633 357 660Q357 683 342 701.5Q327 720 298 720Q270 720 254 703Q238 686 238 661Q238 637 253.5 618.5Q269 600 298 600Z" glyph-name="ring" horiz-adv-x="596" unicode="&#730;" /><glyph d="M270 -24Q178 -24 108.5 16.5Q39 57 21 153L62 158Q103 163 164 173Q174 125 202 101.5Q230 78 271 77Q307 77 329 91.5Q351 106 351 131Q351 154 328 170.5Q305 187 227 204Q139 223 93 260.5Q47 298 47 368Q47 439 107.5 481.5Q168 524 261 524Q362 524 418 479Q474 434 493 356L455 350Q417 345 363 335Q355 371 330 396.5Q305 422 262 422Q231 422 210.5 408Q190 394 190 369Q190 343 216.5 326.5Q243 310 314 294Q421 270 457.5 231.5Q494 193 494 139Q494 58 428.5 17Q363 -24 270 -24Z" glyph-name="s" horiz-adv-x="528" unicode="s" /><glyph d="M270 -24Q178 -24 108.5 16.5Q39 57 21 153L62 158Q103 163 164 173Q174 125 202 101.5Q230 78 271 77Q307 77 329 91.5Q351 106 351 131Q351 154 328 170.5Q305 187 227 204Q139 223 93 260.5Q47 298 47 368Q47 439 107.5 481.5Q168 524 261 524Q362 524 418 479Q474 434 493 356L455 350Q417 345 363 335Q355 371 330 396.5Q305 422 262 422Q231 422 210.5 408Q190 394 190 369Q190 343 216.5 326.5Q243 310 314 294Q421 270 457.5 231.5Q494 193 494 139Q494 58 428.5 17Q363 -24 270 -24ZM249 546Q212 573 196 584L180 595Q244 676 276 719L308 763Q351 732 373 716L396 700Q318 622 283 584Z" glyph-name="sacute" horiz-adv-x="528" unicode="&#347;" /><glyph d="M270 -24Q178 -24 108.5 16.5Q39 57 21 153L62 158Q103 163 164 173Q174 125 202 101.5Q230 78 271 77Q307 77 329 91.5Q351 106 351 131Q351 154 328 170.5Q305 187 227 204Q139 223 93 260.5Q47 298 47 368Q47 439 107.5 481.5Q168 524 261 524Q362 524 418 479Q474 434 493 356L455 350Q417 345 363 335Q355 371 330 396.5Q305 422 262 422Q231 422 210.5 408Q190 394 190 369Q190 343 216.5 326.5Q243 310 314 294Q421 270 457.5 231.5Q494 193 494 139Q494 58 428.5 17Q363 -24 270 -24ZM147 735Q177 707 208 676.5Q239 646 258 627Q290 654 318.5 682Q347 710 369 736Q389 712 403.5 698Q418 684 427 677Q388 643 354 608Q320 573 301 549Q267 550 248 550H216Q182 582 146.5 618Q111 654 89 678Q111 699 124.5 713Q138 727 147 735Z" glyph-name="scaron" horiz-adv-x="528" unicode="&#353;" /><glyph d="M494 139Q494 64 436 23Q378 -18 294 -23Q293 -30 293 -42V-70Q349 -71 376.5 -93Q404 -115 404 -146Q404 -187 364.5 -212Q325 -237 255 -237Q231 -237 202.5 -230.5Q174 -224 151 -213L155 -196Q160 -179 165 -153Q187 -164 208.5 -169.5Q230 -175 249 -175Q272 -175 287 -167.5Q302 -160 302 -144Q302 -128 280.5 -119Q259 -110 206 -115L211 -90Q217 -65 224 -21Q148 -13 92.5 28Q37 69 21 153L62 158Q103 163 164 173Q174 125 202 101.5Q230 78 271 77Q307 77 329 91.5Q351 106 351 131Q351 154 328 170.5Q305 187 227 204Q139 223 93 260.5Q47 298 47 368Q47 439 107.5 481.5Q168 524 261 524Q362 524 418 479Q474 434 493 356L455 350Q417 345 363 335Q355 371 330 396.5Q305 422 262 422Q231 422 210.5 408Q190 394 190 369Q190 343 216.5 326.5Q243 310 314 294Q421 270 457.5 231.5Q494 193 494 139Z" glyph-name="scedilla" horiz-adv-x="528" unicode="&#351;" /><glyph d="M270 -24Q178 -24 108.5 16.5Q39 57 21 153L62 158Q103 163 164 173Q174 125 202 101.5Q230 78 271 77Q307 77 329 91.5Q351 106 351 131Q351 154 328 170.5Q305 187 227 204Q139 223 93 260.5Q47 298 47 368Q47 439 107.5 481.5Q168 524 261 524Q362 524 418 479Q474 434 493 356L455 350Q417 345 363 335Q355 371 330 396.5Q305 422 262 422Q231 422 210.5 408Q190 394 190 369Q190 343 216.5 326.5Q243 310 314 294Q421 270 457.5 231.5Q494 193 494 139Q494 58 428.5 17Q363 -24 270 -24ZM148 542 134 556Q120 571 90 598L126 635Q162 672 216 728L234 727Q253 727 302 729L334 694Q367 660 427 603L413 589Q399 576 369 544L338 574Q308 605 257 651L227 623Q198 595 148 542Z" glyph-name="scircumflex" horiz-adv-x="528" unicode="&#349;" /><glyph d="M270 -24Q178 -24 108.5 16.5Q39 57 21 153L62 158Q103 163 164 173Q174 125 202 101.5Q230 78 271 77Q307 77 329 91.5Q351 106 351 131Q351 154 328 170.5Q305 187 227 204Q139 223 93 260.5Q47 298 47 368Q47 439 107.5 481.5Q168 524 261 524Q362 524 418 479Q474 434 493 356L455 350Q417 345 363 335Q355 371 330 396.5Q305 422 262 422Q231 422 210.5 408Q190 394 190 369Q190 343 216.5 326.5Q243 310 314 294Q421 270 457.5 231.5Q494 193 494 139Q494 58 428.5 17Q363 -24 270 -24ZM337 -119Q337 -159 305 -200Q273 -241 225 -272Q206 -252 197 -243L189 -235Q210 -219 226 -200.5Q242 -182 250 -170Q227 -166 214 -149.5Q201 -133 201 -113Q201 -88 219 -69.5Q237 -51 269 -51Q300 -51 318.5 -69.5Q337 -88 337 -119Z" glyph-name="scommaaccent" horiz-adv-x="528" unicode="&#537;" /><glyph d="M323 -203Q202 -203 126.5 -155Q51 -107 29 -11Q99 -1 140 8L181 18Q193 -36 228.5 -61Q264 -86 321 -86Q364 -86 395.5 -64.5Q427 -43 427 -6Q427 21 395.5 39Q364 57 260 70Q161 82 102.5 116.5Q44 151 44 231Q44 277 81 314Q118 351 168 363Q114 384 83.5 428Q53 472 53 521Q53 603 122 659Q191 715 312 715Q433 715 499.5 660Q566 605 585 519Q501 511 465 504L429 498Q421 546 394 571.5Q367 597 316 597Q266 597 239 576.5Q212 556 212 522Q212 488 247.5 467.5Q283 447 363 436Q511 415 554.5 374Q598 333 598 278Q598 239 570 199.5Q542 160 499 136Q542 120 565.5 85.5Q589 51 590 0Q590 -93 510.5 -148Q431 -203 323 -203ZM200 263Q200 228 239 206.5Q278 185 404 170Q422 185 433.5 204.5Q445 224 445 243Q445 284 403.5 303.5Q362 323 253 333Q225 317 212.5 299Q200 281 200 263Z" glyph-name="section" horiz-adv-x="635" unicode="&#167;" /><glyph d="M331 -203Q210 -203 134.5 -155Q59 -107 37 -11Q107 -1 148 8L189 18Q201 -36 236.5 -61Q272 -86 329 -86Q372 -86 403.5 -64.5Q435 -43 435 -6Q435 21 403.5 39Q372 57 268 70Q169 82 110.5 116.5Q52 151 52 231Q52 277 89 314Q126 351 176 363Q122 384 91.5 428Q61 472 61 521Q61 603 130 659Q199 715 320 715Q441 715 507.5 660Q574 605 593 519Q509 511 473 504L437 498Q429 546 402 571.5Q375 597 324 597Q274 597 247 576.5Q220 556 220 522Q220 488 255.5 467.5Q291 447 371 436Q519 415 562.5 374Q606 333 606 278Q606 239 578 199.5Q550 160 507 136Q550 120 573.5 85.5Q597 51 598 0Q598 -93 518.5 -148Q439 -203 331 -203ZM208 263Q208 228 247 206.5Q286 185 412 170Q430 185 441.5 204.5Q453 224 453 243Q453 284 411.5 303.5Q370 323 261 333Q233 317 220.5 299Q208 281 208 263Z" glyph-name="section.captab" horiz-adv-x="650" /><glyph d="M313 -203Q199 -203 125.5 -154Q52 -105 30 -11Q99 -1 140 8L182 18Q194 -35 225.5 -60.5Q257 -86 311 -86Q350 -86 377.5 -65.5Q405 -45 405 -11Q405 17 378 35.5Q351 54 248 69Q141 85 93 121Q45 157 45 228Q45 275 81 313Q117 351 169 363Q115 384 84.5 428Q54 472 54 521Q54 601 118.5 658Q183 715 302 715Q417 715 481 660.5Q545 606 564 519Q480 511 444 504L408 498Q401 544 375 570.5Q349 597 306 597Q261 597 237 578Q213 559 213 525Q213 490 245.5 469Q278 448 361 435Q496 415 536.5 375.5Q577 336 577 282Q577 239 550 199.5Q523 160 478 136Q521 120 544 85.5Q567 51 568 0Q568 -93 492.5 -148Q417 -203 313 -203ZM201 261Q201 229 233.5 206.5Q266 184 382 170Q401 186 412 206Q423 226 423 243Q423 283 389 303Q355 323 253 333Q225 317 213 298.5Q201 280 201 261Z" glyph-name="section.tab" horiz-adv-x="615" /><glyph d="M101 -167Q73 -142 54 -128L35 -115Q68 -85 88 -53.5Q108 -22 116 -5Q88 -1 68.5 22.5Q49 46 49 80Q49 121 73 151Q97 181 143 181Q189 181 216.5 149Q244 117 244 69Q244 5 199.5 -60Q155 -125 101 -167ZM143 286Q104 286 77 312Q50 338 50 385Q50 428 76.5 454Q103 480 145 480Q186 480 212 453Q238 426 238 385Q238 339 211.5 312.5Q185 286 143 286Z" glyph-name="semicolon" horiz-adv-x="293" unicode=";" /><glyph d="M117 -167Q90 -142 71 -128L52 -115Q85 -85 105 -53.5Q125 -22 132 -5Q104 -1 84.5 22.5Q65 46 65 80Q65 121 89.5 151Q114 181 160 181Q206 181 233.5 149Q261 117 261 69Q261 5 216 -60Q171 -125 117 -167ZM159 286Q120 286 93 312Q66 338 66 385Q66 428 92.5 454Q119 480 162 480Q202 480 228.5 453Q255 426 255 385Q255 339 228 312.5Q201 286 159 286Z" glyph-name="semicolon.captab" horiz-adv-x="325" /><glyph d="M108 -167Q81 -142 62 -128L43 -115Q76 -85 96 -53.5Q116 -22 123 -5Q95 -1 75.5 22.5Q56 46 56 80Q56 121 80.5 151Q105 181 151 181Q197 181 224.5 149Q252 117 252 69Q252 5 207 -60Q162 -125 108 -167ZM150 286Q111 286 84 312Q57 338 57 385Q57 428 83.5 454Q110 480 153 480Q193 480 219.5 453Q246 426 246 385Q246 339 219 312.5Q192 286 150 286Z" glyph-name="semicolon.tab" horiz-adv-x="307" /><glyph d="M349 367 353 456Q357 545 358 673L397 672Q437 672 488 675L508 604Q528 534 554 448Q564 489 581.5 558.5Q599 628 615 703L657 700Q699 698 745 697L748 596Q752 495 762 350L736 349Q710 348 679 346L677 435Q675 524 670 639Q659 601 638 529Q617 457 601 385H568Q535 386 509 387L486 457Q464 528 432 623Q431 584 431 511Q431 438 435 366L411 367Q387 368 349 367ZM178 349Q124 349 79 375.5Q34 402 29 459L55 462Q81 465 118 469Q122 438 138.5 424.5Q155 411 179 411Q203 411 215 422Q227 433 227 450Q227 460 216 471Q205 482 154 494Q99 507 72 532.5Q45 558 45 601Q45 645 80.5 674Q116 703 173 703Q238 703 272 675.5Q306 648 316 597L291 594Q266 592 229 587Q226 610 214.5 625.5Q203 641 175 641Q155 641 142 631Q129 621 129 603Q129 586 147 574.5Q165 563 201 555Q268 539 290.5 514.5Q313 490 313 456Q313 408 273.5 378.5Q234 349 178 349Z" glyph-name="servicemark" horiz-adv-x="808" unicode="&#8480;" /><glyph d="M156 -8Q151 167 207.5 302.5Q264 438 365 531Q258 531 138 528L19 526Q21 589 20 624V659Q240 660 378 662L517 665Q517 586 518 552L519 518Q411 417 362.5 294.5Q314 172 318 -12Q239 -10 197 -9Z" glyph-name="seven" horiz-adv-x="536" unicode="7" /><glyph d="M157 -8Q152 172 214 316.5Q276 461 386 560Q274 560 151 557L29 555Q31 621 30 657V694Q262 695 402 697L542 700Q542 617 543 581L545 546Q429 439 376 302.5Q323 166 326 -13Q243 -10 200 -9Z" glyph-name="seven.cap" horiz-adv-x="573" /><glyph d="M196 -8Q191 172 257.5 316.5Q324 461 435 560Q322 560 190 557L58 555Q60 621 59 657V694Q291 695 441 697L591 700Q591 617 592 581L594 546Q478 439 420 302.5Q362 166 365 -13Q282 -10 239 -9Z" glyph-name="seven.captab" horiz-adv-x="650" /><glyph d="M98 -10Q97 92 128.5 174Q160 256 226 313Q145 314 81 312L18 311Q19 350 19 376V402Q155 403 249 404L343 405Q342 356 343 334L344 313Q273 249 241 170Q209 91 210 -13Q161 -11 129 -10Z" glyph-name="seven.denominator" horiz-adv-x="362" /><glyph d="M98 302Q97 404 128.5 486Q160 568 226 625Q145 626 81 624L18 623Q19 662 19 688V714Q155 715 249 716L343 717Q342 668 343 646L344 625Q273 561 241 482Q209 403 210 299Q161 301 129 301Z" glyph-name="seven.numerator" horiz-adv-x="362" /><glyph d="M193 -8Q188 168 248 303Q308 438 411 531Q303 531 178 528L54 526Q56 589 55 624V659Q276 660 419 662L563 665Q562 586 563 552L565 518Q456 417 403.5 294.5Q351 172 355 -12Q277 -10 235 -9Z" glyph-name="seven.tab" horiz-adv-x="615" /><glyph d="M329 -25Q192 -25 116.5 63.5Q41 152 41 320Q41 484 116 579.5Q191 675 334 675Q438 675 501.5 628Q565 581 582 486Q505 480 462 474L420 468Q411 515 390 537.5Q369 560 331 560Q270 560 235.5 502Q201 444 201 328V324Q234 367 285 390.5Q336 414 392 414Q502 414 553.5 354Q605 294 605 216Q605 94 525 34.5Q445 -25 329 -25ZM337 91Q387 91 415 123.5Q443 156 443 208Q444 255 418 284Q392 313 344 313Q305 313 269.5 288.5Q234 264 209 227Q223 155 257 123Q291 91 337 91Z" glyph-name="six" horiz-adv-x="634" unicode="6" /><glyph d="M348 -26Q202 -26 124 71Q46 168 48 337Q48 511 130 611Q212 711 356 711Q478 711 540 656Q602 601 621 518Q539 511 495 504L451 497Q441 541 417 567Q393 593 352 593Q288 593 252 528.5Q216 464 215 352Q249 390 301 413Q353 436 413 436Q529 436 584.5 375Q640 314 640 230Q640 98 553.5 36Q467 -26 348 -26ZM361 91Q412 91 441.5 126Q471 161 471 218Q471 264 446 298.5Q421 333 366 333Q326 333 289 312Q252 291 221 254Q234 169 270.5 130Q307 91 361 91Z" glyph-name="six.cap" horiz-adv-x="676" /><glyph d="M334 -26Q197 -26 120 68.5Q43 163 44 337Q44 510 122 610.5Q200 711 341 711Q457 711 516.5 657.5Q576 604 595 518Q513 511 469 504L425 497Q415 543 393.5 568Q372 593 335 593Q275 593 242 530Q209 467 209 348Q243 390 292.5 413Q342 436 399 436Q502 436 558 379Q614 322 614 230Q614 102 532 38Q450 -26 334 -26ZM346 91Q395 91 421.5 125.5Q448 160 448 218Q448 265 425 299Q402 333 351 333Q316 333 281.5 315Q247 297 214 257Q225 170 259.5 130.5Q294 91 346 91Z" glyph-name="six.captab" horiz-adv-x="650" /><glyph d="M226 -21Q135 -21 83.5 35Q32 91 32 193Q32 296 84 354Q136 412 229 412Q302 412 344.5 379.5Q387 347 399 295Q352 291 318 286L285 282Q280 307 266 322.5Q252 338 227 338Q189 338 167 303.5Q145 269 144 208Q166 230 197 242Q228 254 265 254Q333 253 371.5 218Q410 183 410 126Q410 59 356.5 19Q303 -21 226 -21ZM229 55Q256 55 276.5 71.5Q297 88 297 122Q297 149 281 168.5Q265 188 231 188Q209 188 186.5 175.5Q164 163 148 140Q156 95 177.5 75Q199 55 229 55Z" glyph-name="six.denominator" horiz-adv-x="439" /><glyph d="M226 291Q135 291 83.5 347Q32 403 32 505Q32 608 84 666Q136 724 229 724Q302 724 344.5 691.5Q387 659 399 607Q352 603 318 598L285 594Q280 619 266 634.5Q252 650 227 650Q189 650 167 615.5Q145 581 144 520Q166 542 197 554Q228 566 265 566Q333 565 371.5 530Q410 495 410 438Q410 371 356.5 331Q303 291 226 291ZM229 367Q256 367 276.5 383.5Q297 400 297 434Q297 461 281 480.5Q265 500 231 500Q209 500 186.5 487.5Q164 475 148 452Q156 407 177.5 387Q199 367 229 367Z" glyph-name="six.numerator" horiz-adv-x="439" /><glyph d="M566 486Q489 480 446 474L404 468Q396 511 376 535.5Q356 560 319 560Q261 560 229.5 502.5Q198 445 197 332Q228 369 273 391.5Q318 414 373 414Q483 414 536 354Q589 294 589 216Q589 97 510.5 36Q432 -25 319 -25Q190 -25 113.5 63Q37 151 37 320Q37 483 110.5 579Q184 675 324 675Q426 675 487.5 627Q549 579 566 486ZM327 91Q374 91 401 124Q428 157 428 208Q428 253 405 283Q382 313 336 313Q296 313 261.5 291Q227 269 203 235Q216 160 248.5 125.5Q281 91 327 91Z" glyph-name="six.tab" horiz-adv-x="615" /><glyph d="M20 -117Q132 217 212 476L293 736Q356 735 394 735L432 736Q281 279 220 81L159 -117Q99 -116 59 -116Z" glyph-name="slash" horiz-adv-x="452" unicode="/" /><glyph d="M10 -50Q122 284 192 510L263 736Q326 735 364 735L402 736Q251 279 200 114L149 -50Q90 -49 50 -49Z" glyph-name="slash.cap" horiz-adv-x="412" /><glyph glyph-name="space" horiz-adv-x="260" unicode=" " /><glyph glyph-name="space.captab" horiz-adv-x="325" /><glyph glyph-name="space.tab" horiz-adv-x="307" /><glyph d="M48 246Q49 291 47 318L46 346Q59 345 73 345H100Q87 375 75.5 407.5Q64 440 64 478Q64 571 134.5 624.5Q205 678 318 678Q442 678 506 615Q570 552 581 454L539 447Q498 441 429 426Q425 483 399.5 520Q374 557 322 557Q273 557 247 529.5Q221 502 221 460Q221 429 232.5 400.5Q244 372 257 344Q357 344 412 345L467 346Q466 300 467 270L468 241L281 244Q279 208 264 177.5Q249 147 224 125Q255 124 337.5 123.5Q420 123 573 126L570 92Q568 59 569 -7L439 -3Q310 0 49 1L50 38Q52 75 51 116Q85 135 105.5 167.5Q126 200 127 246Z" glyph-name="sterling" horiz-adv-x="615" unicode="&#163;" /><glyph d="M50 263Q51 309 49 338L48 368Q61 367 74 367H101Q88 397 77 430Q66 463 66 501Q66 600 136.5 657.5Q207 715 329 715Q461 715 528.5 645Q596 575 606 470L558 463Q511 457 441 444Q437 519 411.5 555Q386 591 332 591Q285 591 258 561Q231 531 231 481Q231 446 241 418Q251 390 262 365Q366 365 425 366L484 367Q483 319 484 288L485 258Q433 259 384 260Q335 261 292 262V260Q292 223 277 188Q262 153 229 128H344Q430 128 592 131L590 96Q588 62 589 -7L454 -3Q320 0 51 1L52 39Q54 78 53 120Q88 142 109.5 176Q131 210 131 258V263Z" glyph-name="sterling.cap" horiz-adv-x="642" /><glyph d="M60 263Q61 309 59 338L58 368Q71 367 84 367H111Q98 397 87 430Q76 463 76 501Q76 597 144 656Q212 715 333 715Q461 715 528 645Q595 575 604 470L556 463Q509 457 439 444Q435 516 412.5 553.5Q390 591 337 591Q292 591 266.5 561Q241 531 241 481Q241 446 251 418Q261 390 272 365Q371 365 426 366L482 367Q481 319 482 288L483 258Q434 259 388 260Q342 261 302 262V260Q302 223 287 188Q272 153 239 128H348Q430 128 590 131L588 96Q586 62 587 -7L459 -3Q331 0 62 1L63 39Q64 78 63 120Q99 142 120.5 176Q142 210 142 258V263Z" glyph-name="sterling.captab" horiz-adv-x="650" /><glyph d="M53 246Q54 291 53 318L52 346Q66 345 79 345H106Q93 375 81 407.5Q69 440 69 478Q69 571 139 624.5Q209 678 318 678Q437 678 500 615Q563 552 575 454L533 447Q492 441 423 426Q418 487 393.5 522Q369 557 322 557Q276 557 251.5 528Q227 499 227 460Q227 429 238.5 400.5Q250 372 263 344Q359 344 410 345L461 346Q460 300 461 270L462 241L286 244Q284 209 268 177.5Q252 146 229 125Q257 124 336 123.5Q415 123 566 126L564 92Q562 59 563 -7L439 -3Q316 0 55 1L56 38Q57 75 57 116Q93 137 112.5 167Q132 197 133 246Z" glyph-name="sterling.tab" horiz-adv-x="615" /><glyph d="M407 21Q370 10 335.5 3Q301 -4 270 -4Q192 -4 144 40Q96 84 95 186Q94 237 93.5 290Q93 343 93 393H20Q21 459 20 484L19 509L94 507Q95 567 95 604L96 642Q158 641 199 641H240L239 603Q238 565 237 506Q312 505 355 505L399 506Q398 437 398 414V391Q355 392 314 392.5Q273 393 236 393Q236 347 237 299.5Q238 252 239 207Q240 166 256.5 144Q273 122 310 122Q326 122 347 126Q368 130 394 138Q399 80 403 50Z" glyph-name="t" horiz-adv-x="442" unicode="t" /><glyph d="M443 720Q443 680 411 639Q379 598 331 567Q312 587 303 596L295 604Q316 620 332 638.5Q348 657 356 669Q333 673 320 689.5Q307 706 307 726Q307 751 325 769.5Q343 788 375 788Q406 788 424.5 769.5Q443 751 443 720ZM407 21Q370 10 335.5 3Q301 -4 270 -4Q192 -4 144 40Q96 84 95 186Q94 237 93.5 290Q93 343 93 393H20Q21 459 20 484L19 509L94 507Q95 567 95 604L96 642Q158 641 199 641H240L239 603Q238 565 237 506Q312 505 355 505L399 506Q398 437 398 414V391Q355 392 314 392.5Q273 393 236 393Q236 347 237 299.5Q238 252 239 207Q240 166 256.5 144Q273 122 310 122Q326 122 347 126Q368 130 394 138Q399 80 403 50Z" glyph-name="tcaron" horiz-adv-x="442" unicode="&#357;" /><glyph d="M407 21Q370 10 335.5 3Q301 -4 270 -4Q192 -4 144 40Q96 84 95 186Q94 237 93.5 290Q93 343 93 393H20Q21 459 20 484L19 509L94 507Q95 567 95 604L96 642Q158 641 199 641H240L239 603Q238 565 237 506Q312 505 355 505L399 506Q398 437 398 414V391Q355 392 314 392.5Q273 393 236 393Q236 347 237 299.5Q238 252 239 207Q240 166 256.5 144Q273 122 310 122Q326 122 347 126Q368 130 394 138Q399 80 403 50ZM323 -119Q323 -159 291 -200Q259 -241 211 -272Q192 -252 183 -243L175 -235Q196 -219 212 -200.5Q228 -182 236 -170Q213 -166 200 -149.5Q187 -133 187 -113Q187 -88 205 -69.5Q223 -51 255 -51Q286 -51 304.5 -69.5Q323 -88 323 -119Z" glyph-name="tcommaaccent" horiz-adv-x="442" unicode="&#355;" /><glyph d="M55 -210Q57 72 56 378L55 685Q85 684 143 685L202 686Q201 631 199.5 546Q198 461 197 409Q222 461 265 490Q308 519 357 519Q456 519 509 441Q562 363 562 251Q563 122 502 54Q441 -14 348 -14Q304 -14 264 6.5Q224 27 199 69Q202 -74 205 -141L209 -209Q163 -208 109 -209ZM308 79Q354 79 381.5 120.5Q409 162 409 251Q409 326 383 373.5Q357 421 308 421Q262 421 232.5 373.5Q203 326 203 251Q203 171 231 125Q259 79 308 79Z" glyph-name="thorn" horiz-adv-x="604" unicode="&#254;" /><glyph d="M311 -24Q192 -24 113.5 29Q35 82 23 197L66 201Q109 206 187 219Q189 150 223 120Q257 90 314 90Q363 90 394 115.5Q425 141 425 187Q425 211 410 233Q395 255 359 266Q332 274 297 277Q262 280 215 277L214 307Q214 338 212 382Q261 379 298.5 382Q336 385 365 396Q390 405 405 425.5Q420 446 420 474Q420 520 389.5 545Q359 570 310 570Q259 570 230.5 539Q202 508 196 448Q124 461 81 468L38 475Q57 582 129.5 630.5Q202 679 314 679Q430 679 502 624Q574 569 574 488Q574 429 537.5 389Q501 349 432 336Q507 321 545.5 278Q584 235 584 175Q584 84 507.5 30Q431 -24 311 -24Z" glyph-name="three" horiz-adv-x="614" unicode="3" /><glyph d="M323 -25Q199 -25 116.5 33Q34 91 26 209L71 212Q116 215 196 224Q203 157 236 126Q269 95 325 95Q374 95 409.5 120.5Q445 146 445 196Q445 230 427.5 252Q410 274 376 284Q348 292 310.5 294Q273 296 224 292L223 323Q222 355 220 401Q272 398 314.5 401Q357 404 384 414Q412 425 426 447.5Q440 470 440 499Q440 541 411 570.5Q382 600 325 600Q274 600 244 569Q214 538 202 475Q129 489 84 495L39 502Q56 603 132.5 659Q209 715 328 715Q456 715 528.5 655Q601 595 601 511Q601 457 564 412.5Q527 368 462 352Q536 337 574 289.5Q612 242 612 187Q612 83 526.5 29Q441 -25 323 -25Z" glyph-name="three.cap" horiz-adv-x="643" /><glyph d="M326 -25Q204 -25 123.5 33Q43 91 35 209L80 212Q125 215 205 224Q212 159 243 127Q274 95 328 95Q375 95 408.5 120.5Q442 146 442 196Q442 230 424.5 252Q407 274 373 284Q345 292 313.5 294Q282 296 233 292L232 323Q231 355 229 401Q281 398 317.5 401Q354 404 381 414Q407 424 422 447Q437 470 437 499Q437 542 409.5 571Q382 600 328 600Q278 600 250 567.5Q222 535 211 475Q138 489 93 495L48 502Q65 602 138.5 658.5Q212 715 331 715Q457 715 527.5 655Q598 595 598 511Q598 456 560 412Q522 368 458 352Q533 337 571 288.5Q609 240 609 187Q609 81 526.5 28Q444 -25 326 -25Z" glyph-name="three.captab" horiz-adv-x="650" /><glyph d="M209 -21Q121 -21 76 15Q31 51 22 115L55 117Q88 120 137 127Q141 90 159.5 73Q178 56 209 56Q241 56 260 69.5Q279 83 279 108Q279 127 268.5 140Q258 153 241 158Q222 164 193 165Q164 166 141 164L140 182Q140 200 139 231Q170 229 198 230.5Q226 232 242 239Q258 245 267 256.5Q276 268 276 285Q276 310 259 325Q242 340 211 340Q183 340 166 323.5Q149 307 145 273Q99 279 65 282L32 286Q39 346 85 380Q131 414 212 414Q291 414 338 381Q385 348 385 296Q385 260 359.5 233.5Q334 207 294 200Q341 193 366 165Q391 137 391 103Q391 46 340 12.5Q289 -21 209 -21Z" glyph-name="three.denominator" horiz-adv-x="422" /><glyph d="M209 291Q121 291 76 327Q31 363 22 427L55 429Q88 432 137 439Q141 402 159.5 385Q178 368 209 368Q241 368 260 381.5Q279 395 279 420Q279 439 268.5 452Q258 465 241 470Q222 476 193 477Q164 478 141 476L140 494Q140 512 139 543Q170 541 198 542.5Q226 544 242 551Q258 557 267 568.5Q276 580 276 597Q276 622 259 637Q242 652 211 652Q183 652 166 635.5Q149 619 145 585Q99 591 65 594L32 598Q39 658 85 692Q131 726 212 726Q291 726 338 693Q385 660 385 608Q385 572 359.5 545.5Q334 519 294 512Q341 505 366 477Q391 449 391 415Q391 358 340 324.5Q289 291 209 291Z" glyph-name="three.numerator" horiz-adv-x="422" /><glyph d="M313 -24Q201 -24 123.5 30Q46 84 34 197L77 201Q120 206 198 219Q200 152 230.5 121Q261 90 316 90Q359 90 388.5 115.5Q418 141 418 187Q418 212 403 235Q388 258 355 267Q328 274 296 277Q264 280 217 277L216 307Q215 338 214 382Q263 379 296.5 381.5Q330 384 358 394Q384 402 398 423Q412 444 412 474Q412 520 385 545Q358 570 312 570Q266 570 239 540.5Q212 511 207 448Q135 461 92 468L49 475Q68 577 138.5 628Q209 679 316 679Q423 679 495 624.5Q567 570 567 488Q567 429 528.5 389Q490 349 425 336Q501 320 538.5 275Q576 230 576 175Q576 80 499.5 28Q423 -24 313 -24Z" glyph-name="three.tab" horiz-adv-x="615" /><glyph d="M209 291Q121 291 76 327Q31 363 22 427L55 429Q88 432 137 439Q141 402 159.5 385Q178 368 209 368Q241 368 260 381.5Q279 395 279 420Q279 439 268.5 452Q258 465 241 470Q222 476 193 477Q164 478 141 476L140 494Q140 512 139 543Q170 541 198 542.5Q226 544 242 551Q258 557 267 568.5Q276 580 276 597Q276 622 259 637Q242 652 211 652Q183 652 166 635.5Q149 619 145 585Q99 591 65 594L32 598Q39 658 85 692Q131 726 212 726Q291 726 338 693Q385 660 385 608Q385 572 359.5 545.5Q334 519 294 512Q341 505 366 477Q391 449 391 415Q391 358 340 324.5Q289 291 209 291ZM308 -19Q271 -13 254 -11L237 -10Q451 317 571 508L692 700Q726 695 746 693L766 692Q520 310 414 145ZM786 -6V34Q786 54 787 73Q737 72 680 71.5Q623 71 557 70L556 88Q556 107 555 148Q638 267 685 338L733 409Q807 405 848 405H889Q888 324 888 261V150L930 151V73H888Q888 38 888 16L889 -5Q842 -6 814 -6ZM788 149Q789 227 789 274V341Q738 267 704.5 218Q671 169 658 149Z" glyph-name="threequarters" horiz-adv-x="956" unicode="&#190;" /><glyph d="M209 291Q121 291 76 327Q31 363 22 427L55 429Q88 432 137 439Q141 402 159.5 385Q178 368 209 368Q241 368 260 381.5Q279 395 279 420Q279 439 268.5 452Q258 465 241 470Q222 476 193 477Q164 478 141 476L140 494Q140 512 139 543Q170 541 198 542.5Q226 544 242 551Q258 557 267 568.5Q276 580 276 597Q276 622 259 637Q242 652 211 652Q183 652 166 635.5Q149 619 145 585Q99 591 65 594L32 598Q39 658 85 692Q131 726 212 726Q291 726 338 693Q385 660 385 608Q385 572 359.5 545.5Q334 519 294 512Q341 505 366 477Q391 449 391 415Q391 358 340 324.5Q289 291 209 291Z" glyph-name="threesuperior" horiz-adv-x="422" unicode="&#179;" /><glyph d="M195 563 175 564Q156 566 117 566Q115 632 142.5 674Q170 716 223 716Q270 716 300.5 681.5Q331 647 360 647Q376 647 385 661Q394 675 395 709L413 708Q431 708 471 709Q475 632 449 596Q423 560 374 560Q323 560 291.5 593Q260 626 232 626Q215 626 205 609.5Q195 593 195 563Z" glyph-name="tilde" horiz-adv-x="596" unicode="&#732;" /><glyph d="M307 368 311 455Q315 543 317 671L356 670Q396 670 447 673L466 604Q485 536 512 451Q523 491 540.5 558.5Q558 626 574 701L616 698Q658 696 704 695L707 596Q710 498 720 353L694 352Q668 351 637 349L635 436Q634 523 629 639Q618 601 597.5 529.5Q577 458 560 387H526Q493 388 467 389L445 458Q423 527 390 620V509Q390 438 393 367L369 368Q345 369 307 368ZM199 619Q199 575 200 506Q201 437 203 350H178Q154 351 117 350V428Q118 506 117 619H71Q48 619 24 618V636Q25 655 25 692H100Q176 692 286 695L285 673Q284 652 285 618H260Q235 619 199 619Z" glyph-name="trademark" horiz-adv-x="766" unicode="&#8482;" /><glyph d="M547 -2Q307 3 175 4L43 5Q40 58 39 104V150Q226 234 312 309.5Q398 385 398 467Q398 508 373 535.5Q348 563 306 563Q250 563 220.5 522.5Q191 482 189 395L146 401Q103 407 34 413Q44 549 116.5 612.5Q189 676 308 676Q421 676 490 620.5Q559 565 559 472Q559 369 474 279.5Q389 190 207 125Q351 124 449 128L547 132Q546 69 546 33Z" glyph-name="two" horiz-adv-x="590" unicode="2" /><glyph d="M566 -2Q315 3 178 4L42 5Q39 60 38 108L37 156Q206 226 307.5 308.5Q409 391 409 486Q409 535 383 564.5Q357 594 308 594Q259 594 230 555Q201 516 199 426L155 432Q111 439 39 445Q44 570 113.5 641Q183 712 316 712Q447 712 512 649.5Q577 587 577 491Q577 380 482.5 286Q388 192 241 132Q389 131 477 135L565 139Q564 73 565 35Z" glyph-name="two.cap" horiz-adv-x="612" /><glyph d="M581 -2Q330 3 199 4L69 5Q66 60 65 108V156Q234 226 329 309.5Q424 393 424 486Q424 535 399 564.5Q374 594 326 594Q280 594 254 555Q228 516 226 426L182 432Q138 439 66 445Q71 568 137 640Q203 712 334 712Q459 712 525.5 649.5Q592 587 592 491Q592 382 504.5 287Q417 192 271 132Q417 131 499 135L581 139Q580 73 580 35Z" glyph-name="two.captab" horiz-adv-x="650" /><glyph d="M363 -7Q214 -4 125 -3H37Q36 30 35 62L34 94Q126 128 192.5 177Q259 226 259 279Q259 307 244.5 322.5Q230 338 205 338Q172 338 156.5 315.5Q141 293 140 249L111 253Q82 257 34 261Q37 331 81.5 372Q126 413 207 413Q286 413 327.5 377.5Q369 342 369 285Q369 219 309.5 163Q250 107 163 75Q250 75 306 78L363 81Q362 41 362 17Z" glyph-name="two.denominator" horiz-adv-x="400" /><glyph d="M363 305Q214 308 125 308L37 309Q36 342 35 374L34 406Q126 440 192.5 489Q259 538 259 591Q259 619 244.5 634.5Q230 650 205 650Q172 650 156.5 627.5Q141 605 140 561L111 565Q82 569 34 573Q37 643 81.5 684Q126 725 207 725Q287 725 328 689.5Q369 654 369 597Q369 531 309.5 475Q250 419 163 387Q250 387 306 390L363 393Q362 353 362 329Z" glyph-name="two.numerator" horiz-adv-x="400" /><glyph d="M555 -2Q315 3 190 4L65 5Q62 58 61 104L60 150Q247 234 326.5 310.5Q406 387 406 467Q406 508 383.5 535.5Q361 563 320 563Q268 563 240 522.5Q212 482 210 395L167 401Q125 407 56 413Q66 553 138.5 614.5Q211 676 322 676Q429 676 497.5 620.5Q566 565 566 472Q566 371 486.5 280Q407 189 229 125Q372 124 463 128L554 132Q553 69 554 33Z" glyph-name="two.tab" horiz-adv-x="615" /><glyph d="M363 305Q214 308 125 308L37 309Q36 342 35 374L34 406Q126 440 192.5 489Q259 538 259 591Q259 619 244.5 634.5Q230 650 205 650Q172 650 156.5 627.5Q141 605 140 561L111 565Q82 569 34 573Q37 643 81.5 684Q126 725 207 725Q286 725 327.5 689.5Q369 654 369 597Q369 531 309.5 475Q250 419 163 387Q250 387 306 390L363 393Q362 353 362 329Z" glyph-name="twosuperior" horiz-adv-x="400" unicode="&#178;" /><glyph d="M227 -3Q140 -3 95.5 54.5Q51 112 51 233Q51 310 50 401V493L87 491Q124 490 197 489L195 414Q193 340 193 224Q193 171 211 143.5Q229 116 271 116Q311 116 336.5 153.5Q362 191 364 257Q368 352 365 436L363 520L395 519Q427 518 509 518L508 370Q508 223 510 -11L478 -10Q447 -9 387 -10L388 22Q389 54 389 103Q367 53 324.5 25Q282 -3 227 -3Z" glyph-name="u" horiz-adv-x="565" unicode="u" /><glyph d="M227 -3Q140 -3 95.5 54.5Q51 112 51 233Q51 310 50 401V493L87 491Q124 490 197 489L195 414Q193 340 193 224Q193 171 211 143.5Q229 116 271 116Q311 116 336.5 153.5Q362 191 364 257Q368 352 365 436L363 520L395 519Q427 518 509 518L508 370Q508 223 510 -11L478 -10Q447 -9 387 -10L388 22Q389 54 389 103Q367 53 324.5 25Q282 -3 227 -3ZM272 546Q235 573 219 584L203 595Q267 676 299 719L331 763Q374 732 396 716L419 700Q341 622 306 584Z" glyph-name="uacute" horiz-adv-x="565" unicode="&#250;" /><glyph d="M227 -3Q140 -3 95.5 54.5Q51 112 51 233Q51 310 50 401V493L87 491Q124 490 197 489L195 414Q193 340 193 224Q193 171 211 143.5Q229 116 271 116Q311 116 336.5 153.5Q362 191 364 257Q368 352 365 436L363 520L395 519Q427 518 509 518L508 370Q508 223 510 -11L478 -10Q447 -9 387 -10L388 22Q389 54 389 103Q367 53 324.5 25Q282 -3 227 -3ZM282 559Q203 559 161 598.5Q119 638 121 704H146Q172 704 215 708Q214 671 232 652Q250 633 283 633Q313 633 331 654Q349 675 346 718H369Q393 718 441 719Q446 639 401.5 599Q357 559 282 559Z" glyph-name="ubreve" horiz-adv-x="565" unicode="&#365;" /><glyph d="M227 -3Q140 -3 95.5 54.5Q51 112 51 233Q51 310 50 401V493L87 491Q124 490 197 489L195 414Q193 340 193 224Q193 171 211 143.5Q229 116 271 116Q311 116 336.5 153.5Q362 191 364 257Q368 352 365 436L363 520L395 519Q427 518 509 518L508 370Q508 223 510 -11L478 -10Q447 -9 387 -10L388 22Q389 54 389 103Q367 53 324.5 25Q282 -3 227 -3ZM171 542 157 556Q143 571 113 598L149 635Q185 672 239 728L257 727Q276 727 325 729L357 694Q390 660 450 603L436 589Q422 576 392 544L361 574Q331 605 280 651L250 623Q221 595 171 542Z" glyph-name="ucircumflex" horiz-adv-x="565" unicode="&#251;" /><glyph d="M227 -3Q140 -3 95.5 54.5Q51 112 51 233Q51 310 50 401V493L87 491Q124 490 197 489L195 414Q193 340 193 224Q193 171 211 143.5Q229 116 271 116Q311 116 336.5 153.5Q362 191 364 257Q368 352 365 436L363 520L395 519Q427 518 509 518L508 370Q508 223 510 -11L478 -10Q447 -9 387 -10L388 22Q389 54 389 103Q367 53 324.5 25Q282 -3 227 -3ZM384 569Q354 569 335 588Q316 607 316 639Q316 665 334.5 683.5Q353 702 386 702Q417 702 434.5 683Q452 664 452 636Q452 604 432.5 586.5Q413 569 384 569ZM180 568Q146 568 128 588Q110 608 110 636Q110 666 131 683.5Q152 701 181 701Q215 701 233.5 681.5Q252 662 252 635Q252 600 230.5 584Q209 568 180 568Z" glyph-name="udieresis" horiz-adv-x="565" unicode="&#252;" /><glyph d="M227 -3Q140 -3 95.5 54.5Q51 112 51 233Q51 310 50 401V493L87 491Q124 490 197 489L195 414Q193 340 193 224Q193 171 211 143.5Q229 116 271 116Q311 116 336.5 153.5Q362 191 364 257Q368 352 365 436L363 520L395 519Q427 518 509 518L508 370Q508 223 510 -11L478 -10Q447 -9 387 -10L388 22Q389 54 389 103Q367 53 324.5 25Q282 -3 227 -3ZM290 545 255 582Q221 620 144 698L165 713Q187 729 230 763L262 719Q295 676 359 595L341 582Q324 570 290 545Z" glyph-name="ugrave" horiz-adv-x="565" unicode="&#249;" /><glyph d="M227 -3Q140 -3 95.5 54.5Q51 112 51 233Q51 310 50 401V493L87 491Q124 490 197 489L195 414Q193 340 193 224Q193 171 211 143.5Q229 116 271 116Q311 116 336.5 153.5Q362 191 364 257Q368 352 365 436L363 520L395 519Q427 518 509 518L508 370Q508 223 510 -11L478 -10Q447 -9 387 -10L388 22Q389 54 389 103Q367 53 324.5 25Q282 -3 227 -3ZM357 547Q320 569 303 577L286 586Q343 671 370 715L398 759Q443 734 465 722L487 711Q418 626 387 586ZM187 553Q150 575 133 582L116 590Q171 677 198 720L225 764Q268 739 290 727L313 715Q245 630 216 591Z" glyph-name="uhungarumlaut" horiz-adv-x="565" unicode="&#369;" /><glyph d="M227 -3Q140 -3 95.5 54.5Q51 112 51 233Q51 310 50 401V493L87 491Q124 490 197 489L195 414Q193 340 193 224Q193 171 211 143.5Q229 116 271 116Q311 116 336.5 153.5Q362 191 364 257Q368 352 365 436L363 520L395 519Q427 518 509 518L508 370Q508 223 510 -11L478 -10Q447 -9 387 -10L388 22Q389 54 389 103Q367 53 324.5 25Q282 -3 227 -3ZM138 593V613Q138 634 137 680L202 679Q268 679 426 682L425 661Q424 640 424 594H354Q284 595 138 593Z" glyph-name="umacron" horiz-adv-x="565" unicode="&#363;" /><glyph d="M17 -110Q18 -50 17 -24.5Q16 1 16 7Q129 4 260 4Q391 4 455 5Q454 -63 454 -84V-111Q355 -110 211 -110Z" glyph-name="underscore" horiz-adv-x="468" unicode="_" /><glyph d="M-57 -217 -55 -185Q-53 -154 -53 -94Q-41 -95 -30.5 -96.5Q-20 -98 -10 -98Q28 -98 47 -79.5Q66 -61 67 -17Q69 141 67 320L65 499Q139 498 173 499L208 500L211 350Q214 200 212 -31Q211 -130 159.5 -176Q108 -222 14 -222Q-2 -222 -20 -221Q-38 -220 -57 -217Z" glyph-name="uni0237" horiz-adv-x="275" unicode="&#567;" /><glyph d="M467 -216Q455 -217 443.5 -218Q432 -219 422 -219Q362 -219 324.5 -193Q287 -167 287 -122Q286 -88 310.5 -54.5Q335 -21 387 0Q388 12 388.5 39Q389 66 389 103Q367 53 324.5 25Q282 -3 227 -3Q140 -3 95.5 54.5Q51 112 51 233Q51 310 50 401V493L87 491Q124 490 197 489L195 414Q193 340 193 224Q193 171 211 143.5Q229 116 271 116Q311 116 336.5 153.5Q362 191 364 257Q368 352 365 436L363 520L395 519Q427 518 509 518L508 370Q508 223 510 -11L493 -10Q476 -9 445 -9Q410 -28 394 -51Q378 -74 378 -93Q378 -117 404 -127.5Q430 -138 473 -135L470 -155Q468 -176 467 -216Z" glyph-name="uogonek" horiz-adv-x="565" unicode="&#371;" /><glyph d="M227 -3Q140 -3 95.5 54.5Q51 112 51 233Q51 310 50 401V493L87 491Q124 490 197 489L195 414Q193 340 193 224Q193 171 211 143.5Q229 116 271 116Q311 116 336.5 153.5Q362 191 364 257Q368 352 365 436L363 520L395 519Q427 518 509 518L508 370Q508 223 510 -11L478 -10Q447 -9 387 -10L388 22Q389 54 389 103Q367 53 324.5 25Q282 -3 227 -3ZM279 549Q222 549 188.5 580Q155 611 155 660Q155 708 190 738Q225 768 279 768Q343 768 375 735Q407 702 407 660Q407 606 370.5 577.5Q334 549 279 549ZM282 600Q308 600 324.5 616.5Q341 633 341 660Q341 683 326 701.5Q311 720 282 720Q254 720 238 703Q222 686 222 661Q222 637 237.5 618.5Q253 600 282 600Z" glyph-name="uring" horiz-adv-x="565" unicode="&#367;" /><glyph d="M364 5Q269 6 220 5H171Q92 254 53 372L15 491Q86 492 126 495L167 498Q203 347 229 243Q255 139 266 96Q314 285 339 401L365 517Q443 514 477 513H512Q436 250 400 127Z" glyph-name="v" horiz-adv-x="527" unicode="v" /><glyph d="M472 -8Q441 127 418 222.5Q395 318 385 358Q343 186 324 95L305 5Q201 6 159 6L117 7Q70 246 43 374L17 503Q83 503 120 505L157 507Q179 358 196 254Q213 150 220 107Q257 262 286 382L316 502H452Q492 342 519 242Q546 142 556 104Q588 297 605 411L622 525Q695 521 726 521L758 522Q703 262 679 128L655 -5Q567 -5 519 -6Z" glyph-name="w" horiz-adv-x="775" unicode="w" /><glyph d="M23 3Q87 104 125 166.5Q163 229 178 255Q108 376 67 440L27 505Q104 504 146 505L189 507Q223 438 247.5 391Q272 344 287 317Q341 418 368 470L396 522Q476 518 513 516L550 515Q484 411 445.5 347Q407 283 392 258Q469 123 512 53L555 -16Q474 -16 434 -17L395 -19Q356 55 328.5 106.5Q301 158 284 189Q234 99 211 51L188 3Q99 4 61 3Z" glyph-name="x" horiz-adv-x="578" unicode="x" /><glyph d="M295 -235Q213 -222 183 -217L154 -213Q173 -153 184.5 -112.5Q196 -72 203 -47Q122 193 68 338L15 484Q92 485 132 488L173 492Q206 363 233.5 261.5Q261 160 273 115Q318 291 343 407L369 524Q448 519 483 517L519 516Q388 79 341 -78Z" glyph-name="y" horiz-adv-x="534" unicode="y" /><glyph d="M295 -235Q213 -222 183 -217L154 -213Q173 -153 184.5 -112.5Q196 -72 203 -47Q122 193 68 338L15 484Q92 485 132 488L173 492Q206 363 233.5 261.5Q261 160 273 115Q318 291 343 407L369 524Q448 519 483 517L519 516Q388 79 341 -78ZM259 546Q222 573 206 584L190 595Q254 676 286 719L318 763Q361 732 383 716L406 700Q328 622 293 584Z" glyph-name="yacute" horiz-adv-x="534" unicode="&#253;" /><glyph d="M295 -235Q213 -222 183 -217L154 -213Q173 -153 184.5 -112.5Q196 -72 203 -47Q122 193 68 338L15 484Q92 485 132 488L173 492Q206 363 233.5 261.5Q261 160 273 115Q318 291 343 407L369 524Q448 519 483 517L519 516Q388 79 341 -78ZM371 569Q341 569 322 588Q303 607 303 639Q303 665 321.5 683.5Q340 702 373 702Q404 702 421.5 683Q439 664 439 636Q439 604 419.5 586.5Q400 569 371 569ZM167 568Q133 568 115 588Q97 608 97 636Q97 666 118 683.5Q139 701 168 701Q202 701 220.5 681.5Q239 662 239 635Q239 600 217.5 584Q196 568 167 568Z" glyph-name="ydieresis" horiz-adv-x="534" unicode="&#255;" /></font>
</defs>
</svg>
